a0000-p0300.ufo
<glyph name="exclam" format="1">
  <advance width="220"/>
  <unicode hex="0021"/>
  <outline>
    <contour>
      <point x="112" y="1" type="curve" smooth="yes"/>
      <point x="145" y="1"/>
      <point x="165" y="20"/>
      <point x="165" y="52" type="curve" smooth="yes"/>
      <point x="165" y="83"/>
      <point x="145" y="103"/>
      <point x="112" y="103" type="curve" smooth="yes"/>
      <point x="80" y="103"/>
      <point x="60" y="84"/>
      <point x="60" y="52" type="curve" smooth="yes"/>
      <point x="60" y="20"/>
      <point x="80" y="1"/>
    </contour>
    <contour>
      <point x="84" y="186" type="line"/>
      <point x="136" y="186" type="line"/>
      <point x="136" y="199" type="line"/>
      <point x="152" y="730" type="line"/>
      <point x="152" y="740" type="line"/>
      <point x="67" y="740" type="line"/>
      <point x="67" y="730" type="line"/>
      <point x="84" y="199" type="line"/>
    </contour>
  </outline>
</glyph>
<glyph name="numbersign" format="1">
  <advance width="482"/>
  <unicode hex="0023"/>
  <outline>
    <contour>
      <point x="94" y="0" type="line"/>
      <point x="156" y="0" type="line"/>
      <point x="216" y="740" type="line"/>
      <point x="154" y="740" type="line"/>
    </contour>
    <contour>
      <point x="41" y="230" type="line"/>
      <point x="440" y="230" type="line"/>
      <point x="440" y="289" type="line"/>
      <point x="41" y="289" type="line"/>
    </contour>
    <contour>
      <point x="41" y="452" type="line"/>
      <point x="441" y="452" type="line"/>
      <point x="441" y="510" type="line"/>
      <point x="41" y="510" type="line"/>
    </contour>
    <contour>
      <point x="256" y="0" type="line"/>
      <point x="319" y="0" type="line"/>
      <point x="379" y="740" type="line"/>
      <point x="317" y="740" type="line"/>
    </contour>
  </outline>
</glyph>
<glyph name="percent" format="1">
  <advance width="816"/>
  <unicode hex="0025"/>
  <outline>
    <contour>
      <point x="188" y="283" type="curve" smooth="yes"/>
      <point x="290" y="283"/>
      <point x="343" y="363"/>
      <point x="343" y="516" type="curve" smooth="yes"/>
      <point x="343" y="669"/>
      <point x="290" y="750"/>
      <point x="188" y="750" type="curve" smooth="yes"/>
      <point x="87" y="750"/>
      <point x="33" y="669"/>
      <point x="33" y="516" type="curve" smooth="yes"/>
      <point x="33" y="363"/>
      <point x="86" y="283"/>
    </contour>
    <contour>
      <point x="188" y="343" type="curve" smooth="yes"/>
      <point x="127" y="343"/>
      <point x="98" y="399"/>
      <point x="98" y="516" type="curve" smooth="yes"/>
      <point x="98" y="632"/>
      <point x="128" y="690"/>
      <point x="188" y="690" type="curve" smooth="yes"/>
      <point x="247" y="690"/>
      <point x="277" y="633"/>
      <point x="277" y="516" type="curve" smooth="yes"/>
      <point x="277" y="399"/>
      <point x="249" y="343"/>
    </contour>
    <contour>
      <point x="630" y="-13" type="curve" smooth="yes"/>
      <point x="732" y="-13"/>
      <point x="785" y="67"/>
      <point x="785" y="220" type="curve" smooth="yes"/>
      <point x="785" y="373"/>
      <point x="732" y="454"/>
      <point x="630" y="454" type="curve" smooth="yes"/>
      <point x="528" y="454"/>
      <point x="474" y="373"/>
      <point x="474" y="220" type="curve" smooth="yes"/>
      <point x="474" y="67"/>
      <point x="528" y="-13"/>
    </contour>
    <contour>
      <point x="630" y="47" type="curve" smooth="yes"/>
      <point x="569" y="47"/>
      <point x="539" y="103"/>
      <point x="539" y="220" type="curve" smooth="yes"/>
      <point x="539" y="336"/>
      <point x="570" y="394"/>
      <point x="630" y="394" type="curve" smooth="yes"/>
      <point x="689" y="394"/>
      <point x="719" y="337"/>
      <point x="719" y="220" type="curve" smooth="yes"/>
      <point x="719" y="103"/>
      <point x="690" y="47"/>
    </contour>
    <contour>
      <point x="240" y="0" type="line"/>
      <point x="310" y="0" type="line"/>
      <point x="570" y="740" type="line"/>
      <point x="500" y="740" type="line"/>
    </contour>
  </outline>
</glyph>
<glyph name="quotesingle" format="1">
  <advance width="168"/>
  <unicode hex="0027"/>
  <outline>
    <contour>
      <point x="56" y="808" type="line"/>
      <point x="56" y="480" type="line"/>
      <point x="98" y="480" type="line"/>
      <point x="124" y="804" type="line"/>
      <point x="124" y="808" type="line"/>
    </contour>
  </outline>
</glyph>
<glyph name="parenleft" format="1">
  <advance width="274"/>
  <unicode hex="0028"/>
  <outline>
    <contour>
      <point x="189" y="-160" type="curve"/>
      <point x="261" y="-160" type="line"/>
      <point x="261" y="-156" type="line"/>
      <point x="162" y="-11"/>
      <point x="106" y="167"/>
      <point x="106" y="354" type="curve" smooth="yes"/>
      <point x="106" y="540"/>
      <point x="162" y="719"/>
      <point x="261" y="864" type="curve"/>
      <point x="261" y="868" type="line"/>
      <point x="189" y="868" type="line"/>
      <point x="89" y="721"/>
      <point x="36" y="540"/>
      <point x="36" y="354" type="curve" smooth="yes"/>
      <point x="36" y="169"/>
      <point x="89" y="-13"/>
    </contour>
  </outline>
</glyph>
<glyph name="parenright" format="1">
  <advance width="274"/>
  <unicode hex="0029"/>
  <outline>
    <contour>
      <point x="85" y="-160" type="line"/>
      <point x="185" y="-13"/>
      <point x="238" y="169"/>
      <point x="238" y="354" type="curve" smooth="yes"/>
      <point x="238" y="540"/>
      <point x="185" y="721"/>
      <point x="85" y="868" type="curve"/>
      <point x="14" y="868" type="line"/>
      <point x="14" y="864" type="line"/>
      <point x="112" y="719"/>
      <point x="168" y="540"/>
      <point x="168" y="354" type="curve" smooth="yes"/>
      <point x="168" y="167"/>
      <point x="112" y="-11"/>
      <point x="14" y="-156" type="curve"/>
      <point x="14" y="-160" type="line"/>
    </contour>
  </outline>
</glyph>
<glyph name="plus" format="1">
  <advance width="478"/>
  <unicode hex="002B"/>
  <outline>
    <contour>
      <point x="41" y="338" type="line"/>
      <point x="438" y="338" type="line"/>
      <point x="438" y="402" type="line"/>
      <point x="41" y="402" type="line"/>
    </contour>
    <contour>
      <point x="207" y="169" type="line"/>
      <point x="271" y="169" type="line"/>
      <point x="271" y="571" type="line"/>
      <point x="207" y="571" type="line"/>
    </contour>
  </outline>
</glyph>
<glyph name="hyphen" format="1">
  <advance width="337"/>
  <unicode hex="002D"/>
  <outline>
    <contour>
      <point x="54" y="247" type="line"/>
      <point x="283" y="247" type="line"/>
      <point x="283" y="313" type="line"/>
      <point x="54" y="313" type="line"/>
    </contour>
  </outline>
</glyph>
<glyph name="slash" format="1">
  <advance width="290"/>
  <unicode hex="002F"/>
  <outline>
    <contour>
      <point x="29" y="-121" type="line"/>
      <point x="102" y="-121" type="line"/>
      <point x="262" y="740" type="line"/>
      <point x="189" y="740" type="line"/>
    </contour>
  </outline>
</glyph>
<glyph name="four" format="1">
  <advance width="496"/>
  <unicode hex="0034"/>
  <outline>
    <contour>
      <point x="35" y="177" type="line"/>
      <point x="473" y="177" type="line"/>
      <point x="473" y="242" type="line"/>
      <point x="105" y="242" type="line"/>
      <point x="105" y="247" type="line"/>
      <point x="342" y="735" type="line"/>
      <point x="339" y="740" type="line"/>
      <point x="267" y="750" type="line"/>
      <point x="261" y="750" type="line"/>
      <point x="17" y="227" type="line"/>
      <point x="17" y="223" type="line"/>
    </contour>
    <contour>
      <point x="316" y="0" type="line"/>
      <point x="399" y="0" type="line"/>
      <point x="399" y="507" type="line"/>
      <point x="339" y="507" type="line"/>
      <point x="316" y="242" type="line"/>
    </contour>
  </outline>
</glyph>
<glyph name="five" format="1">
  <advance width="415"/>
  <unicode hex="0035"/>
  <outline>
    <contour>
      <point x="157" y="-12" type="curve" smooth="yes"/>
      <point x="298" y="-12"/>
      <point x="380" y="71"/>
      <point x="380" y="215" type="curve" smooth="yes"/>
      <point x="380" y="372"/>
      <point x="307" y="432"/>
      <point x="116" y="432" type="curve"/>
      <point x="125" y="396" type="line"/>
      <point x="147" y="706" type="line"/>
      <point x="116" y="668" type="line"/>
      <point x="349" y="668" type="line"/>
      <point x="349" y="740" type="line"/>
      <point x="78" y="740" type="line"/>
      <point x="52" y="372" type="line"/>
      <point x="56" y="368" type="line"/>
      <point x="112" y="368" type="line" smooth="yes"/>
      <point x="246" y="368"/>
      <point x="296" y="326"/>
      <point x="296" y="215" type="curve" smooth="yes"/>
      <point x="296" y="115"/>
      <point x="246" y="59"/>
      <point x="152" y="59" type="curve" smooth="yes"/>
      <point x="126" y="59"/>
      <point x="98" y="63"/>
      <point x="63" y="71" type="curve"/>
      <point x="44" y="71" type="line"/>
      <point x="44" y="3" type="line"/>
      <point x="87" y="-7"/>
      <point x="123" y="-12"/>
    </contour>
  </outline>
</glyph>
<glyph name="less" format="1">
  <advance width="496"/>
  <unicode hex="003C"/>
  <outline>
    <contour>
      <point x="38" y="349" type="line"/>
      <point x="89" y="349" type="line"/>
      <point x="439" y="502" type="line"/>
      <point x="439" y="573" type="line"/>
      <point x="38" y="396" type="line"/>
    </contour>
    <contour>
      <point x="437" y="159" type="line"/>
      <point x="437" y="229" type="line"/>
      <point x="89" y="382" type="line"/>
      <point x="38" y="382" type="line"/>
      <point x="38" y="336" type="line"/>
    </contour>
  </outline>
</glyph>
<glyph name="question" format="1">
  <advance width="399"/>
  <unicode hex="003F"/>
  <outline>
    <contour>
      <point x="119" y="181" type="line"/>
      <point x="178" y="181" type="line"/>
      <point x="178" y="199" type="line"/>
      <point x="180" y="344" type="line"/>
      <point x="271" y="367"/>
      <point x="370" y="419"/>
      <point x="370" y="554" type="curve" smooth="yes"/>
      <point x="370" y="698"/>
      <point x="275" y="750"/>
      <point x="168" y="750" type="curve" smooth="yes"/>
      <point x="118" y="750"/>
      <point x="69" y="739"/>
      <point x="27" y="724" type="curve"/>
      <point x="37" y="660" type="line"/>
      <point x="73" y="673"/>
      <point x="117" y="682"/>
      <point x="156" y="682" type="curve" smooth="yes"/>
      <point x="224" y="682"/>
      <point x="290" y="649"/>
      <point x="290" y="549" type="curve" smooth="yes"/>
      <point x="290" y="441"/>
      <point x="195" y="409"/>
      <point x="113" y="388" type="curve"/>
      <point x="119" y="199" type="line"/>
    </contour>
    <contour>
      <point x="150" y="-2" type="curve" smooth="yes"/>
      <point x="183" y="-2"/>
      <point x="203" y="17"/>
      <point x="203" y="49" type="curve" smooth="yes"/>
      <point x="203" y="81"/>
      <point x="183" y="100"/>
      <point x="150" y="100" type="curve" smooth="yes"/>
      <point x="117" y="100"/>
      <point x="98" y="81"/>
      <point x="98" y="49" type="curve" smooth="yes"/>
      <point x="98" y="17"/>
      <point x="117" y="-2"/>
    </contour>
  </outline>
</glyph>
<glyph name="B" format="1">
  <advance width="558"/>
  <unicode hex="0042"/>
  <outline>
    <contour>
      <point x="263" y="-10" type="curve" smooth="yes"/>
      <point x="433" y="-10"/>
      <point x="521" y="59"/>
      <point x="521" y="195" type="curve" smooth="yes"/>
      <point x="521" y="296"/>
      <point x="470" y="363"/>
      <point x="386" y="377" type="curve"/>
      <point x="386" y="381" type="line"/>
      <point x="458" y="397"/>
      <point x="499" y="456"/>
      <point x="499" y="549" type="curve" smooth="yes"/>
      <point x="499" y="686"/>
      <point x="421" y="750"/>
      <point x="254" y="750" type="curve" smooth="yes"/>
      <point x="203" y="750"/>
      <point x="159" y="746"/>
      <point x="72" y="736" type="curve"/>
      <point x="72" y="5" type="line"/>
      <point x="118" y="-4"/>
      <point x="203" y="-10"/>
    </contour>
    <contour>
      <point x="273" y="55" type="curve" smooth="yes"/>
      <point x="230" y="55"/>
      <point x="167" y="60"/>
      <point x="149" y="64" type="curve"/>
      <point x="149" y="341" type="line"/>
      <point x="255" y="341" type="line" smooth="yes"/>
      <point x="385" y="341"/>
      <point x="436" y="300"/>
      <point x="436" y="199" type="curve" smooth="yes"/>
      <point x="436" y="103"/>
      <point x="381" y="56"/>
    </contour>
    <contour>
      <point x="149" y="406" type="line"/>
      <point x="149" y="675" type="line"/>
      <point x="189" y="681"/>
      <point x="222" y="683"/>
      <point x="261" y="683" type="curve" smooth="yes"/>
      <point x="364" y="683"/>
      <point x="413" y="639"/>
      <point x="413" y="545" type="curve" smooth="yes"/>
      <point x="413" y="443"/>
      <point x="372" y="406"/>
      <point x="254" y="406" type="curve" smooth="yes"/>
    </contour>
  </outline>
</glyph>
<glyph name="E" format="1">
  <advance width="508"/>
  <unicode hex="0045"/>
  <outline>
    <contour>
      <point x="473" y="0" type="move" name="ogonek"/>
    </contour>
    <contour>
      <point x="268" y="774" type="move" name="topUC"/>
    </contour>
    <contour>
      <point x="282" y="0" type="move" name="bottom"/>
    </contour>
    <contour>
      <point x="72" y="0" type="line"/>
      <point x="473" y="0" type="line"/>
      <point x="473" y="72" type="line"/>
      <point x="154" y="72" type="line"/>
      <point x="154" y="668" type="line"/>
      <point x="464" y="668" type="line"/>
      <point x="464" y="740" type="line"/>
      <point x="72" y="740" type="line"/>
    </contour>
    <contour>
      <point x="134" y="338" type="line"/>
      <point x="431" y="338" type="line"/>
      <point x="431" y="410" type="line"/>
      <point x="134" y="410" type="line"/>
    </contour>
  </outline>
</glyph>
<glyph name="G" format="1">
  <advance width="558"/>
  <unicode hex="0047"/>
  <outline>
    <contour>
      <point x="330" y="774" type="move" name="topUC"/>
    </contour>
    <contour>
      <point x="331" y="0" type="move" name="bottom"/>
    </contour>
    <contour>
      <point x="347" y="-10" type="curve" smooth="yes"/>
      <point x="394" y="-10"/>
      <point x="437" y="-6"/>
      <point x="505" y="4" type="curve"/>
      <point x="482" y="75" type="line"/>
      <point x="436" y="67"/>
      <point x="384" y="62"/>
      <point x="353" y="62" type="curve" smooth="yes"/>
      <point x="192" y="62"/>
      <point x="127" y="149"/>
      <point x="127" y="369" type="curve" smooth="yes"/>
      <point x="127" y="595"/>
      <point x="191" y="677"/>
      <point x="368" y="677" type="curve" smooth="yes"/>
      <point x="406" y="677"/>
      <point x="452" y="672"/>
      <point x="503" y="662" type="curve"/>
      <point x="503" y="732" type="line"/>
      <point x="454" y="742"/>
      <point x="396" y="748"/>
      <point x="360" y="748" type="curve" smooth="yes"/>
      <point x="137" y="748"/>
      <point x="42" y="636"/>
      <point x="42" y="369" type="curve" smooth="yes"/>
      <point x="42" y="108"/>
      <point x="134" y="-8"/>
    </contour>
    <contour>
      <point x="429" y="9" type="line"/>
      <point x="505" y="4" type="line"/>
      <point x="505" y="376" type="line"/>
      <point x="429" y="376" type="line"/>
    </contour>
  </outline>
</glyph>
<glyph name="H" format="1">
  <advance width="628"/>
  <unicode hex="0048"/>
  <outline>
    <contour>
      <point x="305" y="774" type="move" name="topUC"/>
    </contour>
    <contour>
      <point x="319" y="0" type="move" name="bottom"/>
    </contour>
    <contour>
      <point x="72" y="0" type="line"/>
      <point x="154" y="0" type="line"/>
      <point x="154" y="341" type="line"/>
      <point x="474" y="341" type="line"/>
      <point x="474" y="0" type="line"/>
      <point x="556" y="0" type="line"/>
      <point x="556" y="740" type="line"/>
      <point x="474" y="740" type="line"/>
      <point x="474" y="414" type="line"/>
      <point x="154" y="414" type="line"/>
      <point x="154" y="740" type="line"/>
      <point x="72" y="740" type="line"/>
    </contour>
  </outline>
</glyph>
<glyph name="I" format="1">
  <advance width="226"/>
  <unicode hex="0049"/>
  <outline>
    <contour>
      <point x="154" y="0" type="move" name="ogonek"/>
    </contour>
    <contour>
      <point x="115" y="774" type="move" name="topUC"/>
    </contour>
    <contour>
      <point x="115" y="0" type="move" name="bottom"/>
    </contour>
    <contour>
      <point x="72" y="0" type="line"/>
      <point x="154" y="0" type="line"/>
      <point x="154" y="740" type="line"/>
      <point x="72" y="740" type="line"/>
    </contour>
  </outline>
</glyph>
<glyph name="K" format="1">
  <advance width="567"/>
  <unicode hex="004B"/>
  <outline>
    <contour>
      <point x="285" y="0" type="move" name="bottom"/>
    </contour>
    <contour>
      <point x="72" y="0" type="line"/>
      <point x="154" y="0" type="line"/>
      <point x="154" y="340" type="line"/>
      <point x="240" y="340" type="line"/>
      <point x="472" y="0" type="line"/>
      <point x="566" y="0" type="line"/>
      <point x="329" y="351" type="line"/>
      <point x="294" y="375" type="line"/>
      <point x="294" y="380" type="line"/>
      <point x="327" y="406" type="line"/>
      <point x="546" y="740" type="line"/>
      <point x="451" y="740" type="line"/>
      <point x="237" y="413" type="line"/>
      <point x="154" y="413" type="line"/>
      <point x="154" y="740" type="line"/>
      <point x="72" y="740" type="line"/>
    </contour>
  </outline>
</glyph>
<glyph name="P" format="1">
  <advance width="532"/>
  <unicode hex="0050"/>
  <outline>
    <contour>
      <point x="223" y="242" type="curve" smooth="yes"/>
      <point x="418" y="242"/>
      <point x="504" y="320"/>
      <point x="504" y="497" type="curve" smooth="yes"/>
      <point x="504" y="673"/>
      <point x="419" y="751"/>
      <point x="230" y="751" type="curve" smooth="yes"/>
      <point x="180" y="751"/>
      <point x="128" y="746"/>
      <point x="72" y="735" type="curve"/>
      <point x="72" y="253" type="line"/>
      <point x="123" y="246"/>
      <point x="174" y="242"/>
    </contour>
    <contour>
      <point x="237" y="312" type="curve" smooth="yes"/>
      <point x="211" y="312"/>
      <point x="181" y="315"/>
      <point x="154" y="318" type="curve"/>
      <point x="154" y="672" type="line"/>
      <point x="185" y="677"/>
      <point x="217" y="680"/>
      <point x="243" y="680" type="curve" smooth="yes"/>
      <point x="367" y="680"/>
      <point x="420" y="625"/>
      <point x="420" y="497" type="curve" smooth="yes"/>
      <point x="420" y="367"/>
      <point x="365" y="312"/>
    </contour>
    <contour>
      <point x="72" y="0" type="line"/>
      <point x="154" y="0" type="line"/>
      <point x="154" y="686" type="line"/>
      <point x="72" y="686" type="line"/>
    </contour>
  </outline>
</glyph>
<glyph name="R" format="1">
  <advance width="545"/>
  <unicode hex="0052"/>
  <outline>
    <contour>
      <point x="279" y="774" type="move" name="topUC"/>
    </contour>
    <contour>
      <point x="285" y="0" type="move" name="bottom"/>
    </contour>
    <contour>
      <point x="72" y="0" type="line"/>
      <point x="154" y="0" type="line"/>
      <point x="154" y="274" type="line"/>
      <point x="176" y="272"/>
      <point x="208" y="271"/>
      <point x="230" y="271" type="curve" smooth="yes"/>
      <point x="419" y="271"/>
      <point x="504" y="345"/>
      <point x="504" y="510" type="curve" smooth="yes"/>
      <point x="504" y="678"/>
      <point x="420" y="751"/>
      <point x="230" y="751" type="curve" smooth="yes"/>
      <point x="178" y="751"/>
      <point x="125" y="746"/>
      <point x="72" y="735" type="curve"/>
    </contour>
    <contour>
      <point x="237" y="339" type="curve" smooth="yes"/>
      <point x="213" y="339"/>
      <point x="184" y="341"/>
      <point x="154" y="345" type="curve"/>
      <point x="154" y="672" type="line"/>
      <point x="189" y="677"/>
      <point x="221" y="680"/>
      <point x="243" y="680" type="curve" smooth="yes"/>
      <point x="368" y="680"/>
      <point x="420" y="630"/>
      <point x="420" y="510" type="curve" smooth="yes"/>
      <point x="420" y="390"/>
      <point x="366" y="339"/>
    </contour>
    <contour>
      <point x="428" y="0" type="line"/>
      <point x="515" y="0" type="line"/>
      <point x="359" y="320" type="line"/>
      <point x="290" y="293" type="line"/>
    </contour>
  </outline>
</glyph>
<glyph name="W" format="1">
  <advance width="875"/>
  <unicode hex="0057"/>
  <outline>
    <contour>
      <point x="439" y="774" type="move" name="topUC"/>
    </contour>
    <contour>
      <point x="187" y="0" type="line"/>
      <point x="288" y="0" type="line"/>
      <point x="416" y="506" type="line"/>
      <point x="437" y="621" type="line"/>
      <point x="443" y="621" type="line"/>
      <point x="462" y="506" type="line"/>
      <point x="582" y="0" type="line"/>
      <point x="683" y="0" type="line"/>
      <point x="868" y="740" type="line"/>
      <point x="779" y="740" type="line"/>
      <point x="661" y="230" type="line"/>
      <point x="635" y="108" type="line"/>
      <point x="627" y="108" type="line"/>
      <point x="603" y="230" type="line"/>
      <point x="486" y="740" type="line"/>
      <point x="397" y="740" type="line"/>
      <point x="271" y="230" type="line"/>
      <point x="244" y="108" type="line"/>
      <point x="237" y="108" type="line"/>
      <point x="213" y="230" type="line"/>
      <point x="103" y="740" type="line"/>
      <point x="13" y="740" type="line"/>
    </contour>
  </outline>
</glyph>
<glyph name="Y" format="1">
  <advance width="549"/>
  <unicode hex="0059"/>
  <outline>
    <contour>
      <point x="277" y="774" type="move" name="topUC"/>
    </contour>
    <contour>
      <point x="234" y="0" type="line"/>
      <point x="316" y="0" type="line"/>
      <point x="316" y="251" type="line"/>
      <point x="549" y="740" type="line"/>
      <point x="459" y="740" type="line"/>
      <point x="299" y="389" type="line"/>
      <point x="278" y="333" type="line"/>
      <point x="271" y="333" type="line"/>
      <point x="250" y="389" type="line"/>
      <point x="90" y="740" type="line"/>
      <point x="-1" y="740" type="line"/>
      <point x="234" y="248" type="line"/>
    </contour>
  </outline>
</glyph>
<glyph name="bracketleft" format="1">
  <advance width="295"/>
  <unicode hex="005B"/>
  <outline>
    <contour>
      <point x="71" y="-160" type="line"/>
      <point x="269" y="-160" type="line"/>
      <point x="269" y="-100" type="line"/>
      <point x="139" y="-100" type="line"/>
      <point x="139" y="808" type="line"/>
      <point x="269" y="808" type="line"/>
      <point x="269" y="868" type="line"/>
      <point x="71" y="868" type="line"/>
    </contour>
  </outline>
</glyph>
<glyph name="underscore" format="1">
  <advance width="494"/>
  <unicode hex="005F"/>
  <outline>
    <contour>
      <point x="40" y="-124" type="line"/>
      <point x="454" y="-124" type="line"/>
      <point x="454" y="-60" type="line"/>
      <point x="40" y="-60" type="line"/>
    </contour>
  </outline>
</glyph>
<glyph name="grave" format="1">
  <advance width="229"/>
  <unicode hex="0060"/>
  <outline>
    <contour>
      <point x="150" y="600" type="move" name="_top"/>
    </contour>
    <contour>
      <point x="126" y="610" type="line"/>
      <point x="28" y="801" type="line"/>
      <point x="112" y="801" type="line"/>
      <point x="183" y="620" type="line"/>
    </contour>
  </outline>
</glyph>
<glyph name="g" format="1">
  <advance width="489"/>
  <unicode hex="0067"/>
  <outline>
    <contour>
      <point x="259" y="600" type="move" name="top"/>
    </contour>
    <contour>
      <point x="216" y="-220" type="curve" smooth="yes"/>
      <point x="362" y="-220"/>
      <point x="429" y="-132"/>
      <point x="429" y="64" type="curve" smooth="yes"/>
      <point x="429" y="525" type="line"/>
      <point x="369" y="542"/>
      <point x="323" y="549"/>
      <point x="267" y="549" type="curve" smooth="yes"/>
      <point x="120" y="549"/>
      <point x="38" y="446"/>
      <point x="38" y="264" type="curve" smooth="yes"/>
      <point x="38" y="86"/>
      <point x="96" y="0"/>
      <point x="215" y="0" type="curve" smooth="yes"/>
      <point x="270" y="0"/>
      <point x="315" y="21"/>
      <point x="346" y="61" type="curve"/>
      <point x="350" y="61" type="line"/>
      <point x="350" y="39" type="line" smooth="yes"/>
      <point x="348" y="-99"/>
      <point x="308" y="-154"/>
      <point x="210" y="-154" type="curve" smooth="yes"/>
      <point x="171" y="-154"/>
      <point x="134" y="-147"/>
      <point x="88" y="-131" type="curve"/>
      <point x="81" y="-197" type="line"/>
      <point x="125" y="-212"/>
      <point x="170" y="-220"/>
    </contour>
    <contour>
      <point x="234" y="60" type="curve" smooth="yes"/>
      <point x="160" y="60"/>
      <point x="122" y="130"/>
      <point x="122" y="271" type="curve" smooth="yes"/>
      <point x="122" y="419"/>
      <point x="170" y="488"/>
      <point x="266" y="488" type="curve" smooth="yes"/>
      <point x="291" y="488"/>
      <point x="312" y="485"/>
      <point x="348" y="477" type="curve"/>
      <point x="348" y="174" type="line" smooth="yes"/>
      <point x="348" y="103"/>
      <point x="293" y="60"/>
    </contour>
  </outline>
</glyph>
<glyph name="i" format="1">
  <advance width="204"/>
  <unicode hex="0069"/>
  <outline>
    <contour>
      <point x="142" y="0" type="move" name="ogonek"/>
    </contour>
    <contour>
      <point x="102" y="0" type="move" name="bottom"/>
    </contour>
    <contour>
      <point x="102" y="658" type="curve" smooth="yes"/>
      <point x="137" y="658"/>
      <point x="154" y="675"/>
      <point x="154" y="709" type="curve" smooth="yes"/>
      <point x="154" y="742"/>
      <point x="136" y="759"/>
      <point x="102" y="759" type="curve" smooth="yes"/>
      <point x="68" y="759"/>
      <point x="51" y="743"/>
      <point x="51" y="709" type="curve" smooth="yes"/>
      <point x="51" y="675"/>
      <point x="68" y="658"/>
    </contour>
    <contour>
      <point x="62" y="0" type="line"/>
      <point x="142" y="0" type="line"/>
      <point x="142" y="540" type="line"/>
      <point x="62" y="540" type="line"/>
    </contour>
  </outline>
</glyph>
<glyph name="l" format="1">
  <advance width="207"/>
  <unicode hex="006C"/>
  <outline>
    <contour>
      <point x="105" y="818" type="move" name="top"/>
    </contour>
    <contour>
      <point x="227" y="370" type="move" name="periodcentered"/>
    </contour>
    <contour>
      <point x="227" y="768" type="move" name="caronalt"/>
    </contour>
    <contour>
      <point x="103" y="0" type="move" name="bottom"/>
    </contour>
    <contour>
      <point x="63" y="0" type="line"/>
      <point x="144" y="0" type="line"/>
      <point x="144" y="808" type="line"/>
      <point x="63" y="808" type="line"/>
    </contour>
  </outline>
</glyph>
<glyph name="m" format="1">
  <advance width="761"/>
  <unicode hex="006D"/>
  <outline>
    <contour>
      <point x="61" y="0" type="line"/>
      <point x="140" y="0" type="line"/>
      <point x="140" y="426" type="line"/>
      <point x="189" y="460"/>
      <point x="235" y="477"/>
      <point x="276" y="477" type="curve" smooth="yes"/>
      <point x="322" y="477"/>
      <point x="342" y="451"/>
      <point x="342" y="387" type="curve" smooth="yes"/>
      <point x="342" y="0" type="line"/>
      <point x="421" y="0" type="line"/>
      <point x="421" y="426" type="line"/>
      <point x="470" y="459"/>
      <point x="517" y="477"/>
      <point x="557" y="477" type="curve" smooth="yes"/>
      <point x="603" y="477"/>
      <point x="623" y="451"/>
      <point x="623" y="387" type="curve" smooth="yes"/>
      <point x="623" y="0" type="line"/>
      <point x="702" y="0" type="line"/>
      <point x="702" y="408" type="line" smooth="yes"/>
      <point x="702" y="508"/>
      <point x="668" y="550"/>
      <point x="587" y="550" type="curve" smooth="yes"/>
      <point x="534" y="550"/>
      <point x="480" y="529"/>
      <point x="416" y="481" type="curve"/>
      <point x="411" y="481" type="line"/>
      <point x="396" y="529"/>
      <point x="364" y="550"/>
      <point x="306" y="550" type="curve" smooth="yes"/>
      <point x="255" y="550"/>
      <point x="203" y="529"/>
      <point x="136" y="482" type="curve"/>
      <point x="133" y="482" type="line"/>
      <point x="127" y="540" type="line"/>
      <point x="61" y="540" type="line"/>
    </contour>
  </outline>
</glyph>
<glyph name="n" format="1">
  <advance width="485"/>
  <unicode hex="006E"/>
  <outline>
    <contour>
      <point x="8" y="674" type="move" name="apostrophe"/>
    </contour>
    <contour>
      <point x="248" y="600" type="move" name="top"/>
    </contour>
    <contour>
      <point x="243" y="0" type="move" name="bottom"/>
    </contour>
    <contour>
      <point x="61" y="0" type="line"/>
      <point x="142" y="0" type="line"/>
      <point x="142" y="424" type="line"/>
      <point x="192" y="458"/>
      <point x="239" y="477"/>
      <point x="281" y="477" type="curve" smooth="yes"/>
      <point x="325" y="477"/>
      <point x="346" y="452"/>
      <point x="346" y="387" type="curve" smooth="yes"/>
      <point x="346" y="0" type="line"/>
      <point x="426" y="0" type="line"/>
      <point x="426" y="408" type="line" smooth="yes"/>
      <point x="426" y="508"/>
      <point x="392" y="550"/>
      <point x="311" y="550" type="curve" smooth="yes"/>
      <point x="259" y="550"/>
      <point x="208" y="529"/>
      <point x="140" y="482" type="curve"/>
      <point x="136" y="482" type="line"/>
      <point x="130" y="540" type="line"/>
      <point x="61" y="540" type="line"/>
    </contour>
  </outline>
</glyph>
<glyph name="p" format="1">
  <advance width="489"/>
  <unicode hex="0070"/>
  <outline>
    <contour>
      <point x="61" y="-220" type="line"/>
      <point x="142" y="-220" type="line"/>
      <point x="142" y="-1" type="line"/>
      <point x="169" y="-7"/>
      <point x="195" y="-10"/>
      <point x="218" y="-10" type="curve" smooth="yes"/>
      <point x="389" y="-10"/>
      <point x="451" y="123"/>
      <point x="451" y="283" type="curve" smooth="yes"/>
      <point x="451" y="458"/>
      <point x="393" y="549"/>
      <point x="279" y="549" type="curve" smooth="yes"/>
      <point x="223" y="549"/>
      <point x="175" y="525"/>
      <point x="143" y="486" type="curve"/>
      <point x="139" y="486" type="line"/>
      <point x="134" y="540" type="line"/>
      <point x="61" y="540" type="line"/>
    </contour>
    <contour>
      <point x="220" y="51" type="curve" smooth="yes"/>
      <point x="198" y="51"/>
      <point x="171" y="55"/>
      <point x="142" y="62" type="curve"/>
      <point x="142" y="366" type="line" smooth="yes"/>
      <point x="142" y="443"/>
      <point x="196" y="486"/>
      <point x="255" y="486" type="curve" smooth="yes"/>
      <point x="332" y="486"/>
      <point x="368" y="421"/>
      <point x="368" y="275" type="curve" smooth="yes"/>
      <point x="368" y="121"/>
      <point x="320" y="51"/>
    </contour>
  </outline>
</glyph>
<glyph name="q" format="1">
  <advance width="488"/>
  <unicode hex="0071"/>
  <outline>
    <contour>
      <point x="348" y="-220" type="line"/>
      <point x="428" y="-220" type="line"/>
      <point x="428" y="527" type="line"/>
      <point x="374" y="543"/>
      <point x="325" y="549"/>
      <point x="271" y="549" type="curve" smooth="yes"/>
      <point x="119" y="549"/>
      <point x="38" y="448"/>
      <point x="38" y="264" type="curve" smooth="yes"/>
      <point x="38" y="80"/>
      <point x="95" y="-9"/>
      <point x="213" y="-9" type="curve" smooth="yes"/>
      <point x="269" y="-9"/>
      <point x="314" y="12"/>
      <point x="348" y="53" type="curve"/>
    </contour>
    <contour>
      <point x="234" y="54" type="curve" smooth="yes"/>
      <point x="158" y="54"/>
      <point x="120" y="124"/>
      <point x="120" y="273" type="curve" smooth="yes"/>
      <point x="120" y="420"/>
      <point x="167" y="488"/>
      <point x="266" y="488" type="curve" smooth="yes"/>
      <point x="290" y="488"/>
      <point x="310" y="486"/>
      <point x="347" y="478" type="curve"/>
      <point x="347" y="174" type="line" smooth="yes"/>
      <point x="347" y="98"/>
      <point x="294" y="54"/>
    </contour>
  </outline>
</glyph>
<glyph name="r" format="1">
  <advance width="318"/>
  <unicode hex="0072"/>
  <outline>
    <contour>
      <point x="176" y="600" type="move" name="top"/>
    </contour>
    <contour>
      <point x="100" y="0" type="move" name="bottom"/>
    </contour>
    <contour>
      <point x="61" y="0" type="line"/>
      <point x="142" y="0" type="line"/>
      <point x="142" y="414" type="line"/>
      <point x="170" y="437"/>
      <point x="220" y="456"/>
      <point x="275" y="465" type="curve"/>
      <point x="307" y="465" type="line"/>
      <point x="307" y="549" type="line"/>
      <point x="289" y="549" type="line"/>
      <point x="229" y="531"/>
      <point x="165" y="497"/>
      <point x="141" y="474" type="curve"/>
      <point x="136" y="474" type="line"/>
      <point x="130" y="540" type="line"/>
      <point x="61" y="540" type="line"/>
    </contour>
  </outline>
</glyph>
<glyph name="s" format="1">
  <advance width="376"/>
  <unicode hex="0073"/>
  <outline>
    <contour>
      <point x="190" y="600" type="move" name="top"/>
    </contour>
    <contour>
      <point x="186" y="0" type="move" name="bottom"/>
    </contour>
    <contour>
      <point x="176" y="-11" type="curve" smooth="yes"/>
      <point x="278" y="-11"/>
      <point x="344" y="52"/>
      <point x="344" y="148" type="curve" smooth="yes"/>
      <point x="344" y="252"/>
      <point x="288" y="284"/>
      <point x="206" y="307" type="curve" smooth="yes"/>
      <point x="158" y="321"/>
      <point x="117" y="335"/>
      <point x="117" y="400" type="curve" smooth="yes"/>
      <point x="117" y="453"/>
      <point x="155" y="486"/>
      <point x="216" y="486" type="curve" smooth="yes"/>
      <point x="245" y="486"/>
      <point x="270" y="483"/>
      <point x="324" y="470" type="curve"/>
      <point x="324" y="535" type="line"/>
      <point x="271" y="547"/>
      <point x="238" y="552"/>
      <point x="202" y="552" type="curve" smooth="yes"/>
      <point x="102" y="552"/>
      <point x="41" y="493"/>
      <point x="41" y="397" type="curve" smooth="yes"/>
      <point x="41" y="269"/>
      <point x="120" y="254"/>
      <point x="183" y="239" type="curve" smooth="yes"/>
      <point x="241" y="224"/>
      <point x="266" y="195"/>
      <point x="266" y="144" type="curve" smooth="yes"/>
      <point x="266" y="88"/>
      <point x="231" y="54"/>
      <point x="172" y="54" type="curve" smooth="yes"/>
      <point x="129" y="54"/>
      <point x="79" y="62"/>
      <point x="37" y="76" type="curve"/>
      <point x="37" y="11" type="line"/>
      <point x="95" y="-4"/>
      <point x="136" y="-11"/>
    </contour>
  </outline>
</glyph>
<glyph name="x" format="1">
  <advance width="466"/>
  <unicode hex="0078"/>
  <outline>
    <contour>
      <point x="9" y="0" type="line"/>
      <point x="96" y="0" type="line"/>
      <point x="212" y="201" type="line"/>
      <point x="229" y="233" type="line"/>
      <point x="234" y="233" type="line"/>
      <point x="252" y="201" type="line"/>
      <point x="371" y="0" type="line"/>
      <point x="457" y="0" type="line"/>
      <point x="457" y="7" type="line"/>
      <point x="289" y="273" type="line"/>
      <point x="448" y="534" type="line"/>
      <point x="448" y="540" type="line"/>
      <point x="362" y="540" type="line"/>
      <point x="254" y="357" type="line"/>
      <point x="237" y="324" type="line"/>
      <point x="232" y="324" type="line"/>
      <point x="214" y="357" type="line"/>
      <point x="105" y="540" type="line"/>
      <point x="19" y="540" type="line"/>
      <point x="19" y="534" type="line"/>
      <point x="178" y="280" type="line"/>
      <point x="9" y="7" type="line"/>
    </contour>
  </outline>
</glyph>
<glyph name="y" format="1">
  <advance width="469"/>
  <unicode hex="0079"/>
  <outline>
    <contour>
      <point x="240" y="600" type="move" name="top"/>
    </contour>
    <contour>
      <point x="207" y="-220" type="line"/>
      <point x="459" y="534" type="line"/>
      <point x="459" y="540" type="line"/>
      <point x="377" y="540" type="line"/>
      <point x="251" y="150" type="line"/>
      <point x="237" y="88" type="line"/>
      <point x="232" y="88" type="line"/>
      <point x="219" y="150" type="line"/>
      <point x="92" y="540" type="line"/>
      <point x="10" y="540" type="line"/>
      <point x="10" y="534" type="line"/>
      <point x="193" y="1" type="line"/>
      <point x="126" y="-198" type="line"/>
      <point x="126" y="-203" type="line"/>
    </contour>
  </outline>
</glyph>
<glyph name="braceleft" format="1">
  <advance width="331"/>
  <unicode hex="007B"/>
  <outline>
    <contour>
      <point x="19" y="328" type="line"/>
      <point x="69" y="328"/>
      <point x="95" y="290"/>
      <point x="95" y="224" type="curve" smooth="yes"/>
      <point x="95" y="-42" type="line" smooth="yes"/>
      <point x="95" y="-126"/>
      <point x="121" y="-152"/>
      <point x="201" y="-152" type="curve" smooth="yes"/>
      <point x="228" y="-152"/>
      <point x="294" y="-149"/>
      <point x="304" y="-147" type="curve"/>
      <point x="304" y="-92" type="line"/>
      <point x="219" y="-92" type="line" smooth="yes"/>
      <point x="178" y="-92"/>
      <point x="164" y="-79"/>
      <point x="164" y="-38" type="curve" smooth="yes"/>
      <point x="164" y="239" type="line" smooth="yes"/>
      <point x="164" y="297"/>
      <point x="139" y="344"/>
      <point x="102" y="358" type="curve"/>
      <point x="139" y="373"/>
      <point x="164" y="419"/>
      <point x="164" y="479" type="curve" smooth="yes"/>
      <point x="164" y="755" type="line" smooth="yes"/>
      <point x="164" y="795"/>
      <point x="178" y="808"/>
      <point x="219" y="808" type="curve" smooth="yes"/>
      <point x="304" y="808" type="line"/>
      <point x="304" y="863" type="line"/>
      <point x="294" y="865"/>
      <point x="228" y="868"/>
      <point x="201" y="868" type="curve" smooth="yes"/>
      <point x="121" y="868"/>
      <point x="95" y="842"/>
      <point x="95" y="759" type="curve" smooth="yes"/>
      <point x="95" y="494" type="line" smooth="yes"/>
      <point x="95" y="427"/>
      <point x="69" y="389"/>
      <point x="19" y="389" type="curve"/>
    </contour>
  </outline>
</glyph>
<glyph name="braceright" format="1">
  <advance width="331"/>
  <unicode hex="007D"/>
  <outline>
    <contour>
      <point x="312" y="389" type="line"/>
      <point x="262" y="389"/>
      <point x="236" y="427"/>
      <point x="236" y="494" type="curve" smooth="yes"/>
      <point x="236" y="759" type="line" smooth="yes"/>
      <point x="236" y="842"/>
      <point x="211" y="868"/>
      <point x="130" y="868" type="curve" smooth="yes"/>
      <point x="104" y="868"/>
      <point x="37" y="865"/>
      <point x="27" y="863" type="curve"/>
      <point x="27" y="808" type="line"/>
      <point x="112" y="808" type="line" smooth="yes"/>
      <point x="154" y="808"/>
      <point x="167" y="795"/>
      <point x="167" y="755" type="curve" smooth="yes"/>
      <point x="167" y="479" type="line" smooth="yes"/>
      <point x="167" y="419"/>
      <point x="192" y="373"/>
      <point x="230" y="358" type="curve"/>
      <point x="192" y="344"/>
      <point x="167" y="297"/>
      <point x="167" y="239" type="curve" smooth="yes"/>
      <point x="167" y="-38" type="line" smooth="yes"/>
      <point x="167" y="-79"/>
      <point x="154" y="-92"/>
      <point x="112" y="-92" type="curve" smooth="yes"/>
      <point x="27" y="-92" type="line"/>
      <point x="27" y="-147" type="line"/>
      <point x="37" y="-149"/>
      <point x="104" y="-152"/>
      <point x="130" y="-152" type="curve" smooth="yes"/>
      <point x="211" y="-152"/>
      <point x="236" y="-126"/>
      <point x="236" y="-42" type="curve" smooth="yes"/>
      <point x="236" y="224" type="line" smooth="yes"/>
      <point x="236" y="290"/>
      <point x="262" y="328"/>
      <point x="312" y="328" type="curve"/>
    </contour>
  </outline>
</glyph>
<glyph name="asciitilde" format="1">
  <advance width="518"/>
  <unicode hex="007E"/>
  <outline>
    <contour>
      <point x="101" y="247" type="line"/>
      <point x="137" y="298"/>
      <point x="162" y="318"/>
      <point x="191" y="318" type="curve" smooth="yes"/>
      <point x="236" y="318"/>
      <point x="270" y="243"/>
      <point x="338" y="243" type="curve" smooth="yes"/>
      <point x="394" y="243"/>
      <point x="444" y="297"/>
      <point x="468" y="349" type="curve" smooth="yes"/>
      <point x="413" y="378" type="line"/>
      <point x="396" y="337"/>
      <point x="363" y="309"/>
      <point x="333" y="309" type="curve" smooth="yes"/>
      <point x="280" y="309"/>
      <point x="249" y="383"/>
      <point x="185" y="383" type="curve" smooth="yes"/>
      <point x="140" y="383"/>
      <point x="109" y="361"/>
      <point x="50" y="282" type="curve"/>
    </contour>
  </outline>
</glyph>
<glyph name="cent" format="1">
  <advance width="401"/>
  <unicode hex="00A2"/>
  <outline>
    <contour>
      <point x="218" y="-119" type="line"/>
      <point x="276" y="-119" type="line"/>
      <point x="276" y="29" type="line"/>
      <point x="218" y="28" type="line"/>
    </contour>
    <contour>
      <point x="218" y="524" type="line"/>
      <point x="276" y="523" type="line"/>
      <point x="276" y="661" type="line"/>
      <point x="218" y="661" type="line"/>
    </contour>
    <component base="c"/>
  </outline>
</glyph>
<glyph name="brokenbar" format="1">
  <advance width="210"/>
  <unicode hex="00A6"/>
  <outline>
    <contour>
      <point x="66" y="-220" type="line"/>
      <point x="143" y="-220" type="line"/>
      <point x="143" y="204" type="line"/>
      <point x="66" y="204" type="line"/>
    </contour>
    <contour>
      <point x="66" y="384" type="line"/>
      <point x="143" y="384" type="line"/>
      <point x="143" y="808" type="line"/>
      <point x="66" y="808" type="line"/>
    </contour>
  </outline>
</glyph>
<glyph name="section" format="1">
  <advance width="401"/>
  <unicode hex="00A7"/>
  <outline>
    <contour>
      <point x="187" y="-11" type="curve" smooth="yes"/>
      <point x="289" y="-11"/>
      <point x="355" y="52"/>
      <point x="355" y="148" type="curve" smooth="yes"/>
      <point x="355" y="193"/>
      <point x="345" y="225"/>
      <point x="325" y="249" type="curve"/>
      <point x="344" y="276"/>
      <point x="355" y="309"/>
      <point x="355" y="348" type="curve" smooth="yes"/>
      <point x="355" y="453"/>
      <point x="299" y="484"/>
      <point x="217" y="508" type="curve" smooth="yes"/>
      <point x="170" y="521"/>
      <point x="129" y="536"/>
      <point x="129" y="600" type="curve" smooth="yes"/>
      <point x="129" y="653"/>
      <point x="166" y="686"/>
      <point x="228" y="686" type="curve" smooth="yes"/>
      <point x="256" y="686"/>
      <point x="281" y="683"/>
      <point x="335" y="670" type="curve"/>
      <point x="335" y="735" type="line"/>
      <point x="283" y="747"/>
      <point x="249" y="752"/>
      <point x="214" y="752" type="curve" smooth="yes"/>
      <point x="114" y="752"/>
      <point x="52" y="693"/>
      <point x="52" y="598" type="curve" smooth="yes"/>
      <point x="52" y="549"/>
      <point x="64" y="517"/>
      <point x="82" y="495" type="curve"/>
      <point x="63" y="470"/>
      <point x="52" y="437"/>
      <point x="52" y="397" type="curve" smooth="yes"/>
      <point x="52" y="269"/>
      <point x="132" y="254"/>
      <point x="194" y="239" type="curve" smooth="yes"/>
      <point x="252" y="224"/>
      <point x="277" y="195"/>
      <point x="277" y="144" type="curve" smooth="yes"/>
      <point x="277" y="88"/>
      <point x="242" y="54"/>
      <point x="183" y="54" type="curve" smooth="yes"/>
      <point x="141" y="54"/>
      <point x="90" y="62"/>
      <point x="48" y="76" type="curve"/>
      <point x="48" y="11" type="line"/>
      <point x="107" y="-4"/>
      <point x="148" y="-11"/>
    </contour>
    <contour>
      <point x="264" y="282" type="curve"/>
      <point x="247" y="290"/>
      <point x="228" y="299"/>
      <point x="206" y="306" type="curve" smooth="yes"/>
      <point x="164" y="321"/>
      <point x="126" y="335"/>
      <point x="126" y="400" type="curve" smooth="yes"/>
      <point x="126" y="424"/>
      <point x="134" y="444"/>
      <point x="150" y="460" type="curve"/>
      <point x="169" y="450"/>
      <point x="189" y="445"/>
      <point x="208" y="439" type="curve" smooth="yes"/>
      <point x="259" y="423"/>
      <point x="280" y="394"/>
      <point x="280" y="344" type="curve" smooth="yes"/>
      <point x="280" y="319"/>
      <point x="274" y="298"/>
    </contour>
  </outline>
</glyph>
<glyph name="dieresis" format="1">
  <advance width="399"/>
  <unicode hex="00A8"/>
  <outline>
    <contour>
      <point x="192" y="600" type="move" name="_top"/>
    </contour>
    <contour>
      <point x="99" y="628" type="curve" smooth="yes"/>
      <point x="129" y="628"/>
      <point x="146" y="642"/>
      <point x="146" y="674" type="curve" smooth="yes"/>
      <point x="146" y="705"/>
      <point x="129" y="719"/>
      <point x="99" y="719" type="curve" smooth="yes"/>
      <point x="69" y="719"/>
      <point x="52" y="705"/>
      <point x="52" y="674" type="curve" smooth="yes"/>
      <point x="52" y="642"/>
      <point x="69" y="628"/>
    </contour>
    <contour>
      <point x="286" y="628" type="curve" smooth="yes"/>
      <point x="315" y="628"/>
      <point x="332" y="642"/>
      <point x="332" y="674" type="curve" smooth="yes"/>
      <point x="332" y="705"/>
      <point x="315" y="719"/>
      <point x="286" y="719" type="curve" smooth="yes"/>
      <point x="255" y="719"/>
      <point x="239" y="705"/>
      <point x="239" y="674" type="curve" smooth="yes"/>
      <point x="239" y="642"/>
      <point x="255" y="628"/>
    </contour>
  </outline>
</glyph>
<glyph name="copyright" format="1">
  <advance width="823"/>
  <unicode hex="00A9"/>
  <outline>
    <contour>
      <point x="427" y="163" type="curve" smooth="yes"/>
      <point x="458" y="163"/>
      <point x="489" y="167"/>
      <point x="515" y="174" type="curve"/>
      <point x="515" y="228" type="line"/>
      <point x="485" y="223"/>
      <point x="456" y="219"/>
      <point x="432" y="219" type="curve" smooth="yes"/>
      <point x="353" y="219"/>
      <point x="305" y="265"/>
      <point x="305" y="367" type="curve" smooth="yes"/>
      <point x="305" y="468"/>
      <point x="351" y="517"/>
      <point x="433" y="517" type="curve" smooth="yes"/>
      <point x="458" y="517"/>
      <point x="486" y="513"/>
      <point x="513" y="508" type="curve"/>
      <point x="513" y="563" type="line"/>
      <point x="487" y="569"/>
      <point x="457" y="573"/>
      <point x="427" y="573" type="curve" smooth="yes"/>
      <point x="313" y="573"/>
      <point x="242" y="504"/>
      <point x="242" y="366" type="curve" smooth="yes"/>
      <point x="242" y="231"/>
      <point x="313" y="163"/>
    </contour>
    <contour>
      <point x="412" y="-11" type="curve" smooth="yes"/>
      <point x="635" y="-11"/>
      <point x="783" y="142"/>
      <point x="783" y="370" type="curve" smooth="yes"/>
      <point x="783" y="598"/>
      <point x="635" y="751"/>
      <point x="412" y="751" type="curve" smooth="yes"/>
      <point x="188" y="751"/>
      <point x="40" y="598"/>
      <point x="40" y="370" type="curve" smooth="yes"/>
      <point x="40" y="142"/>
      <point x="188" y="-11"/>
    </contour>
    <contour>
      <point x="412" y="43" type="curve" smooth="yes"/>
      <point x="219" y="43"/>
      <point x="96" y="173"/>
      <point x="96" y="370" type="curve" smooth="yes"/>
      <point x="96" y="567"/>
      <point x="219" y="698"/>
      <point x="412" y="698" type="curve" smooth="yes"/>
      <point x="604" y="698"/>
      <point x="728" y="567"/>
      <point x="728" y="370" type="curve" smooth="yes"/>
      <point x="728" y="173"/>
      <point x="604" y="43"/>
    </contour>
  </outline>
</glyph>
<glyph name="ordfeminine" format="1">
  <advance width="373"/>
  <unicode hex="00AA"/>
  <outline>
    <contour>
      <point x="135" y="348" type="curve" smooth="yes"/>
      <point x="171" y="348"/>
      <point x="208" y="365"/>
      <point x="253" y="399" type="curve"/>
      <point x="257" y="399" type="line"/>
      <point x="261" y="352" type="line"/>
      <point x="318" y="352" type="line"/>
      <point x="318" y="622" type="line" smooth="yes"/>
      <point x="318" y="708"/>
      <point x="278" y="746"/>
      <point x="183" y="746" type="curve" smooth="yes"/>
      <point x="154" y="746"/>
      <point x="115" y="742"/>
      <point x="66" y="734" type="curve"/>
      <point x="72" y="680" type="line"/>
      <point x="117" y="688"/>
      <point x="148" y="690"/>
      <point x="170" y="690" type="curve" smooth="yes"/>
      <point x="233" y="690"/>
      <point x="250" y="671"/>
      <point x="250" y="609" type="curve" smooth="yes"/>
      <point x="250" y="438" type="line"/>
      <point x="207" y="411"/>
      <point x="181" y="400"/>
      <point x="157" y="400" type="curve" smooth="yes"/>
      <point x="121" y="400"/>
      <point x="103" y="420"/>
      <point x="103" y="459" type="curve" smooth="yes"/>
      <point x="103" y="505"/>
      <point x="128" y="522"/>
      <point x="206" y="529" type="curve" smooth="yes"/>
      <point x="272" y="534" type="line"/>
      <point x="268" y="580" type="line"/>
      <point x="168" y="571" type="line" smooth="yes"/>
      <point x="82" y="563"/>
      <point x="37" y="520"/>
      <point x="37" y="453" type="curve" smooth="yes"/>
      <point x="37" y="390"/>
      <point x="76" y="348"/>
    </contour>
  </outline>
</glyph>
<glyph name="uni00AD" format="1">
  <advance width="337"/>
  <unicode hex="00AD"/>
  <outline>
    <contour>
      <point x="54" y="247" type="line"/>
      <point x="283" y="247" type="line"/>
      <point x="283" y="313" type="line"/>
      <point x="54" y="313" type="line"/>
    </contour>
  </outline>
</glyph>
<glyph name="macron" format="1">
  <advance width="363"/>
  <unicode hex="00AF"/>
  <outline>
    <contour>
      <point x="180" y="600" type="move" name="_top"/>
    </contour>
    <contour>
      <point x="49" y="642" type="line"/>
      <point x="312" y="642" type="line"/>
      <point x="312" y="700" type="line"/>
      <point x="49" y="700" type="line"/>
    </contour>
  </outline>
</glyph>
<glyph name="degree" format="1">
  <advance width="385"/>
  <unicode hex="00B0"/>
  <outline>
    <contour>
      <point x="193" y="371" type="curve" smooth="yes"/>
      <point x="285" y="371"/>
      <point x="348" y="450"/>
      <point x="348" y="560" type="curve" smooth="yes"/>
      <point x="348" y="670"/>
      <point x="285" y="750"/>
      <point x="193" y="750" type="curve" smooth="yes"/>
      <point x="100" y="750"/>
      <point x="37" y="670"/>
      <point x="37" y="560" type="curve" smooth="yes"/>
      <point x="37" y="450"/>
      <point x="100" y="371"/>
    </contour>
    <contour>
      <point x="193" y="424" type="curve" smooth="yes"/>
      <point x="124" y="424"/>
      <point x="88" y="479"/>
      <point x="88" y="560" type="curve" smooth="yes"/>
      <point x="88" y="641"/>
      <point x="124" y="697"/>
      <point x="193" y="697" type="curve" smooth="yes"/>
      <point x="261" y="697"/>
      <point x="296" y="641"/>
      <point x="296" y="560" type="curve" smooth="yes"/>
      <point x="296" y="479"/>
      <point x="261" y="424"/>
    </contour>
  </outline>
</glyph>
<glyph name="plusminus" format="1">
  <advance width="507"/>
  <unicode hex="00B1"/>
  <outline>
    <contour>
      <point x="58" y="396" type="line"/>
      <point x="449" y="396" type="line"/>
      <point x="449" y="460" type="line"/>
      <point x="58" y="460" type="line"/>
    </contour>
    <contour>
      <point x="58" y="89" type="line"/>
      <point x="449" y="89" type="line"/>
      <point x="449" y="153" type="line"/>
      <point x="58" y="153" type="line"/>
    </contour>
    <contour>
      <point x="221" y="230" type="line"/>
      <point x="285" y="230" type="line"/>
      <point x="285" y="629" type="line"/>
      <point x="221" y="629" type="line"/>
    </contour>
  </outline>
</glyph>
<glyph name="twosuperior" format="1">
  <advance width="346"/>
  <unicode hex="00B2"/>
  <outline>
    <contour>
      <point x="32" y="300" type="line"/>
      <point x="309" y="300" type="line"/>
      <point x="309" y="363" type="line"/>
      <point x="107" y="363" type="line"/>
      <point x="107" y="389" type="line" smooth="yes"/>
      <point x="107" y="446"/>
      <point x="138" y="491"/>
      <point x="209" y="547" type="curve" smooth="yes"/>
      <point x="279" y="601"/>
      <point x="310" y="648"/>
      <point x="310" y="717" type="curve" smooth="yes"/>
      <point x="310" y="807"/>
      <point x="260" y="853"/>
      <point x="165" y="853" type="curve" smooth="yes"/>
      <point x="131" y="853"/>
      <point x="90" y="847"/>
      <point x="44" y="832" type="curve"/>
      <point x="54" y="771" type="line"/>
      <point x="94" y="783"/>
      <point x="125" y="789"/>
      <point x="151" y="789" type="curve" smooth="yes"/>
      <point x="207" y="789"/>
      <point x="237" y="762"/>
      <point x="237" y="711" type="curve" smooth="yes"/>
      <point x="237" y="667"/>
      <point x="214" y="632"/>
      <point x="154" y="587" type="curve" smooth="yes"/>
      <point x="67" y="523"/>
      <point x="32" y="464"/>
      <point x="32" y="379" type="curve" smooth="yes"/>
    </contour>
  </outline>
</glyph>
<glyph name="threesuperior" format="1">
  <advance width="328"/>
  <unicode hex="00B3"/>
  <outline>
    <contour>
      <point x="124" y="294" type="curve" smooth="yes"/>
      <point x="230" y="294"/>
      <point x="293" y="350"/>
      <point x="293" y="443" type="curve" smooth="yes"/>
      <point x="293" y="516"/>
      <point x="258" y="564"/>
      <point x="190" y="584" type="curve"/>
      <point x="246" y="603"/>
      <point x="279" y="650"/>
      <point x="279" y="714" type="curve" smooth="yes"/>
      <point x="279" y="804"/>
      <point x="226" y="854"/>
      <point x="126" y="854" type="curve" smooth="yes"/>
      <point x="97" y="854"/>
      <point x="67" y="849"/>
      <point x="34" y="841" type="curve"/>
      <point x="40" y="780" type="line"/>
      <point x="51" y="780" type="line"/>
      <point x="78" y="787"/>
      <point x="101" y="790"/>
      <point x="120" y="790" type="curve" smooth="yes"/>
      <point x="177" y="790"/>
      <point x="207" y="759"/>
      <point x="207" y="703" type="curve" smooth="yes"/>
      <point x="207" y="645"/>
      <point x="168" y="611"/>
      <point x="100" y="611" type="curve" smooth="yes"/>
      <point x="80" y="611" type="line"/>
      <point x="80" y="551" type="line"/>
      <point x="99" y="551" type="line" smooth="yes"/>
      <point x="182" y="551"/>
      <point x="221" y="517"/>
      <point x="221" y="448" type="curve" smooth="yes"/>
      <point x="221" y="391"/>
      <point x="185" y="358"/>
      <point x="117" y="358" type="curve" smooth="yes"/>
      <point x="93" y="358"/>
      <point x="68" y="362"/>
      <point x="48" y="367" type="curve"/>
      <point x="38" y="367" type="line"/>
      <point x="38" y="305" type="line"/>
      <point x="67" y="298"/>
      <point x="96" y="294"/>
    </contour>
  </outline>
</glyph>
<glyph name="cedilla" format="1">
  <advance width="259"/>
  <unicode hex="00B8"/>
  <outline>
    <contour>
      <point x="126" y="0" type="move" name="_bottom"/>
    </contour>
    <contour>
      <point x="94" y="-220" type="curve" smooth="yes"/>
      <point x="163" y="-220"/>
      <point x="202" y="-181"/>
      <point x="202" y="-113" type="curve" smooth="yes"/>
      <point x="202" y="-72"/>
      <point x="188" y="-30"/>
      <point x="158" y="17" type="curve"/>
      <point x="98" y="17" type="line"/>
      <point x="126" y="-26"/>
      <point x="142" y="-70"/>
      <point x="142" y="-104" type="curve" smooth="yes"/>
      <point x="142" y="-142"/>
      <point x="121" y="-162"/>
      <point x="83" y="-162" type="curve" smooth="yes"/>
      <point x="66" y="-162"/>
      <point x="43" y="-158"/>
      <point x="25" y="-152" type="curve"/>
      <point x="25" y="-209" type="line"/>
      <point x="48" y="-216"/>
      <point x="72" y="-220"/>
    </contour>
  </outline>
</glyph>
<glyph name="ordmasculine" format="1">
  <advance width="398"/>
  <unicode hex="00BA"/>
  <outline>
    <contour>
      <point x="200" y="399" type="curve" smooth="yes"/>
      <point x="141" y="399"/>
      <point x="106" y="433"/>
      <point x="106" y="546" type="curve" smooth="yes"/>
      <point x="106" y="659"/>
      <point x="141" y="694"/>
      <point x="200" y="694" type="curve" smooth="yes"/>
      <point x="256" y="694"/>
      <point x="293" y="659"/>
      <point x="293" y="546" type="curve" smooth="yes"/>
      <point x="293" y="433"/>
      <point x="256" y="399"/>
    </contour>
    <contour>
      <point x="200" y="345" type="curve" smooth="yes"/>
      <point x="300" y="345"/>
      <point x="359" y="411"/>
      <point x="359" y="546" type="curve" smooth="yes"/>
      <point x="359" y="681"/>
      <point x="300" y="747"/>
      <point x="200" y="747" type="curve" smooth="yes"/>
      <point x="99" y="747"/>
      <point x="39" y="681"/>
      <point x="39" y="546" type="curve" smooth="yes"/>
      <point x="39" y="411"/>
      <point x="99" y="345"/>
    </contour>
  </outline>
</glyph>
<glyph name="AE" format="1">
  <advance width="761"/>
  <unicode hex="00C6"/>
  <outline>
    <contour>
      <point x="454" y="774" type="move" name="topUC"/>
    </contour>
    <contour>
      <point x="381" y="0" type="line"/>
      <point x="723" y="0" type="line"/>
      <point x="723" y="72" type="line"/>
      <point x="461" y="72" type="line"/>
      <point x="431" y="668" type="line"/>
      <point x="714" y="668" type="line"/>
      <point x="714" y="740" type="line"/>
      <point x="351" y="740" type="line"/>
    </contour>
    <contour>
      <point x="4" y="0" type="line"/>
      <point x="87" y="0" type="line"/>
      <point x="304" y="671" type="line"/>
      <point x="361" y="671" type="line"/>
      <point x="400" y="740" type="line"/>
      <point x="241" y="740" type="line"/>
      <point x="4" y="6" type="line"/>
    </contour>
    <contour>
      <point x="122" y="221" type="line"/>
      <point x="418" y="221" type="line"/>
      <point x="418" y="294" type="line"/>
      <point x="122" y="294" type="line"/>
    </contour>
    <contour>
      <point x="421" y="338" type="line"/>
      <point x="689" y="338" type="line"/>
      <point x="689" y="410" type="line"/>
      <point x="421" y="410" type="line"/>
    </contour>
  </outline>
</glyph>
<glyph name="ae" format="1">
  <advance width="726"/>
  <unicode hex="00E6"/>
  <outline>
    <contour>
      <point x="370" y="600" type="move" name="top"/>
    </contour>
    <contour>
      <point x="525" y="-9" type="curve" smooth="yes"/>
      <point x="574" y="-9"/>
      <point x="629" y="3"/>
      <point x="670" y="22" type="curve"/>
      <point x="665" y="88" type="line"/>
      <point x="612" y="66"/>
      <point x="568" y="57"/>
      <point x="529" y="57" type="curve" smooth="yes"/>
      <point x="441" y="57"/>
      <point x="396" y="120"/>
      <point x="393" y="241" type="curve"/>
      <point x="686" y="241" type="line"/>
      <point x="689" y="263"/>
      <point x="690" y="280"/>
      <point x="690" y="314" type="curve" smooth="yes"/>
      <point x="690" y="469"/>
      <point x="633" y="549"/>
      <point x="521" y="549" type="curve" smooth="yes"/>
      <point x="448" y="549"/>
      <point x="395" y="517"/>
      <point x="363" y="455" type="curve"/>
      <point x="357" y="455" type="line"/>
      <point x="339" y="517"/>
      <point x="294" y="548"/>
      <point x="217" y="548" type="curve" smooth="yes"/>
      <point x="177" y="548"/>
      <point x="122" y="541"/>
      <point x="67" y="531" type="curve"/>
      <point x="74" y="466" type="line"/>
      <point x="111" y="476"/>
      <point x="170" y="483"/>
      <point x="204" y="483" type="curve" smooth="yes"/>
      <point x="280" y="483"/>
      <point x="311" y="451"/>
      <point x="312" y="371" type="curve" smooth="yes"/>
      <point x="312" y="309" type="line"/>
      <point x="216" y="302" type="line" smooth="yes"/>
      <point x="90" y="292"/>
      <point x="28" y="239"/>
      <point x="28" y="138" type="curve" smooth="yes"/>
      <point x="28" y="50"/>
      <point x="78" y="-5"/>
      <point x="158" y="-5" type="curve" smooth="yes"/>
      <point x="214" y="-5"/>
      <point x="261" y="20"/>
      <point x="353" y="84" type="curve"/>
      <point x="359" y="83" type="line"/>
      <point x="393" y="23"/>
      <point x="448" y="-9"/>
    </contour>
    <contour>
      <point x="186" y="60" type="curve" smooth="yes"/>
      <point x="137" y="60"/>
      <point x="110" y="90"/>
      <point x="110" y="145" type="curve" smooth="yes"/>
      <point x="110" y="208"/>
      <point x="145" y="239"/>
      <point x="233" y="246" type="curve" smooth="yes"/>
      <point x="312" y="253" type="line"/>
      <point x="312" y="212"/>
      <point x="317" y="157"/>
      <point x="326" y="130" type="curve"/>
      <point x="263" y="88"/>
      <point x="224" y="60"/>
    </contour>
    <contour>
      <point x="393" y="299" type="line"/>
      <point x="398" y="419"/>
      <point x="443" y="484"/>
      <point x="519" y="484" type="curve" smooth="yes"/>
      <point x="584" y="484"/>
      <point x="611" y="430"/>
      <point x="615" y="299" type="curve"/>
    </contour>
  </outline>
</glyph>
<glyph name="idieresis" format="1">
  <advance width="206"/>
  <unicode hex="00EF"/>
  <outline>
    <contour>
      <point x="12" y="628" type="curve" smooth="yes"/>
      <point x="42" y="628"/>
      <point x="59" y="642"/>
      <point x="59" y="674" type="curve" smooth="yes"/>
      <point x="59" y="705"/>
      <point x="42" y="719"/>
      <point x="12" y="719" type="curve" smooth="yes"/>
      <point x="-19" y="719"/>
      <point x="-35" y="705"/>
      <point x="-35" y="674" type="curve" smooth="yes"/>
      <point x="-35" y="642"/>
      <point x="-19" y="628"/>
    </contour>
    <contour>
      <point x="199" y="628" type="curve" smooth="yes"/>
      <point x="228" y="628"/>
      <point x="245" y="642"/>
      <point x="245" y="674" type="curve" smooth="yes"/>
      <point x="245" y="705"/>
      <point x="228" y="719"/>
      <point x="199" y="719" type="curve" smooth="yes"/>
      <point x="168" y="719"/>
      <point x="152" y="705"/>
      <point x="152" y="674" type="curve" smooth="yes"/>
      <point x="152" y="642"/>
      <point x="168" y="628"/>
    </contour>
    <component base="dotlessi" xOffset="1"/>
  </outline>
</glyph>
<glyph name="divide" format="1">
  <advance width="498"/>
  <unicode hex="00F7"/>
  <outline>
    <contour>
      <point x="252" y="160" type="curve" smooth="yes"/>
      <point x="280" y="160"/>
      <point x="299" y="176"/>
      <point x="299" y="207" type="curve" smooth="yes"/>
      <point x="299" y="237"/>
      <point x="280" y="254"/>
      <point x="252" y="254" type="curve" smooth="yes"/>
      <point x="224" y="254"/>
      <point x="205" y="238"/>
      <point x="205" y="207" type="curve" smooth="yes"/>
      <point x="205" y="176"/>
      <point x="224" y="160"/>
    </contour>
    <contour>
      <point x="51" y="338" type="line"/>
      <point x="448" y="338" type="line"/>
      <point x="448" y="402" type="line"/>
      <point x="51" y="402" type="line"/>
    </contour>
    <contour>
      <point x="252" y="480" type="curve" smooth="yes"/>
      <point x="280" y="480"/>
      <point x="299" y="497"/>
      <point x="299" y="527" type="curve" smooth="yes"/>
      <point x="299" y="557"/>
      <point x="280" y="575"/>
      <point x="252" y="575" type="curve" smooth="yes"/>
      <point x="224" y="575"/>
      <point x="205" y="558"/>
      <point x="205" y="527" type="curve" smooth="yes"/>
      <point x="205" y="497"/>
      <point x="224" y="480"/>
    </contour>
  </outline>
</glyph>
<glyph name="oslash" format="1">
  <advance width="496"/>
  <unicode hex="00F8"/>
  <outline>
    <contour>
      <point x="248" y="600" type="move" name="top"/>
    </contour>
    <contour>
      <point x="248" y="-9" type="curve" smooth="yes"/>
      <point x="384" y="-9"/>
      <point x="456" y="87"/>
      <point x="456" y="270" type="curve" smooth="yes"/>
      <point x="456" y="453"/>
      <point x="384" y="550"/>
      <point x="248" y="550" type="curve" smooth="yes"/>
      <point x="112" y="550"/>
      <point x="40" y="453"/>
      <point x="40" y="270" type="curve" smooth="yes"/>
      <point x="40" y="88"/>
      <point x="112" y="-9"/>
    </contour>
    <contour>
      <point x="248" y="58" type="curve" smooth="yes"/>
      <point x="160" y="58"/>
      <point x="122" y="121"/>
      <point x="122" y="270" type="curve" smooth="yes"/>
      <point x="122" y="420"/>
      <point x="160" y="483"/>
      <point x="248" y="483" type="curve" smooth="yes"/>
      <point x="335" y="483"/>
      <point x="374" y="420"/>
      <point x="374" y="270" type="curve" smooth="yes"/>
      <point x="374" y="120"/>
      <point x="336" y="58"/>
    </contour>
    <contour>
      <point x="22" y="0" type="line"/>
      <point x="83" y="0" type="line"/>
      <point x="471" y="540" type="line"/>
      <point x="411" y="540" type="line"/>
    </contour>
  </outline>
</glyph>
<glyph name="thorn" format="1">
  <advance width="489"/>
  <unicode hex="00FE"/>
  <outline>
    <contour>
      <point x="61" y="-220" type="line"/>
      <point x="142" y="-220" type="line"/>
      <point x="142" y="-1" type="line"/>
      <point x="169" y="-7"/>
      <point x="195" y="-10"/>
      <point x="218" y="-10" type="curve" smooth="yes"/>
      <point x="369" y="-10"/>
      <point x="451" y="93"/>
      <point x="451" y="283" type="curve" smooth="yes"/>
      <point x="451" y="458"/>
      <point x="393" y="549"/>
      <point x="279" y="549" type="curve" smooth="yes"/>
      <point x="222" y="549"/>
      <point x="167" y="524"/>
      <point x="132" y="476" type="curve"/>
      <point x="142" y="471" type="line"/>
      <point x="142" y="808" type="line"/>
      <point x="61" y="808" type="line"/>
    </contour>
    <contour>
      <point x="220" y="51" type="curve" smooth="yes"/>
      <point x="197" y="51"/>
      <point x="171" y="55"/>
      <point x="142" y="62" type="curve"/>
      <point x="142" y="366" type="line" smooth="yes"/>
      <point x="142" y="443"/>
      <point x="196" y="486"/>
      <point x="255" y="486" type="curve" smooth="yes"/>
      <point x="332" y="486"/>
      <point x="368" y="421"/>
      <point x="368" y="275" type="curve" smooth="yes"/>
      <point x="368" y="121"/>
      <point x="320" y="51"/>
    </contour>
  </outline>
</glyph>
<glyph name="dcroat" format="1">
  <advance width="490"/>
  <unicode hex="0111"/>
  <outline>
    <contour>
      <point x="200" y="647" type="line"/>
      <point x="495" y="647" type="line"/>
      <point x="495" y="698" type="line"/>
      <point x="200" y="698" type="line"/>
    </contour>
    <component base="d"/>
  </outline>
</glyph>
<glyph name="gcommaaccent" format="1">
  <advance width="489"/>
  <unicode hex="0123"/>
  <outline>
    <contour>
      <point x="318" y="804" type="line"/>
      <point x="253" y="654" type="line"/>
      <point x="332" y="654" type="line"/>
      <point x="380" y="804" type="line"/>
    </contour>
    <component base="g"/>
  </outline>
</glyph>
<glyph name="itilde" format="1">
  <advance width="206"/>
  <unicode hex="0129"/>
  <outline>
    <contour>
      <point x="-26" y="631" type="line"/>
      <point x="-9" y="654"/>
      <point x="14" y="670"/>
      <point x="36" y="670" type="curve" smooth="yes"/>
      <point x="82" y="670"/>
      <point x="116" y="623"/>
      <point x="166" y="623" type="curve" smooth="yes"/>
      <point x="204" y="623"/>
      <point x="245" y="649"/>
      <point x="266" y="696" type="curve"/>
      <point x="237" y="722" type="line"/>
      <point x="221" y="696"/>
      <point x="202" y="681"/>
      <point x="180" y="681" type="curve" smooth="yes"/>
      <point x="134" y="681"/>
      <point x="101" y="729"/>
      <point x="50" y="729" type="curve" smooth="yes"/>
      <point x="13" y="729"/>
      <point x="-28" y="700"/>
      <point x="-53" y="659" type="curve"/>
    </contour>
    <component base="dotlessi" xOffset="1"/>
  </outline>
</glyph>
<glyph name="ibreve" format="1">
  <advance width="206"/>
  <unicode hex="012D"/>
  <outline>
    <contour>
      <point x="105" y="618" type="curve" smooth="yes"/>
      <point x="199" y="618"/>
      <point x="253" y="670"/>
      <point x="256" y="761" type="curve"/>
      <point x="194" y="761" type="line"/>
      <point x="194" y="704"/>
      <point x="161" y="671"/>
      <point x="105" y="671" type="curve" smooth="yes"/>
      <point x="49" y="671"/>
      <point x="16" y="704"/>
      <point x="16" y="761" type="curve"/>
      <point x="-46" y="761" type="line"/>
      <point x="-44" y="670"/>
      <point x="11" y="618"/>
    </contour>
    <component base="dotlessi" xOffset="1"/>
  </outline>
</glyph>
<glyph name="jcircumflex" format="1">
  <advance width="203"/>
  <unicode hex="0135"/>
  <outline>
    <contour>
      <point x="-35" y="631" type="line"/>
      <point x="101" y="702" type="line"/>
      <point x="237" y="631" type="line"/>
      <point x="237" y="696" type="line"/>
      <point x="101" y="768" type="line"/>
      <point x="-35" y="696" type="line"/>
    </contour>
    <component base="dotlessj"/>
  </outline>
</glyph>
<glyph name="kgreenlandic" format="1">
  <advance width="449"/>
  <unicode hex="0138"/>
  <outline>
    <contour>
      <point x="61" y="0" type="line"/>
      <point x="142" y="0" type="line"/>
      <point x="142" y="246" type="line"/>
      <point x="218" y="246" type="line"/>
      <point x="361" y="0" type="line"/>
      <point x="450" y="0" type="line"/>
      <point x="289" y="266" type="line"/>
      <point x="272" y="276" type="line"/>
      <point x="272" y="278" type="line"/>
      <point x="288" y="287" type="line"/>
      <point x="434" y="540" type="line"/>
      <point x="345" y="540" type="line"/>
      <point x="219" y="309" type="line"/>
      <point x="142" y="309" type="line"/>
      <point x="142" y="540" type="line"/>
      <point x="61" y="540" type="line"/>
    </contour>
  </outline>
</glyph>
<glyph name="Lslash" format="1">
  <advance width="436"/>
  <unicode hex="0141"/>
  <outline>
    <contour>
      <point x="11" y="222" type="line"/>
      <point x="275" y="434" type="line"/>
      <point x="275" y="508" type="line"/>
      <point x="11" y="296" type="line"/>
    </contour>
    <component base="L" xOffset="22"/>
  </outline>
</glyph>
<glyph name="lslash" format="1">
  <advance width="301"/>
  <unicode hex="0142"/>
  <outline>
    <contour>
      <point x="19" y="236" type="line"/>
      <point x="285" y="447" type="line"/>
      <point x="285" y="511" type="line"/>
      <point x="19" y="300" type="line"/>
    </contour>
    <component base="l" xOffset="41"/>
  </outline>
</glyph>
<glyph name="eng" format="1">
  <advance width="484"/>
  <unicode hex="014B"/>
  <outline>
    <contour>
      <point x="347" y="-216" type="line"/>
      <point x="392" y="-144"/>
      <point x="426" y="-9"/>
      <point x="426" y="89" type="curve"/>
      <point x="426" y="408" type="line" smooth="yes"/>
      <point x="426" y="508"/>
      <point x="392" y="550"/>
      <point x="311" y="550" type="curve" smooth="yes"/>
      <point x="259" y="550"/>
      <point x="208" y="529"/>
      <point x="140" y="482" type="curve"/>
      <point x="136" y="482" type="line"/>
      <point x="130" y="540" type="line"/>
      <point x="61" y="540" type="line"/>
      <point x="61" y="0" type="line"/>
      <point x="142" y="0" type="line"/>
      <point x="142" y="424" type="line"/>
      <point x="193" y="459"/>
      <point x="240" y="477"/>
      <point x="281" y="477" type="curve" smooth="yes"/>
      <point x="326" y="477"/>
      <point x="346" y="451"/>
      <point x="346" y="387" type="curve" smooth="yes"/>
      <point x="346" y="91" type="line"/>
      <point x="346" y="4"/>
      <point x="321" y="-116"/>
      <point x="285" y="-200" type="curve"/>
    </contour>
  </outline>
</glyph>
<glyph name="oe" format="1">
  <advance width="786"/>
  <unicode hex="0153"/>
  <outline>
    <contour>
      <point x="586" y="-9" type="curve" smooth="yes"/>
      <point x="635" y="-9"/>
      <point x="690" y="3"/>
      <point x="731" y="22" type="curve"/>
      <point x="726" y="88" type="line"/>
      <point x="674" y="67"/>
      <point x="630" y="57"/>
      <point x="589" y="57" type="curve" smooth="yes"/>
      <point x="503" y="57"/>
      <point x="458" y="119"/>
      <point x="455" y="241" type="curve"/>
      <point x="747" y="241" type="line"/>
      <point x="750" y="263"/>
      <point x="751" y="280"/>
      <point x="751" y="314" type="curve" smooth="yes"/>
      <point x="751" y="469"/>
      <point x="694" y="549"/>
      <point x="582" y="549" type="curve" smooth="yes"/>
      <point x="501" y="549"/>
      <point x="446" y="505"/>
      <point x="417" y="423" type="curve"/>
      <point x="411" y="423" type="line"/>
      <point x="384" y="506"/>
      <point x="329" y="550"/>
      <point x="246" y="550" type="curve" smooth="yes"/>
      <point x="110" y="550"/>
      <point x="38" y="453"/>
      <point x="38" y="270" type="curve" smooth="yes"/>
      <point x="38" y="88"/>
      <point x="110" y="-9"/>
      <point x="246" y="-9" type="curve" smooth="yes"/>
      <point x="328" y="-9"/>
      <point x="382" y="33"/>
      <point x="411" y="114" type="curve"/>
      <point x="416" y="114" type="line"/>
      <point x="445" y="35"/>
      <point x="503" y="-9"/>
    </contour>
    <contour>
      <point x="246" y="58" type="curve" smooth="yes"/>
      <point x="158" y="58"/>
      <point x="120" y="121"/>
      <point x="120" y="270" type="curve" smooth="yes"/>
      <point x="120" y="420"/>
      <point x="158" y="483"/>
      <point x="246" y="483" type="curve" smooth="yes"/>
      <point x="333" y="483"/>
      <point x="372" y="420"/>
      <point x="372" y="270" type="curve" smooth="yes"/>
      <point x="372" y="120"/>
      <point x="334" y="58"/>
    </contour>
    <contour>
      <point x="455" y="299" type="line"/>
      <point x="461" y="420"/>
      <point x="504" y="484"/>
      <point x="580" y="484" type="curve" smooth="yes"/>
      <point x="644" y="484"/>
      <point x="672" y="430"/>
      <point x="676" y="299" type="curve"/>
    </contour>
  </outline>
</glyph>
<glyph name="Schwa" format="1">
  <advance width="571"/>
  <unicode hex="018F"/>
  <outline>
    <contour>
      <point x="446" y="370" type="curve" smooth="yes"/>
      <point x="446" y="166"/>
      <point x="379" y="60"/>
      <point x="261" y="60" type="curve" smooth="yes"/>
      <point x="157" y="60"/>
      <point x="118" y="144"/>
      <point x="118" y="362" type="curve"/>
      <point x="87" y="340" type="line"/>
      <point x="491" y="340" type="line"/>
      <point x="491" y="404" type="line"/>
      <point x="41" y="404" type="line"/>
      <point x="38" y="375"/>
      <point x="37" y="346"/>
      <point x="37" y="308" type="curve" smooth="yes"/>
      <point x="37" y="97"/>
      <point x="113" y="-9"/>
      <point x="258" y="-9" type="curve" smooth="yes"/>
      <point x="435" y="-9"/>
      <point x="530" y="133"/>
      <point x="530" y="387" type="curve" smooth="yes"/>
      <point x="530" y="625"/>
      <point x="428" y="759"/>
      <point x="244" y="759" type="curve" smooth="yes"/>
      <point x="182" y="759"/>
      <point x="118" y="743"/>
      <point x="65" y="719" type="curve"/>
      <point x="66" y="711"/>
      <point x="70" y="658"/>
      <point x="71" y="648" type="curve"/>
      <point x="129" y="673"/>
      <point x="187" y="686"/>
      <point x="238" y="686" type="curve" smooth="yes"/>
      <point x="378" y="686"/>
      <point x="446" y="589"/>
    </contour>
  </outline>
</glyph>
<glyph name="florin" format="1">
  <advance width="314"/>
  <unicode hex="0192"/>
  <outline>
    <contour>
      <point x="103" y="-220" type="line"/>
      <point x="184" y="-187" type="line"/>
      <point x="184" y="471" type="line"/>
      <point x="285" y="471" type="line"/>
      <point x="285" y="540" type="line"/>
      <point x="184" y="540" type="line"/>
      <point x="184" y="583" type="line" smooth="yes"/>
      <point x="184" y="704"/>
      <point x="208" y="736"/>
      <point x="308" y="746" type="curve"/>
      <point x="304" y="811" type="line"/>
      <point x="150" y="799"/>
      <point x="103" y="746"/>
      <point x="103" y="578" type="curve" smooth="yes"/>
      <point x="103" y="540" type="line"/>
      <point x="28" y="540" type="line"/>
      <point x="28" y="471" type="line"/>
      <point x="103" y="471" type="line"/>
    </contour>
  </outline>
</glyph>
<glyph name="Aringacute" format="1">
  <advance width="557"/>
  <unicode hex="01FA"/>
  <outline>
    <contour>
      <point x="6" y="0" type="line"/>
      <point x="84" y="0" type="line"/>
      <point x="150" y="221" type="line"/>
      <point x="407" y="221" type="line"/>
      <point x="473" y="0" type="line"/>
      <point x="551" y="0" type="line"/>
      <point x="551" y="6" type="line"/>
      <point x="361" y="650" type="line"/>
      <point x="381" y="669"/>
      <point x="392" y="698"/>
      <point x="392" y="731" type="curve" smooth="yes"/>
      <point x="392" y="780"/>
      <point x="368" y="821"/>
      <point x="325" y="837" type="curve"/>
      <point x="397" y="946" type="line"/>
      <point x="312" y="946" type="line"/>
      <point x="254" y="845" type="line"/>
      <point x="196" y="837"/>
      <point x="164" y="789"/>
      <point x="164" y="731" type="curve" smooth="yes"/>
      <point x="164" y="697"/>
      <point x="174" y="667"/>
      <point x="196" y="647" type="curve"/>
      <point x="6" y="6" type="line"/>
    </contour>
    <contour>
      <point x="277" y="665" type="curve" smooth="yes"/>
      <point x="240" y="665"/>
      <point x="219" y="693"/>
      <point x="219" y="731" type="curve" smooth="yes"/>
      <point x="219" y="769"/>
      <point x="239" y="797"/>
      <point x="277" y="797" type="curve" smooth="yes"/>
      <point x="315" y="797"/>
      <point x="337" y="769"/>
      <point x="337" y="731" type="curve" smooth="yes"/>
      <point x="337" y="693"/>
      <point x="314" y="665"/>
    </contour>
    <contour>
      <point x="168" y="294" type="line"/>
      <point x="245" y="557" type="line"/>
      <point x="260" y="614" type="line"/>
      <point x="298" y="614" type="line"/>
      <point x="313" y="557" type="line"/>
      <point x="388" y="294" type="line"/>
    </contour>
  </outline>
</glyph>
<glyph name="iinvertedbreve" format="1">
  <advance width="206"/>
  <unicode hex="020B"/>
  <outline>
    <contour>
      <point x="-38" y="622" type="curve"/>
      <point x="24" y="622" type="line"/>
      <point x="24" y="681"/>
      <point x="58" y="712"/>
      <point x="113" y="712" type="curve" smooth="yes"/>
      <point x="168" y="712"/>
      <point x="201" y="680"/>
      <point x="202" y="622" type="curve"/>
      <point x="264" y="622" type="line"/>
      <point x="261" y="713"/>
      <point x="207" y="764"/>
      <point x="113" y="764" type="curve" smooth="yes"/>
      <point x="19" y="764"/>
      <point x="-36" y="713"/>
    </contour>
    <component base="dotlessi" xOffset="1"/>
  </outline>
</glyph>
<glyph name="dotlessj" format="1">
  <advance width="202"/>
  <unicode hex="0237"/>
  <outline>
    <contour>
      <point x="98" y="600" type="move" name="top"/>
    </contour>
    <contour>
      <point x="52" y="-220" type="line"/>
      <point x="109" y="-126"/>
      <point x="139" y="-21"/>
      <point x="142" y="86" type="curve"/>
      <point x="142" y="540" type="line"/>
      <point x="61" y="540" type="line"/>
      <point x="62" y="476"/>
      <point x="63" y="154"/>
      <point x="63" y="134" type="curve" smooth="yes"/>
      <point x="63" y="-11"/>
      <point x="42" y="-98"/>
      <point x="-6" y="-200" type="curve"/>
    </contour>
  </outline>
</glyph>
<glyph name="schwa" format="1">
  <advance width="459"/>
  <unicode hex="0259"/>
  <outline>
    <contour>
      <point x="203" y="549" type="curve" smooth="yes"/>
      <point x="154" y="549"/>
      <point x="97" y="538"/>
      <point x="55" y="518" type="curve"/>
      <point x="60" y="452" type="line"/>
      <point x="109" y="473"/>
      <point x="154" y="482"/>
      <point x="198" y="482" type="curve" smooth="yes"/>
      <point x="297" y="482"/>
      <point x="342" y="415"/>
      <point x="342" y="276" type="curve" smooth="yes"/>
      <point x="342" y="131"/>
      <point x="298" y="56"/>
      <point x="211" y="56" type="curve" smooth="yes"/>
      <point x="138" y="56"/>
      <point x="108" y="115"/>
      <point x="108" y="258" type="curve"/>
      <point x="96" y="241" type="line"/>
      <point x="381" y="241" type="line"/>
      <point x="381" y="300" type="line"/>
      <point x="40" y="300" type="line"/>
      <point x="36" y="276"/>
      <point x="35" y="257"/>
      <point x="35" y="226" type="curve" smooth="yes"/>
      <point x="35" y="70"/>
      <point x="93" y="-9"/>
      <point x="208" y="-9" type="curve" smooth="yes"/>
      <point x="346" y="-9"/>
      <point x="421" y="93"/>
      <point x="421" y="280" type="curve" smooth="yes"/>
      <point x="421" y="452"/>
      <point x="343" y="549"/>
    </contour>
  </outline>
</glyph>
<glyph name="dotaccent" format="1">
  <advance width="224"/>
  <unicode hex="02D9"/>
  <outline>
    <contour>
      <point x="104" y="600" type="move" name="_top"/>
    </contour>
    <contour>
      <point x="104" y="623" type="curve" smooth="yes"/>
      <point x="136" y="623"/>
      <point x="156" y="638"/>
      <point x="156" y="674" type="curve" smooth="yes"/>
      <point x="156" y="709"/>
      <point x="136" y="724"/>
      <point x="104" y="724" type="curve" smooth="yes"/>
      <point x="71" y="724"/>
      <point x="53" y="709"/>
      <point x="53" y="674" type="curve" smooth="yes"/>
      <point x="53" y="639"/>
      <point x="71" y="623"/>
    </contour>
  </outline>
</glyph>
<glyph name="hungarumlaut" format="1">
  <advance width="371"/>
  <unicode hex="02DD"/>
  <outline>
    <contour>
      <point x="148" y="600" type="move" name="_top"/>
    </contour>
    <contour>
      <point x="87" y="610" type="line"/>
      <point x="185" y="801" type="line"/>
      <point x="110" y="801" type="line"/>
      <point x="38" y="620" type="line"/>
    </contour>
    <contour>
      <point x="245" y="610" type="line"/>
      <point x="343" y="801" type="line"/>
      <point x="268" y="801" type="line"/>
      <point x="196" y="620" type="line"/>
    </contour>
  </outline>
</glyph>
<glyph name="uni03A9" format="1">
  <advance width="706"/>
  <unicode hex="03A9"/>
  <outline>
    <contour>
      <point x="37" y="0" type="line"/>
      <point x="312" y="0" type="line"/>
      <point x="312" y="62" type="line"/>
      <point x="259" y="99"/>
      <point x="130" y="178"/>
      <point x="130" y="410" type="curve" smooth="yes"/>
      <point x="130" y="574"/>
      <point x="219" y="683"/>
      <point x="353" y="683" type="curve" smooth="yes"/>
      <point x="488" y="683"/>
      <point x="578" y="574"/>
      <point x="578" y="410" type="curve" smooth="yes"/>
      <point x="578" y="178"/>
      <point x="448" y="99"/>
      <point x="394" y="62" type="curve"/>
      <point x="394" y="0" type="line"/>
      <point x="669" y="0" type="line"/>
      <point x="669" y="72" type="line"/>
      <point x="470" y="67" type="line"/>
      <point x="551" y="117"/>
      <point x="658" y="216"/>
      <point x="658" y="410" type="curve" smooth="yes"/>
      <point x="658" y="615"/>
      <point x="537" y="750"/>
      <point x="353" y="750" type="curve" smooth="yes"/>
      <point x="169" y="750"/>
      <point x="48" y="615"/>
      <point x="48" y="410" type="curve" smooth="yes"/>
      <point x="48" y="216"/>
      <point x="154" y="118"/>
      <point x="236" y="68" type="curve"/>
      <point x="37" y="72" type="line"/>
    </contour>
  </outline>
</glyph>
<glyph name="emdash" format="1">
  <advance width="670"/>
  <unicode hex="2014"/>
  <outline>
    <contour>
      <point x="60" y="247" type="line"/>
      <point x="610" y="247" type="line"/>
      <point x="610" y="313" type="line"/>
      <point x="60" y="313" type="line"/>
    </contour>
  </outline>
</glyph>
<glyph name="quoteleft" format="1">
  <advance width="175"/>
  <unicode hex="2018"/>
  <outline>
    <contour>
      <point x="61" y="521" type="curve"/>
      <point x="126" y="531" type="line"/>
      <point x="112" y="571"/>
      <point x="105" y="609"/>
      <point x="105" y="645" type="curve" smooth="yes"/>
      <point x="105" y="695"/>
      <point x="117" y="754"/>
      <point x="136" y="803" type="curve"/>
      <point x="98" y="811" type="line"/>
      <point x="66" y="763"/>
      <point x="44" y="690"/>
      <point x="44" y="625" type="curve" smooth="yes"/>
      <point x="44" y="584"/>
      <point x="49" y="551"/>
    </contour>
  </outline>
</glyph>
<glyph name="bullet" format="1">
  <advance width="290"/>
  <unicode hex="2022"/>
  <outline>
    <contour>
      <point x="145" y="293" type="curve" smooth="yes"/>
      <point x="187" y="293"/>
      <point x="222" y="313"/>
      <point x="222" y="370" type="curve" smooth="yes"/>
      <point x="222" y="427"/>
      <point x="187" y="447"/>
      <point x="145" y="447" type="curve" smooth="yes"/>
      <point x="102" y="447"/>
      <point x="67" y="427"/>
      <point x="67" y="370" type="curve" smooth="yes"/>
      <point x="67" y="313"/>
      <point x="102" y="293"/>
    </contour>
  </outline>
</glyph>
<glyph name="guilsinglleft" format="1">
  <advance width="247"/>
  <unicode hex="2039"/>
  <outline>
    <contour>
      <point x="128" y="30" type="line"/>
      <point x="211" y="30" type="line"/>
      <point x="117" y="268" type="line"/>
      <point x="117" y="272" type="line"/>
      <point x="211" y="510" type="line"/>
      <point x="128" y="510" type="line"/>
      <point x="34" y="272" type="line"/>
      <point x="34" y="268" type="line"/>
    </contour>
  </outline>
</glyph>
<glyph name="guilsinglright" format="1">
  <advance width="247"/>
  <unicode hex="203A"/>
  <outline>
    <contour>
      <point x="213" y="268" type="line"/>
      <point x="213" y="272" type="line"/>
      <point x="119" y="510" type="line"/>
      <point x="37" y="510" type="line"/>
      <point x="131" y="272" type="line"/>
      <point x="131" y="268" type="line"/>
      <point x="37" y="30" type="line"/>
      <point x="119" y="30" type="line"/>
    </contour>
  </outline>
</glyph>
<glyph name="foursuperior" format="1">
  <advance width="380"/>
  <unicode hex="2074"/>
  <outline>
    <contour>
      <point x="231" y="300" type="line"/>
      <point x="304" y="300" type="line"/>
      <point x="304" y="429" type="line"/>
      <point x="358" y="429" type="line"/>
      <point x="358" y="486" type="line"/>
      <point x="304" y="486" type="line"/>
      <point x="304" y="678" type="line"/>
      <point x="256" y="678" type="line"/>
      <point x="236" y="486" type="line"/>
      <point x="90" y="486" type="line"/>
      <point x="260" y="832" type="line"/>
      <point x="257" y="842" type="line"/>
      <point x="200" y="851" type="line"/>
      <point x="190" y="847" type="line"/>
      <point x="15" y="471" type="line"/>
      <point x="31" y="429" type="line"/>
      <point x="231" y="429" type="line"/>
    </contour>
  </outline>
</glyph>
<glyph name="sevensuperior" format="1">
  <advance width="296"/>
  <unicode hex="2077"/>
  <outline>
    <contour>
      <point x="106" y="290" type="line"/>
      <point x="55" y="301" type="line"/>
      <point x="49" y="319" type="line"/>
      <point x="221" y="818" type="line"/>
      <point x="241" y="778" type="line"/>
      <point x="24" y="778" type="line"/>
      <point x="24" y="833" type="line"/>
      <point x="32" y="840" type="line"/>
      <point x="262" y="840" type="line"/>
      <point x="279" y="813" type="line"/>
      <point x="279" y="780" type="line"/>
      <point x="118" y="300" type="line"/>
    </contour>
  </outline>
</glyph>
<glyph name="ninesuperior" format="1">
  <advance width="389"/>
  <unicode hex="2079"/>
  <outline>
    <contour>
      <point x="143" y="292" type="curve" smooth="yes"/>
      <point x="278" y="292"/>
      <point x="353" y="405"/>
      <point x="353" y="604" type="curve" smooth="yes"/>
      <point x="353" y="768"/>
      <point x="296" y="855"/>
      <point x="187" y="855" type="curve" smooth="yes"/>
      <point x="91" y="855"/>
      <point x="28" y="781"/>
      <point x="28" y="669" type="curve" smooth="yes"/>
      <point x="28" y="571"/>
      <point x="86" y="510"/>
      <point x="177" y="510" type="curve" smooth="yes"/>
      <point x="211" y="510"/>
      <point x="250" y="525"/>
      <point x="283" y="552" type="curve"/>
      <point x="273" y="424"/>
      <point x="223" y="354"/>
      <point x="142" y="354" type="curve" smooth="yes"/>
      <point x="118" y="354"/>
      <point x="94" y="358"/>
      <point x="62" y="368" type="curve"/>
      <point x="57" y="306" type="line"/>
      <point x="91" y="297"/>
      <point x="119" y="292"/>
    </contour>
    <contour>
      <point x="188" y="563" type="curve" smooth="yes"/>
      <point x="129" y="563"/>
      <point x="97" y="601"/>
      <point x="97" y="670" type="curve" smooth="yes"/>
      <point x="97" y="744"/>
      <point x="131" y="791"/>
      <point x="187" y="791" type="curve" smooth="yes"/>
      <point x="252" y="791"/>
      <point x="284" y="733"/>
      <point x="285" y="612" type="curve"/>
      <point x="256" y="582"/>
      <point x="219" y="563"/>
    </contour>
  </outline>
</glyph>
<glyph name="zeroinferior" format="1">
  <advance width="423"/>
  <unicode hex="2080"/>
  <outline>
    <contour>
      <point x="212" y="-107" type="curve"/>
      <point x="327" y="-107"/>
      <point x="387" y="-10"/>
      <point x="387" y="173" type="curve" smooth="yes"/>
      <point x="387" y="356"/>
      <point x="327" y="454"/>
      <point x="212" y="454" type="curve" smooth="yes"/>
      <point x="98" y="454"/>
      <point x="36" y="356"/>
      <point x="36" y="173" type="curve" smooth="yes"/>
      <point x="36" y="-11"/>
      <point x="98" y="-107"/>
    </contour>
    <contour>
      <point x="212" y="-43" type="curve" smooth="yes"/>
      <point x="143" y="-43"/>
      <point x="110" y="27"/>
      <point x="110" y="173" type="curve" smooth="yes"/>
      <point x="110" y="317"/>
      <point x="144" y="390"/>
      <point x="212" y="390" type="curve" smooth="yes"/>
      <point x="280" y="390"/>
      <point x="314" y="317"/>
      <point x="314" y="173" type="curve" smooth="yes"/>
      <point x="314" y="27"/>
      <point x="281" y="-43"/>
    </contour>
  </outline>
</glyph>
<glyph name="oneinferior" format="1">
  <advance width="270"/>
  <unicode hex="2081"/>
  <outline>
    <contour>
      <point x="133" y="-100" type="line"/>
      <point x="206" y="-100" type="line"/>
      <point x="206" y="446" type="line"/>
      <point x="155" y="446" type="line"/>
      <point x="17" y="349" type="line"/>
      <point x="15" y="337" type="line"/>
      <point x="33" y="303" type="line"/>
      <point x="45" y="303" type="line"/>
      <point x="133" y="359" type="line"/>
    </contour>
  </outline>
</glyph>
<glyph name="twoinferior" format="1">
  <advance width="346"/>
  <unicode hex="2082"/>
  <outline>
    <contour>
      <point x="32" y="-100" type="line"/>
      <point x="309" y="-100" type="line"/>
      <point x="309" y="-37" type="line"/>
      <point x="107" y="-37" type="line"/>
      <point x="107" y="-11" type="line" smooth="yes"/>
      <point x="107" y="46"/>
      <point x="138" y="91"/>
      <point x="209" y="147" type="curve" smooth="yes"/>
      <point x="279" y="201"/>
      <point x="310" y="248"/>
      <point x="310" y="317" type="curve" smooth="yes"/>
      <point x="310" y="407"/>
      <point x="260" y="453"/>
      <point x="165" y="453" type="curve" smooth="yes"/>
      <point x="131" y="453"/>
      <point x="90" y="447"/>
      <point x="44" y="432" type="curve"/>
      <point x="54" y="371" type="line"/>
      <point x="94" y="383"/>
      <point x="125" y="389"/>
      <point x="151" y="389" type="curve" smooth="yes"/>
      <point x="207" y="389"/>
      <point x="237" y="362"/>
      <point x="237" y="311" type="curve" smooth="yes"/>
      <point x="237" y="267"/>
      <point x="214" y="232"/>
      <point x="154" y="187" type="curve" smooth="yes"/>
      <point x="67" y="123"/>
      <point x="32" y="64"/>
      <point x="32" y="-21" type="curve" smooth="yes"/>
    </contour>
  </outline>
</glyph>
<glyph name="threeinferior" format="1">
  <advance width="328"/>
  <unicode hex="2083"/>
  <outline>
    <contour>
      <point x="124" y="-106" type="curve" smooth="yes"/>
      <point x="230" y="-106"/>
      <point x="293" y="-50"/>
      <point x="293" y="43" type="curve" smooth="yes"/>
      <point x="293" y="116"/>
      <point x="258" y="164"/>
      <point x="190" y="184" type="curve"/>
      <point x="246" y="203"/>
      <point x="279" y="250"/>
      <point x="279" y="314" type="curve" smooth="yes"/>
      <point x="279" y="404"/>
      <point x="226" y="454"/>
      <point x="126" y="454" type="curve" smooth="yes"/>
      <point x="97" y="454"/>
      <point x="67" y="449"/>
      <point x="34" y="441" type="curve"/>
      <point x="40" y="380" type="line"/>
      <point x="51" y="380" type="line"/>
      <point x="78" y="387"/>
      <point x="101" y="390"/>
      <point x="120" y="390" type="curve" smooth="yes"/>
      <point x="177" y="390"/>
      <point x="207" y="359"/>
      <point x="207" y="303" type="curve" smooth="yes"/>
      <point x="207" y="245"/>
      <point x="168" y="211"/>
      <point x="100" y="211" type="curve" smooth="yes"/>
      <point x="80" y="211" type="line"/>
      <point x="80" y="151" type="line"/>
      <point x="99" y="151" type="line" smooth="yes"/>
      <point x="182" y="151"/>
      <point x="221" y="117"/>
      <point x="221" y="48" type="curve" smooth="yes"/>
      <point x="221" y="-9"/>
      <point x="185" y="-42"/>
      <point x="117" y="-42" type="curve" smooth="yes"/>
      <point x="93" y="-42"/>
      <point x="68" y="-38"/>
      <point x="48" y="-33" type="curve"/>
      <point x="38" y="-33" type="line"/>
      <point x="38" y="-95" type="line"/>
      <point x="67" y="-102"/>
      <point x="96" y="-106"/>
    </contour>
  </outline>
</glyph>
<glyph name="fiveinferior" format="1">
  <advance width="325"/>
  <unicode hex="2085"/>
  <outline>
    <contour>
      <point x="125" y="-108" type="curve" smooth="yes"/>
      <point x="233" y="-108"/>
      <point x="295" y="-47"/>
      <point x="295" y="62" type="curve" smooth="yes"/>
      <point x="295" y="173"/>
      <point x="243" y="220"/>
      <point x="110" y="223" type="curve"/>
      <point x="122" y="383" type="line"/>
      <point x="272" y="383" type="line"/>
      <point x="272" y="446" type="line"/>
      <point x="62" y="446" type="line"/>
      <point x="43" y="173" type="line"/>
      <point x="49" y="167" type="line"/>
      <point x="92" y="167" type="line" smooth="yes"/>
      <point x="186" y="167"/>
      <point x="221" y="137"/>
      <point x="221" y="62" type="curve" smooth="yes"/>
      <point x="221" y="-8"/>
      <point x="186" y="-46"/>
      <point x="122" y="-46" type="curve" smooth="yes"/>
      <point x="103" y="-46"/>
      <point x="82" y="-43"/>
      <point x="56" y="-37" type="curve"/>
      <point x="37" y="-37" type="line"/>
      <point x="37" y="-97" type="line"/>
      <point x="72" y="-105"/>
      <point x="100" y="-108"/>
    </contour>
  </outline>
</glyph>
<glyph name="sixinferior" format="1">
  <advance width="389"/>
  <unicode hex="2086"/>
  <outline>
    <contour>
      <point x="202" y="-108" type="curve" smooth="yes"/>
      <point x="298" y="-108"/>
      <point x="361" y="-34"/>
      <point x="361" y="78" type="curve" smooth="yes"/>
      <point x="361" y="176"/>
      <point x="303" y="237"/>
      <point x="212" y="237" type="curve" smooth="yes"/>
      <point x="176" y="237"/>
      <point x="138" y="222"/>
      <point x="106" y="195" type="curve"/>
      <point x="116" y="323"/>
      <point x="166" y="393"/>
      <point x="248" y="393" type="curve" smooth="yes"/>
      <point x="271" y="393"/>
      <point x="294" y="389"/>
      <point x="327" y="379" type="curve"/>
      <point x="332" y="441" type="line"/>
      <point x="300" y="450"/>
      <point x="272" y="455"/>
      <point x="246" y="455" type="curve" smooth="yes"/>
      <point x="111" y="455"/>
      <point x="36" y="342"/>
      <point x="36" y="143" type="curve" smooth="yes"/>
      <point x="36" y="-22"/>
      <point x="93" y="-108"/>
    </contour>
    <contour>
      <point x="202" y="-44" type="curve" smooth="yes"/>
      <point x="136" y="-44"/>
      <point x="105" y="14"/>
      <point x="104" y="136" type="curve"/>
      <point x="133" y="165"/>
      <point x="171" y="183"/>
      <point x="201" y="183" type="curve" smooth="yes"/>
      <point x="260" y="183"/>
      <point x="292" y="146"/>
      <point x="292" y="77" type="curve" smooth="yes"/>
      <point x="292" y="2"/>
      <point x="258" y="-44"/>
    </contour>
  </outline>
</glyph>
<glyph name="colonmonetary" format="1">
  <advance width="497"/>
  <unicode hex="20A1"/>
  <outline>
    <contour>
      <point x="193" y="-52" type="line"/>
      <point x="248" y="-52" type="line"/>
      <point x="408" y="809" type="line"/>
      <point x="353" y="809" type="line"/>
    </contour>
    <component base="C" xOffset="1"/>
  </outline>
</glyph>
<glyph name="lira" format="1">
  <advance width="527"/>
  <unicode hex="20A4"/>
  <outline>
    <contour>
      <point x="47" y="0" type="line"/>
      <point x="478" y="0" type="line"/>
      <point x="478" y="72" type="line"/>
      <point x="236" y="72" type="line"/>
      <point x="236" y="528" type="line" smooth="yes"/>
      <point x="236" y="634"/>
      <point x="267" y="674"/>
      <point x="348" y="674" type="curve" smooth="yes"/>
      <point x="384" y="674"/>
      <point x="436" y="666"/>
      <point x="483" y="650" type="curve"/>
      <point x="492" y="718" type="line"/>
      <point x="429" y="737"/>
      <point x="379" y="746"/>
      <point x="336" y="746" type="curve" smooth="yes"/>
      <point x="207" y="746"/>
      <point x="154" y="677"/>
      <point x="154" y="530" type="curve" smooth="yes"/>
      <point x="154" y="73" type="line"/>
      <point x="47" y="73" type="line"/>
    </contour>
    <contour>
      <point x="47" y="258" type="line"/>
      <point x="348" y="258" type="line"/>
      <point x="368" y="310" type="line"/>
      <point x="47" y="310" type="line"/>
    </contour>
    <contour>
      <point x="47" y="428" type="line"/>
      <point x="384" y="428" type="line"/>
      <point x="404" y="480" type="line"/>
      <point x="47" y="480" type="line"/>
    </contour>
  </outline>
</glyph>
<glyph name="uni20A6" format="1">
  <advance width="756"/>
  <unicode hex="20A6"/>
  <outline>
    <contour>
      <point x="39" y="243" type="line"/>
      <point x="717" y="243" type="line"/>
      <point x="717" y="298" type="line"/>
      <point x="39" y="298" type="line"/>
    </contour>
    <contour>
      <point x="39" y="440" type="line"/>
      <point x="717" y="440" type="line"/>
      <point x="717" y="495" type="line"/>
      <point x="39" y="495" type="line"/>
    </contour>
    <component base="N" xOffset="53"/>
  </outline>
</glyph>
<glyph name="Euro" format="1">
  <advance width="518"/>
  <unicode hex="20AC"/>
  <outline>
    <contour>
      <point x="406" y="-10" type="curve" smooth="yes"/>
      <point x="435" y="-10"/>
      <point x="455" y="-8"/>
      <point x="473" y="-3" type="curve"/>
      <point x="473" y="69" type="line"/>
      <point x="452" y="65"/>
      <point x="429" y="62"/>
      <point x="412" y="62" type="curve" smooth="yes"/>
      <point x="252" y="62"/>
      <point x="191" y="150"/>
      <point x="191" y="369" type="curve" smooth="yes"/>
      <point x="191" y="596"/>
      <point x="251" y="676"/>
      <point x="415" y="676" type="curve" smooth="yes"/>
      <point x="434" y="676"/>
      <point x="447" y="675"/>
      <point x="463" y="673" type="curve"/>
      <point x="483" y="741" type="line"/>
      <point x="460" y="746"/>
      <point x="438" y="749"/>
      <point x="406" y="749" type="curve" smooth="yes"/>
      <point x="199" y="749"/>
      <point x="107" y="635"/>
      <point x="107" y="369" type="curve" smooth="yes"/>
      <point x="107" y="110"/>
      <point x="202" y="-8"/>
    </contour>
    <contour>
      <point x="36" y="258" type="line"/>
      <point x="361" y="258" type="line"/>
      <point x="381" y="313" type="line"/>
      <point x="36" y="313" type="line"/>
    </contour>
    <contour>
      <point x="36" y="426" type="line"/>
      <point x="393" y="426" type="line"/>
      <point x="413" y="481" type="line"/>
      <point x="36" y="481" type="line"/>
    </contour>
  </outline>
</glyph>
<glyph name="uni20BA" format="1">
  <advance width="505"/>
  <unicode hex="20BA"/>
  <outline>
    <contour>
      <point x="38" y="416" type="line"/>
      <point x="394" y="516" type="line"/>
      <point x="394" y="570" type="line"/>
      <point x="38" y="470" type="line"/>
    </contour>
    <contour>
      <point x="38" y="247" type="line"/>
      <point x="394" y="347" type="line"/>
      <point x="394" y="401" type="line"/>
      <point x="38" y="301" type="line"/>
    </contour>
    <contour>
      <point x="144" y="0" type="line"/>
      <point x="319" y="0" type="line" smooth="yes"/>
      <point x="450" y="0"/>
      <point x="473" y="72"/>
      <point x="473" y="270" type="curve"/>
      <point x="386" y="270" type="line"/>
      <point x="386" y="100"/>
      <point x="377" y="72"/>
      <point x="319" y="72" type="curve" smooth="yes"/>
      <point x="230" y="72" type="line"/>
      <point x="230" y="740" type="line"/>
      <point x="144" y="740" type="line"/>
    </contour>
  </outline>
</glyph>
<glyph name="Omega" format="1">
  <advance width="713"/>
  <unicode hex="2126"/>
  <outline>
    <contour>
      <point x="40" y="0" type="line"/>
      <point x="315" y="0" type="line"/>
      <point x="315" y="62" type="line"/>
      <point x="262" y="99"/>
      <point x="134" y="178"/>
      <point x="134" y="410" type="curve" smooth="yes"/>
      <point x="134" y="574"/>
      <point x="222" y="683"/>
      <point x="356" y="683" type="curve" smooth="yes"/>
      <point x="492" y="683"/>
      <point x="581" y="574"/>
      <point x="581" y="410" type="curve" smooth="yes"/>
      <point x="581" y="178"/>
      <point x="452" y="99"/>
      <point x="397" y="62" type="curve"/>
      <point x="397" y="0" type="line"/>
      <point x="672" y="0" type="line"/>
      <point x="672" y="72" type="line"/>
      <point x="473" y="67" type="line"/>
      <point x="555" y="117"/>
      <point x="661" y="216"/>
      <point x="661" y="410" type="curve" smooth="yes"/>
      <point x="661" y="615"/>
      <point x="541" y="750"/>
      <point x="356" y="750" type="curve" smooth="yes"/>
      <point x="172" y="750"/>
      <point x="51" y="615"/>
      <point x="51" y="410" type="curve" smooth="yes"/>
      <point x="51" y="216"/>
      <point x="157" y="118"/>
      <point x="239" y="68" type="curve"/>
      <point x="40" y="72" type="line"/>
    </contour>
  </outline>
</glyph>
<glyph name="estimated" format="1">
  <advance width="653"/>
  <unicode hex="212E"/>
  <outline>
    <contour>
      <point x="332" y="1" type="curve" smooth="yes"/>
      <point x="436" y="1"/>
      <point x="515" y="48"/>
      <point x="590" y="154" type="curve"/>
      <point x="550" y="178" type="line"/>
      <point x="498" y="87"/>
      <point x="426" y="42"/>
      <point x="332" y="42" type="curve" smooth="yes"/>
      <point x="268" y="42"/>
      <point x="216" y="64"/>
      <point x="173" y="108" type="curve"/>
      <point x="173" y="313" type="line"/>
      <point x="620" y="313" type="line"/>
      <point x="611" y="504"/>
      <point x="499" y="626"/>
      <point x="332" y="626" type="curve" smooth="yes"/>
      <point x="163" y="626"/>
      <point x="45" y="497"/>
      <point x="45" y="313" type="curve" smooth="yes"/>
      <point x="45" y="135"/>
      <point x="168" y="1"/>
    </contour>
    <contour>
      <point x="173" y="354" type="line"/>
      <point x="173" y="518" type="line"/>
      <point x="216" y="563"/>
      <point x="268" y="586"/>
      <point x="331" y="586" type="curve" smooth="yes"/>
      <point x="392" y="586"/>
      <point x="445" y="563"/>
      <point x="492" y="518" type="curve"/>
      <point x="492" y="354" type="line"/>
    </contour>
  </outline>
</glyph>
<glyph name="arrowleft" format="1">
  <advance width="574"/>
  <unicode hex="2190"/>
  <outline>
    <contour>
      <point x="309" y="107" type="line"/>
      <point x="359" y="156" type="line"/>
      <point x="130" y="372" type="line"/>
      <point x="533" y="368" type="line"/>
      <point x="533" y="442" type="line"/>
      <point x="130" y="438" type="line"/>
      <point x="359" y="654" type="line"/>
      <point x="309" y="703" type="line"/>
      <point x="24" y="416" type="line"/>
      <point x="24" y="394" type="line"/>
    </contour>
  </outline>
</glyph>
<glyph name="arrowup" format="1">
  <advance width="654"/>
  <unicode hex="2191"/>
  <outline>
    <contour>
      <point x="290" y="146" type="line"/>
      <point x="364" y="146" type="line"/>
      <point x="360" y="549" type="line"/>
      <point x="576" y="320" type="line"/>
      <point x="625" y="370" type="line"/>
      <point x="338" y="655" type="line"/>
      <point x="316" y="655" type="line"/>
      <point x="29" y="370" type="line"/>
      <point x="78" y="320" type="line"/>
      <point x="294" y="549" type="line"/>
    </contour>
  </outline>
</glyph>
<glyph name="arrowright" format="1">
  <advance width="574"/>
  <unicode hex="2192"/>
  <outline>
    <contour>
      <point x="265" y="107" type="line"/>
      <point x="550" y="394" type="line"/>
      <point x="550" y="416" type="line"/>
      <point x="265" y="703" type="line"/>
      <point x="215" y="654" type="line"/>
      <point x="443" y="438" type="line"/>
      <point x="41" y="442" type="line"/>
      <point x="41" y="368" type="line"/>
      <point x="443" y="372" type="line"/>
      <point x="215" y="156" type="line"/>
    </contour>
  </outline>
</glyph>
<glyph name="partialdiff" format="1">
  <advance width="483"/>
  <unicode hex="2202"/>
  <outline>
    <contour>
      <point x="237" y="-4" type="curve" smooth="yes"/>
      <point x="356" y="-4"/>
      <point x="434" y="116"/>
      <point x="434" y="331" type="curve" smooth="yes"/>
      <point x="434" y="595"/>
      <point x="354" y="747"/>
      <point x="215" y="747" type="curve" smooth="yes"/>
      <point x="167" y="747"/>
      <point x="103" y="713"/>
      <point x="68" y="670" type="curve"/>
      <point x="97" y="621" type="line"/>
      <point x="126" y="653"/>
      <point x="176" y="679"/>
      <point x="210" y="679" type="curve" smooth="yes"/>
      <point x="287" y="679"/>
      <point x="336" y="592"/>
      <point x="349" y="434" type="curve"/>
      <point x="312" y="473"/>
      <point x="271" y="497"/>
      <point x="223" y="497" type="curve" smooth="yes"/>
      <point x="113" y="497"/>
      <point x="38" y="397"/>
      <point x="38" y="259" type="curve" smooth="yes"/>
      <point x="38" y="112"/>
      <point x="111" y="-4"/>
    </contour>
    <contour>
      <point x="236" y="61" type="curve" smooth="yes"/>
      <point x="162" y="61"/>
      <point x="119" y="145"/>
      <point x="119" y="259" type="curve" smooth="yes"/>
      <point x="119" y="361"/>
      <point x="171" y="431"/>
      <point x="239" y="431" type="curve" smooth="yes"/>
      <point x="285" y="431"/>
      <point x="320" y="406"/>
      <point x="353" y="366" type="curve"/>
      <point x="353" y="356"/>
      <point x="353" y="334"/>
      <point x="353" y="324" type="curve" smooth="yes"/>
      <point x="353" y="143"/>
      <point x="310" y="61"/>
    </contour>
  </outline>
</glyph>
<glyph name="Delta" format="1">
  <advance width="604"/>
  <unicode hex="2206"/>
  <outline>
    <contour>
      <point x="20" y="0" type="line"/>
      <point x="584" y="0" type="line"/>
      <point x="355" y="740" type="line"/>
      <point x="249" y="740" type="line"/>
    </contour>
    <contour>
      <point x="119" y="72" type="line"/>
      <point x="301" y="661" type="line"/>
      <point x="484" y="72" type="line"/>
    </contour>
  </outline>
</glyph>
<glyph name="product" format="1">
  <advance width="652"/>
  <unicode hex="220F"/>
  <outline>
    <contour>
      <point x="77" y="-107" type="line"/>
      <point x="158" y="-107" type="line"/>
      <point x="158" y="668" type="line"/>
      <point x="494" y="668" type="line"/>
      <point x="494" y="-107" type="line"/>
      <point x="575" y="-107" type="line"/>
      <point x="575" y="740" type="line"/>
      <point x="77" y="740" type="line"/>
    </contour>
  </outline>
</glyph>
<glyph name="integral" format="1">
  <advance width="316"/>
  <unicode hex="222B"/>
  <outline>
    <contour>
      <point x="91" y="-203" type="curve" smooth="yes"/>
      <point x="164" y="-203"/>
      <point x="225" y="-175"/>
      <point x="225" y="-84" type="curve" smooth="yes"/>
      <point x="225" y="-78"/>
      <point x="224" y="-71"/>
      <point x="224" y="-65" type="curve"/>
      <point x="173" y="620" type="line"/>
      <point x="172" y="624"/>
      <point x="172" y="631"/>
      <point x="172" y="635" type="curve" smooth="yes"/>
      <point x="172" y="690"/>
      <point x="201" y="706"/>
      <point x="236" y="706" type="curve" smooth="yes"/>
      <point x="255" y="706"/>
      <point x="276" y="702"/>
      <point x="295" y="696" type="curve"/>
      <point x="296" y="701"/>
      <point x="304" y="742"/>
      <point x="305" y="750" type="curve"/>
      <point x="270" y="759"/>
      <point x="240" y="764"/>
      <point x="208" y="764" type="curve" smooth="yes"/>
      <point x="141" y="764"/>
      <point x="94" y="727"/>
      <point x="94" y="640" type="curve" smooth="yes"/>
      <point x="94" y="634"/>
      <point x="94" y="626"/>
      <point x="95" y="620" type="curve"/>
      <point x="147" y="-64" type="line"/>
      <point x="147" y="-76" type="line" smooth="yes"/>
      <point x="147" y="-128"/>
      <point x="117" y="-141"/>
      <point x="78" y="-141" type="curve" smooth="yes"/>
      <point x="60" y="-141"/>
      <point x="40" y="-138"/>
      <point x="21" y="-135" type="curve"/>
      <point x="10" y="-190" type="line"/>
      <point x="37" y="-197"/>
      <point x="64" y="-203"/>
    </contour>
  </outline>
</glyph>
<glyph name="notequal" format="1">
  <advance width="470"/>
  <unicode hex="2260"/>
  <outline>
    <contour>
      <point x="266" y="593" type="line"/>
      <point x="140" y="125" type="line"/>
      <point x="202" y="109" type="line"/>
      <point x="327" y="577" type="line"/>
    </contour>
    <contour>
      <point x="41" y="215" type="line"/>
      <point x="429" y="215" type="line"/>
      <point x="429" y="281" type="line"/>
      <point x="41" y="281" type="line"/>
    </contour>
    <contour>
      <point x="41" y="430" type="line"/>
      <point x="429" y="430" type="line"/>
      <point x="429" y="495" type="line"/>
      <point x="41" y="495" type="line"/>
    </contour>
  </outline>
</glyph>
<glyph name="AE.sc" format="1">
  <advance width="686"/>
  <outline>
    <contour>
      <point x="452" y="760" type="move" name="topUC"/>
    </contour>
    <contour>
      <point x="12" y="0" type="line"/>
      <point x="92" y="0" type="line"/>
      <point x="152" y="164" type="line"/>
      <point x="337" y="164" type="line"/>
      <point x="344" y="0" type="line"/>
      <point x="648" y="0" type="line"/>
      <point x="648" y="67" type="line"/>
      <point x="421" y="67" type="line"/>
      <point x="410" y="259" type="line"/>
      <point x="619" y="259" type="line"/>
      <point x="619" y="324" type="line"/>
      <point x="405" y="324" type="line"/>
      <point x="395" y="511" type="line"/>
      <point x="641" y="511" type="line"/>
      <point x="641" y="577" type="line"/>
      <point x="219" y="577" type="line"/>
      <point x="12" y="5" type="line"/>
    </contour>
    <contour>
      <point x="279" y="514" type="line"/>
      <point x="321" y="514" type="line"/>
      <point x="334" y="226" type="line"/>
      <point x="173" y="226" type="line"/>
    </contour>
  </outline>
</glyph>
<glyph name="Agrave.sc" format="1">
  <advance width="505"/>
  <outline>
    <contour>
      <point x="10" y="0" type="line"/>
      <point x="85" y="0" type="line"/>
      <point x="140" y="164" type="line"/>
      <point x="365" y="164" type="line"/>
      <point x="420" y="0" type="line"/>
      <point x="495" y="0" type="line"/>
      <point x="495" y="5" type="line"/>
      <point x="310" y="577" type="line"/>
      <point x="196" y="577" type="line"/>
      <point x="10" y="5" type="line"/>
    </contour>
    <contour>
      <point x="155" y="223" type="line"/>
      <point x="224" y="428" type="line"/>
      <point x="249" y="512" type="line"/>
      <point x="256" y="512" type="line"/>
      <point x="281" y="428" type="line"/>
      <point x="349" y="223" type="line"/>
    </contour>
    <contour>
      <point x="280" y="624" type="line"/>
      <point x="216" y="736" type="line"/>
      <point x="135" y="736" type="line"/>
      <point x="220" y="615" type="line"/>
    </contour>
  </outline>
</glyph>
<glyph name="Aring.sc" format="1">
  <advance width="505"/>
  <outline>
    <contour>
      <point x="10" y="0" type="line"/>
      <point x="85" y="0" type="line"/>
      <point x="140" y="164" type="line"/>
      <point x="365" y="164" type="line"/>
      <point x="420" y="0" type="line"/>
      <point x="495" y="0" type="line"/>
      <point x="495" y="5" type="line"/>
      <point x="310" y="577" type="line"/>
      <point x="196" y="577" type="line"/>
      <point x="10" y="5" type="line"/>
    </contour>
    <contour>
      <point x="155" y="223" type="line"/>
      <point x="224" y="428" type="line"/>
      <point x="249" y="512" type="line"/>
      <point x="256" y="512" type="line"/>
      <point x="281" y="428" type="line"/>
      <point x="349" y="223" type="line"/>
    </contour>
    <contour>
      <point x="251" y="611" type="curve" smooth="yes"/>
      <point x="306" y="611"/>
      <point x="340" y="648"/>
      <point x="340" y="694" type="curve" smooth="yes"/>
      <point x="340" y="742"/>
      <point x="306" y="778"/>
      <point x="251" y="778" type="curve" smooth="yes"/>
      <point x="197" y="778"/>
      <point x="163" y="742"/>
      <point x="163" y="694" type="curve" smooth="yes"/>
      <point x="163" y="648"/>
      <point x="197" y="611"/>
    </contour>
    <contour>
      <point x="251" y="647" type="curve" smooth="yes"/>
      <point x="218" y="647"/>
      <point x="203" y="665"/>
      <point x="203" y="694" type="curve" smooth="yes"/>
      <point x="203" y="724"/>
      <point x="218" y="742"/>
      <point x="251" y="742" type="curve" smooth="yes"/>
      <point x="285" y="742"/>
      <point x="300" y="724"/>
      <point x="300" y="694" type="curve" smooth="yes"/>
      <point x="300" y="665"/>
      <point x="284" y="647"/>
    </contour>
  </outline>
</glyph>
<glyph name="Aringacute.sc" format="1">
  <advance width="505"/>
  <outline>
    <contour>
      <point x="10" y="0" type="line"/>
      <point x="84" y="0" type="line"/>
      <point x="140" y="164" type="line"/>
      <point x="364" y="164" type="line"/>
      <point x="420" y="0" type="line"/>
      <point x="495" y="0" type="line"/>
      <point x="495" y="5" type="line"/>
      <point x="329" y="511" type="line"/>
      <point x="347" y="527"/>
      <point x="355" y="549"/>
      <point x="355" y="574" type="curve" smooth="yes"/>
      <point x="355" y="614"/>
      <point x="334" y="647"/>
      <point x="296" y="660" type="curve"/>
      <point x="359" y="750" type="line"/>
      <point x="279" y="750" type="line"/>
      <point x="229" y="668" type="line"/>
      <point x="177" y="661"/>
      <point x="148" y="623"/>
      <point x="148" y="574" type="curve" smooth="yes"/>
      <point x="148" y="548"/>
      <point x="157" y="525"/>
      <point x="176" y="509" type="curve"/>
      <point x="10" y="5" type="line"/>
    </contour>
    <contour>
      <point x="251" y="523" type="curve" smooth="yes"/>
      <point x="218" y="523"/>
      <point x="199" y="545"/>
      <point x="199" y="574" type="curve" smooth="yes"/>
      <point x="199" y="605"/>
      <point x="217" y="626"/>
      <point x="251" y="626" type="curve" smooth="yes"/>
      <point x="285" y="626"/>
      <point x="304" y="605"/>
      <point x="304" y="574" type="curve" smooth="yes"/>
      <point x="304" y="545"/>
      <point x="284" y="523"/>
    </contour>
    <contour>
      <point x="155" y="223" type="line"/>
      <point x="224" y="428" type="line"/>
      <point x="236" y="477" type="line"/>
      <point x="268" y="478" type="line"/>
      <point x="281" y="428" type="line"/>
      <point x="349" y="223" type="line"/>
    </contour>
  </outline>
</glyph>
<glyph name="Atilde.sc" format="1">
  <advance width="505"/>
  <outline>
    <contour>
      <point x="10" y="0" type="line"/>
      <point x="85" y="0" type="line"/>
      <point x="140" y="164" type="line"/>
      <point x="365" y="164" type="line"/>
      <point x="420" y="0" type="line"/>
      <point x="495" y="0" type="line"/>
      <point x="495" y="5" type="line"/>
      <point x="310" y="577" type="line"/>
      <point x="196" y="577" type="line"/>
      <point x="10" y="5" type="line"/>
    </contour>
    <contour>
      <point x="155" y="223" type="line"/>
      <point x="224" y="428" type="line"/>
      <point x="249" y="512" type="line"/>
      <point x="256" y="512" type="line"/>
      <point x="281" y="428" type="line"/>
      <point x="349" y="223" type="line"/>
    </contour>
    <contour>
      <point x="134" y="640" type="line"/>
      <point x="152" y="660"/>
      <point x="172" y="671"/>
      <point x="194" y="671" type="curve" smooth="yes"/>
      <point x="234" y="671"/>
      <point x="266" y="638"/>
      <point x="310" y="638" type="curve" smooth="yes"/>
      <point x="343" y="638"/>
      <point x="381" y="663"/>
      <point x="402" y="706" type="curve"/>
      <point x="379" y="723" type="line"/>
      <point x="362" y="702"/>
      <point x="345" y="692"/>
      <point x="324" y="692" type="curve" smooth="yes"/>
      <point x="283" y="692"/>
      <point x="252" y="724"/>
      <point x="208" y="724" type="curve" smooth="yes"/>
      <point x="175" y="724"/>
      <point x="137" y="698"/>
      <point x="114" y="659" type="curve"/>
    </contour>
  </outline>
</glyph>
<glyph name="B.sc" format="1">
  <advance width="504"/>
  <outline>
    <contour>
      <point x="237" y="-8" type="curve" smooth="yes"/>
      <point x="389" y="-8"/>
      <point x="466" y="47"/>
      <point x="466" y="154" type="curve" smooth="yes"/>
      <point x="466" y="232"/>
      <point x="422" y="282"/>
      <point x="346" y="294" type="curve"/>
      <point x="346" y="297" type="line"/>
      <point x="412" y="310"/>
      <point x="447" y="356"/>
      <point x="447" y="427" type="curve" smooth="yes"/>
      <point x="447" y="535"/>
      <point x="379" y="585"/>
      <point x="230" y="585" type="curve" smooth="yes"/>
      <point x="185" y="585"/>
      <point x="144" y="582"/>
      <point x="68" y="574" type="curve"/>
      <point x="68" y="4" type="line"/>
      <point x="111" y="-3"/>
      <point x="184" y="-8"/>
    </contour>
    <contour>
      <point x="247" y="53" type="curve" smooth="yes"/>
      <point x="208" y="53"/>
      <point x="158" y="56"/>
      <point x="142" y="59" type="curve"/>
      <point x="142" y="262" type="line"/>
      <point x="235" y="262" type="line" smooth="yes"/>
      <point x="345" y="262"/>
      <point x="388" y="232"/>
      <point x="388" y="158" type="curve" smooth="yes"/>
      <point x="388" y="88"/>
      <point x="341" y="53"/>
    </contour>
    <contour>
      <point x="142" y="320" type="line"/>
      <point x="142" y="517" type="line"/>
      <point x="176" y="521"/>
      <point x="205" y="523"/>
      <point x="238" y="523" type="curve" smooth="yes"/>
      <point x="327" y="523"/>
      <point x="368" y="492"/>
      <point x="368" y="423" type="curve" smooth="yes"/>
      <point x="368" y="347"/>
      <point x="333" y="320"/>
      <point x="234" y="320" type="curve" smooth="yes"/>
    </contour>
  </outline>
</glyph>
<glyph name="Ccedilla.sc" format="1">
  <advance width="443"/>
  <outline>
    <contour>
      <point x="237" y="-172" type="curve" smooth="yes"/>
      <point x="300" y="-172"/>
      <point x="333" y="-141"/>
      <point x="333" y="-87" type="curve" smooth="yes"/>
      <point x="333" y="-62"/>
      <point x="325" y="-35"/>
      <point x="310" y="-7" type="curve"/>
      <point x="345" y="-8"/>
      <point x="381" y="-3"/>
      <point x="409" y="5" type="curve"/>
      <point x="409" y="68" type="line"/>
      <point x="378" y="63"/>
      <point x="338" y="60"/>
      <point x="314" y="60" type="curve" smooth="yes"/>
      <point x="179" y="60"/>
      <point x="123" y="120"/>
      <point x="123" y="288" type="curve" smooth="yes"/>
      <point x="123" y="461"/>
      <point x="176" y="517"/>
      <point x="316" y="517" type="curve" smooth="yes"/>
      <point x="347" y="517"/>
      <point x="382" y="514"/>
      <point x="409" y="510" type="curve"/>
      <point x="409" y="575" type="line"/>
      <point x="371" y="580"/>
      <point x="336" y="584"/>
      <point x="305" y="584" type="curve" smooth="yes"/>
      <point x="122" y="584"/>
      <point x="41" y="496"/>
      <point x="41" y="288" type="curve" smooth="yes"/>
      <point x="41" y="105"/>
      <point x="107" y="14"/>
      <point x="252" y="-3" type="curve"/>
      <point x="267" y="-29"/>
      <point x="277" y="-56"/>
      <point x="277" y="-77" type="curve" smooth="yes"/>
      <point x="277" y="-104"/>
      <point x="261" y="-119"/>
      <point x="228" y="-119" type="curve" smooth="yes"/>
      <point x="215" y="-119"/>
      <point x="195" y="-117"/>
      <point x="175" y="-112" type="curve"/>
      <point x="175" y="-163" type="line"/>
      <point x="197" y="-169"/>
      <point x="219" y="-172"/>
    </contour>
  </outline>
</glyph>
<glyph name="Cdotaccent.sc" format="1">
  <advance width="443"/>
  <outline>
    <contour>
      <point x="307" y="-8" type="curve" smooth="yes"/>
      <point x="349" y="-8"/>
      <point x="383" y="-3"/>
      <point x="409" y="5" type="curve"/>
      <point x="409" y="68" type="line"/>
      <point x="378" y="63"/>
      <point x="338" y="60"/>
      <point x="314" y="60" type="curve" smooth="yes"/>
      <point x="179" y="60"/>
      <point x="123" y="120"/>
      <point x="123" y="288" type="curve" smooth="yes"/>
      <point x="123" y="461"/>
      <point x="176" y="517"/>
      <point x="316" y="517" type="curve" smooth="yes"/>
      <point x="347" y="517"/>
      <point x="382" y="514"/>
      <point x="409" y="510" type="curve"/>
      <point x="409" y="575" type="line"/>
      <point x="371" y="580"/>
      <point x="336" y="584"/>
      <point x="305" y="584" type="curve" smooth="yes"/>
      <point x="122" y="584"/>
      <point x="41" y="496"/>
      <point x="41" y="288" type="curve" smooth="yes"/>
      <point x="41" y="84"/>
      <point x="124" y="-6"/>
    </contour>
    <contour>
      <point x="264" y="623" type="curve" smooth="yes"/>
      <point x="295" y="623"/>
      <point x="313" y="637"/>
      <point x="313" y="670" type="curve" smooth="yes"/>
      <point x="313" y="702"/>
      <point x="295" y="715"/>
      <point x="264" y="715" type="curve" smooth="yes"/>
      <point x="233" y="715"/>
      <point x="217" y="702"/>
      <point x="217" y="670" type="curve" smooth="yes"/>
      <point x="217" y="637"/>
      <point x="233" y="623"/>
    </contour>
  </outline>
</glyph>
<glyph name="D.sc" format="1">
  <advance width="534"/>
  <outline>
    <contour>
      <point x="259" y="760" type="move" name="topUC"/>
    </contour>
    <contour>
      <point x="264" y="0" type="move" name="bottom"/>
    </contour>
    <contour>
      <point x="187" y="-12" type="curve" smooth="yes"/>
      <point x="402" y="-12"/>
      <point x="493" y="76"/>
      <point x="493" y="288" type="curve" smooth="yes"/>
      <point x="493" y="495"/>
      <point x="408" y="585"/>
      <point x="211" y="585" type="curve" smooth="yes"/>
      <point x="173" y="585"/>
      <point x="128" y="581"/>
      <point x="68" y="574" type="curve"/>
      <point x="68" y="-4" type="line"/>
      <point x="112" y="-10"/>
      <point x="151" y="-12"/>
    </contour>
    <contour>
      <point x="210" y="55" type="curve" smooth="yes"/>
      <point x="192" y="55"/>
      <point x="173" y="56"/>
      <point x="145" y="59" type="curve"/>
      <point x="145" y="513" type="line"/>
      <point x="169" y="517"/>
      <point x="194" y="519"/>
      <point x="220" y="519" type="curve" smooth="yes"/>
      <point x="357" y="519"/>
      <point x="411" y="456"/>
      <point x="411" y="288" type="curve" smooth="yes"/>
      <point x="411" y="122"/>
      <point x="350" y="55"/>
    </contour>
  </outline>
</glyph>
<glyph name="Ebreve.sc" format="1">
  <advance width="461"/>
  <outline>
    <contour>
      <point x="244" y="628" type="curve" smooth="yes"/>
      <point x="330" y="628"/>
      <point x="379" y="674"/>
      <point x="379" y="749" type="curve"/>
      <point x="321" y="749" type="line"/>
      <point x="321" y="697"/>
      <point x="295" y="672"/>
      <point x="244" y="672" type="curve" smooth="yes"/>
      <point x="193" y="672"/>
      <point x="167" y="697"/>
      <point x="167" y="749" type="curve"/>
      <point x="109" y="749" type="line"/>
      <point x="109" y="674"/>
      <point x="158" y="628"/>
    </contour>
    <contour>
      <point x="68" y="0" type="line"/>
      <point x="425" y="0" type="line"/>
      <point x="425" y="67" type="line"/>
      <point x="147" y="67" type="line"/>
      <point x="147" y="259" type="line"/>
      <point x="390" y="259" type="line"/>
      <point x="390" y="324" type="line"/>
      <point x="147" y="324" type="line"/>
      <point x="147" y="511" type="line"/>
      <point x="418" y="511" type="line"/>
      <point x="418" y="577" type="line"/>
      <point x="68" y="577" type="line"/>
    </contour>
  </outline>
</glyph>
<glyph name="Edblgrave.sc" format="1">
  <advance width="461"/>
  <outline>
    <contour>
      <point x="68" y="0" type="line"/>
      <point x="425" y="0" type="line"/>
      <point x="425" y="67" type="line"/>
      <point x="147" y="67" type="line"/>
      <point x="147" y="259" type="line"/>
      <point x="390" y="259" type="line"/>
      <point x="390" y="324" type="line"/>
      <point x="147" y="324" type="line"/>
      <point x="147" y="511" type="line"/>
      <point x="418" y="511" type="line"/>
      <point x="418" y="577" type="line"/>
      <point x="68" y="577" type="line"/>
    </contour>
    <contour>
      <point x="157" y="614" type="line"/>
      <point x="205" y="624" type="line"/>
      <point x="142" y="736" type="line"/>
      <point x="71" y="736" type="line"/>
    </contour>
    <contour>
      <point x="289" y="614" type="line"/>
      <point x="337" y="624" type="line"/>
      <point x="274" y="736" type="line"/>
      <point x="204" y="736" type="line"/>
    </contour>
  </outline>
</glyph>
<glyph name="Edieresis.sc" format="1">
  <advance width="461"/>
  <outline>
    <contour>
      <point x="155" y="630" type="curve" smooth="yes"/>
      <point x="185" y="630"/>
      <point x="203" y="644"/>
      <point x="203" y="676" type="curve" smooth="yes"/>
      <point x="203" y="708"/>
      <point x="185" y="722"/>
      <point x="155" y="722" type="curve" smooth="yes"/>
      <point x="123" y="722"/>
      <point x="107" y="709"/>
      <point x="107" y="676" type="curve" smooth="yes"/>
      <point x="107" y="644"/>
      <point x="123" y="630"/>
    </contour>
    <contour>
      <point x="332" y="630" type="curve" smooth="yes"/>
      <point x="362" y="630"/>
      <point x="381" y="644"/>
      <point x="381" y="676" type="curve" smooth="yes"/>
      <point x="381" y="708"/>
      <point x="362" y="722"/>
      <point x="332" y="722" type="curve" smooth="yes"/>
      <point x="301" y="722"/>
      <point x="284" y="709"/>
      <point x="284" y="676" type="curve" smooth="yes"/>
      <point x="284" y="644"/>
      <point x="301" y="630"/>
    </contour>
    <contour>
      <point x="68" y="0" type="line"/>
      <point x="425" y="0" type="line"/>
      <point x="425" y="67" type="line"/>
      <point x="147" y="67" type="line"/>
      <point x="147" y="259" type="line"/>
      <point x="390" y="259" type="line"/>
      <point x="390" y="324" type="line"/>
      <point x="147" y="324" type="line"/>
      <point x="147" y="511" type="line"/>
      <point x="418" y="511" type="line"/>
      <point x="418" y="577" type="line"/>
      <point x="68" y="577" type="line"/>
    </contour>
  </outline>
</glyph>
<glyph name="Eogonek.sc" format="1">
  <advance width="461"/>
  <outline>
    <contour>
      <point x="372" y="-172" type="curve" smooth="yes"/>
      <point x="391" y="-172"/>
      <point x="407" y="-168"/>
      <point x="425" y="-162" type="curve"/>
      <point x="425" y="-113" type="line"/>
      <point x="412" y="-118"/>
      <point x="395" y="-122"/>
      <point x="379" y="-122" type="curve" smooth="yes"/>
      <point x="354" y="-122"/>
      <point x="342" y="-113"/>
      <point x="342" y="-94" type="curve" smooth="yes"/>
      <point x="342" y="-65"/>
      <point x="369" y="-31"/>
      <point x="425" y="-10" type="curve"/>
      <point x="425" y="67" type="line"/>
      <point x="147" y="67" type="line"/>
      <point x="147" y="259" type="line"/>
      <point x="390" y="259" type="line"/>
      <point x="390" y="324" type="line"/>
      <point x="147" y="324" type="line"/>
      <point x="147" y="511" type="line"/>
      <point x="418" y="511" type="line"/>
      <point x="418" y="577" type="line"/>
      <point x="69" y="577" type="line"/>
      <point x="69" y="0" type="line"/>
      <point x="360" y="0" type="line"/>
      <point x="309" y="-31"/>
      <point x="285" y="-62"/>
      <point x="285" y="-101" type="curve" smooth="yes"/>
      <point x="285" y="-147"/>
      <point x="316" y="-172"/>
    </contour>
  </outline>
</glyph>
<glyph name="Euro.tab" format="1">
  <advance width="516"/>
  <outline>
    <contour>
      <point x="33" y="426" type="line"/>
      <point x="106" y="426" type="line"/>
      <point x="105" y="408"/>
      <point x="104" y="389"/>
      <point x="104" y="369" type="curve" smooth="yes"/>
      <point x="104" y="350"/>
      <point x="104" y="331"/>
      <point x="106" y="313" type="curve"/>
      <point x="33" y="313" type="line"/>
      <point x="33" y="258" type="line"/>
      <point x="112" y="258" type="line"/>
      <point x="138" y="75"/>
      <point x="233" y="-8"/>
      <point x="407" y="-10" type="curve" smooth="yes"/>
      <point x="436" y="-10"/>
      <point x="457" y="-8"/>
      <point x="474" y="-3" type="curve"/>
      <point x="474" y="69" type="line"/>
      <point x="453" y="65"/>
      <point x="430" y="62"/>
      <point x="413" y="62" type="curve" smooth="yes"/>
      <point x="284" y="62"/>
      <point x="217" y="121"/>
      <point x="197" y="258" type="curve"/>
      <point x="361" y="258" type="line"/>
      <point x="381" y="313" type="line"/>
      <point x="190" y="313" type="line"/>
      <point x="188" y="328"/>
      <point x="188" y="352"/>
      <point x="188" y="369" type="curve"/>
      <point x="188" y="386"/>
      <point x="188" y="411"/>
      <point x="190" y="426" type="curve"/>
      <point x="394" y="426" type="line"/>
      <point x="414" y="481" type="line"/>
      <point x="197" y="481" type="line"/>
      <point x="216" y="622"/>
      <point x="282" y="676"/>
      <point x="416" y="676" type="curve" smooth="yes"/>
      <point x="435" y="676"/>
      <point x="449" y="675"/>
      <point x="465" y="673" type="curve"/>
      <point x="485" y="741" type="line"/>
      <point x="461" y="746"/>
      <point x="440" y="749"/>
      <point x="406" y="749" type="curve" smooth="yes"/>
      <point x="230" y="749"/>
      <point x="137" y="668"/>
      <point x="112" y="481" type="curve"/>
      <point x="33" y="481" type="line"/>
    </contour>
  </outline>
</glyph>
<glyph name="F.sc" format="1">
  <advance width="434"/>
  <outline>
    <contour>
      <point x="68" y="0" type="line"/>
      <point x="147" y="0" type="line"/>
      <point x="147" y="251" type="line"/>
      <point x="385" y="251" type="line"/>
      <point x="385" y="319" type="line"/>
      <point x="147" y="319" type="line"/>
      <point x="147" y="510" type="line"/>
      <point x="404" y="510" type="line"/>
      <point x="404" y="577" type="line"/>
      <point x="68" y="577" type="line"/>
    </contour>
  </outline>
</glyph>
<glyph name="Gbreve.sc" format="1">
  <advance width="502"/>
  <outline>
    <contour>
      <point x="307" y="-8" type="curve" smooth="yes"/>
      <point x="350" y="-8"/>
      <point x="391" y="-4"/>
      <point x="451" y="5" type="curve"/>
      <point x="451" y="293" type="line"/>
      <point x="379" y="293" type="line"/>
      <point x="379" y="64" type="line"/>
      <point x="356" y="61"/>
      <point x="326" y="60"/>
      <point x="314" y="60" type="curve" smooth="yes"/>
      <point x="177" y="60"/>
      <point x="123" y="123"/>
      <point x="123" y="288" type="curve" smooth="yes"/>
      <point x="123" y="456"/>
      <point x="177" y="517"/>
      <point x="329" y="517" type="curve" smooth="yes"/>
      <point x="362" y="517"/>
      <point x="402" y="513"/>
      <point x="449" y="504" type="curve"/>
      <point x="449" y="570" type="line"/>
      <point x="405" y="579"/>
      <point x="354" y="584"/>
      <point x="321" y="584" type="curve" smooth="yes"/>
      <point x="126" y="584"/>
      <point x="41" y="493"/>
      <point x="41" y="288" type="curve" smooth="yes"/>
      <point x="41" y="86"/>
      <point x="123" y="-6"/>
    </contour>
    <contour>
      <point x="294" y="628" type="curve" smooth="yes"/>
      <point x="380" y="628"/>
      <point x="430" y="674"/>
      <point x="430" y="749" type="curve"/>
      <point x="371" y="749" type="line"/>
      <point x="371" y="697"/>
      <point x="345" y="672"/>
      <point x="294" y="672" type="curve" smooth="yes"/>
      <point x="242" y="672"/>
      <point x="217" y="697"/>
      <point x="217" y="749" type="curve"/>
      <point x="159" y="749" type="line"/>
      <point x="159" y="674"/>
      <point x="208" y="628"/>
    </contour>
  </outline>
</glyph>
<glyph name="Gdotaccent.sc" format="1">
  <advance width="502"/>
  <outline>
    <contour>
      <point x="307" y="-8" type="curve" smooth="yes"/>
      <point x="350" y="-8"/>
      <point x="391" y="-4"/>
      <point x="451" y="5" type="curve"/>
      <point x="451" y="293" type="line"/>
      <point x="379" y="293" type="line"/>
      <point x="379" y="64" type="line"/>
      <point x="356" y="61"/>
      <point x="326" y="60"/>
      <point x="314" y="60" type="curve" smooth="yes"/>
      <point x="177" y="60"/>
      <point x="123" y="123"/>
      <point x="123" y="288" type="curve" smooth="yes"/>
      <point x="123" y="456"/>
      <point x="177" y="517"/>
      <point x="329" y="517" type="curve" smooth="yes"/>
      <point x="362" y="517"/>
      <point x="402" y="513"/>
      <point x="449" y="504" type="curve"/>
      <point x="449" y="570" type="line"/>
      <point x="405" y="579"/>
      <point x="354" y="584"/>
      <point x="321" y="584" type="curve" smooth="yes"/>
      <point x="126" y="584"/>
      <point x="41" y="493"/>
      <point x="41" y="288" type="curve" smooth="yes"/>
      <point x="41" y="86"/>
      <point x="123" y="-6"/>
    </contour>
    <contour>
      <point x="293" y="623" type="curve" smooth="yes"/>
      <point x="324" y="623"/>
      <point x="342" y="637"/>
      <point x="342" y="670" type="curve" smooth="yes"/>
      <point x="342" y="702"/>
      <point x="324" y="715"/>
      <point x="293" y="715" type="curve" smooth="yes"/>
      <point x="262" y="715"/>
      <point x="245" y="702"/>
      <point x="245" y="670" type="curve" smooth="yes"/>
      <point x="245" y="637"/>
      <point x="262" y="623"/>
    </contour>
  </outline>
</glyph>
<glyph name="H.sc" format="1">
  <advance width="569"/>
  <outline>
    <contour>
      <point x="299" y="760" type="move" name="topUC"/>
    </contour>
    <contour>
      <point x="319" y="0" type="move" name="bottom"/>
    </contour>
    <contour>
      <point x="68" y="0" type="line"/>
      <point x="147" y="0" type="line"/>
      <point x="147" y="261" type="line"/>
      <point x="422" y="261" type="line"/>
      <point x="422" y="0" type="line"/>
      <point x="501" y="0" type="line"/>
      <point x="501" y="577" type="line"/>
      <point x="422" y="577" type="line"/>
      <point x="422" y="329" type="line"/>
      <point x="147" y="329" type="line"/>
      <point x="147" y="577" type="line"/>
      <point x="68" y="577" type="line"/>
    </contour>
  </outline>
</glyph>
<glyph name="Hbar.sc" format="1">
  <advance width="593"/>
  <outline>
    <contour>
      <point x="5" y="424" type="line"/>
      <point x="80" y="424" type="line"/>
      <point x="80" y="0" type="line"/>
      <point x="159" y="0" type="line"/>
      <point x="159" y="261" type="line"/>
      <point x="433" y="261" type="line"/>
      <point x="433" y="0" type="line"/>
      <point x="512" y="0" type="line"/>
      <point x="512" y="424" type="line"/>
      <point x="590" y="424" type="line"/>
      <point x="590" y="465" type="line"/>
      <point x="512" y="465" type="line"/>
      <point x="512" y="577" type="line"/>
      <point x="433" y="577" type="line"/>
      <point x="433" y="465" type="line"/>
      <point x="159" y="465" type="line"/>
      <point x="159" y="577" type="line"/>
      <point x="80" y="577" type="line"/>
      <point x="80" y="465" type="line"/>
      <point x="5" y="465" type="line"/>
    </contour>
    <contour>
      <point x="159" y="329" type="line"/>
      <point x="159" y="424" type="line"/>
      <point x="433" y="424" type="line"/>
      <point x="433" y="329" type="line"/>
    </contour>
  </outline>
</glyph>
<glyph name="Hdotbelow.sc" format="1">
  <advance width="569"/>
  <outline>
    <contour>
      <point x="68" y="0" type="line"/>
      <point x="147" y="0" type="line"/>
      <point x="147" y="261" type="line"/>
      <point x="422" y="261" type="line"/>
      <point x="422" y="0" type="line"/>
      <point x="501" y="0" type="line"/>
      <point x="501" y="577" type="line"/>
      <point x="422" y="577" type="line"/>
      <point x="422" y="329" type="line"/>
      <point x="147" y="329" type="line"/>
      <point x="147" y="577" type="line"/>
      <point x="68" y="577" type="line"/>
    </contour>
    <contour>
      <point x="289" y="-144" type="curve" smooth="yes"/>
      <point x="317" y="-144"/>
      <point x="333" y="-133"/>
      <point x="333" y="-104" type="curve" smooth="yes"/>
      <point x="333" y="-74"/>
      <point x="317" y="-62"/>
      <point x="289" y="-62" type="curve" smooth="yes"/>
      <point x="260" y="-62"/>
      <point x="245" y="-74"/>
      <point x="245" y="-104" type="curve" smooth="yes"/>
      <point x="245" y="-133"/>
      <point x="260" y="-144"/>
    </contour>
  </outline>
</glyph>
<glyph name="Iacute.sc" format="1">
  <advance width="215"/>
  <outline>
    <contour>
      <point x="68" y="0" type="line"/>
      <point x="147" y="0" type="line"/>
      <point x="147" y="577" type="line"/>
      <point x="68" y="577" type="line"/>
    </contour>
    <contour>
      <point x="135" y="615" type="line"/>
      <point x="220" y="736" type="line"/>
      <point x="140" y="736" type="line"/>
      <point x="76" y="619" type="line"/>
    </contour>
  </outline>
</glyph>
<glyph name="Ibreve.sc" format="1">
  <advance width="215"/>
  <outline>
    <contour>
      <point x="68" y="0" type="line"/>
      <point x="147" y="0" type="line"/>
      <point x="147" y="577" type="line"/>
      <point x="68" y="577" type="line"/>
    </contour>
    <contour>
      <point x="111" y="628" type="curve" smooth="yes"/>
      <point x="196" y="628"/>
      <point x="245" y="674"/>
      <point x="245" y="749" type="curve"/>
      <point x="187" y="749" type="line"/>
      <point x="187" y="697"/>
      <point x="161" y="672"/>
      <point x="111" y="672" type="curve" smooth="yes"/>
      <point x="59" y="672"/>
      <point x="33" y="697"/>
      <point x="33" y="749" type="curve"/>
      <point x="-25" y="749" type="line"/>
      <point x="-25" y="674"/>
      <point x="23" y="628"/>
    </contour>
  </outline>
</glyph>
<glyph name="Idieresis.sc" format="1">
  <advance width="215"/>
  <outline>
    <contour>
      <point x="68" y="0" type="line"/>
      <point x="147" y="0" type="line"/>
      <point x="147" y="577" type="line"/>
      <point x="68" y="577" type="line"/>
    </contour>
    <contour>
      <point x="21" y="630" type="curve" smooth="yes"/>
      <point x="52" y="630"/>
      <point x="69" y="644"/>
      <point x="69" y="676" type="curve" smooth="yes"/>
      <point x="69" y="708"/>
      <point x="52" y="722"/>
      <point x="21" y="722" type="curve" smooth="yes"/>
      <point x="-10" y="722"/>
      <point x="-27" y="709"/>
      <point x="-27" y="676" type="curve" smooth="yes"/>
      <point x="-27" y="644"/>
      <point x="-10" y="630"/>
    </contour>
    <contour>
      <point x="198" y="630" type="curve" smooth="yes"/>
      <point x="229" y="630"/>
      <point x="247" y="644"/>
      <point x="247" y="676" type="curve" smooth="yes"/>
      <point x="247" y="708"/>
      <point x="229" y="722"/>
      <point x="198" y="722" type="curve" smooth="yes"/>
      <point x="167" y="722"/>
      <point x="150" y="709"/>
      <point x="150" y="676" type="curve" smooth="yes"/>
      <point x="150" y="644"/>
      <point x="167" y="630"/>
    </contour>
  </outline>
</glyph>
<glyph name="Idotbelow.sc" format="1">
  <advance width="215"/>
  <outline>
    <contour>
      <point x="68" y="0" type="line"/>
      <point x="147" y="0" type="line"/>
      <point x="147" y="577" type="line"/>
      <point x="68" y="577" type="line"/>
    </contour>
    <contour>
      <point x="109" y="-144" type="curve" smooth="yes"/>
      <point x="137" y="-144"/>
      <point x="154" y="-133"/>
      <point x="154" y="-104" type="curve" smooth="yes"/>
      <point x="154" y="-74"/>
      <point x="137" y="-62"/>
      <point x="109" y="-62" type="curve" smooth="yes"/>
      <point x="80" y="-62"/>
      <point x="66" y="-74"/>
      <point x="66" y="-104" type="curve" smooth="yes"/>
      <point x="66" y="-133"/>
      <point x="80" y="-144"/>
    </contour>
  </outline>
</glyph>
<glyph name="Igrave.sc" format="1">
  <advance width="216"/>
  <outline>
    <contour>
      <point x="68" y="0" type="line"/>
      <point x="148" y="0" type="line"/>
      <point x="148" y="577" type="line"/>
      <point x="68" y="577" type="line"/>
    </contour>
    <contour>
      <point x="137" y="624" type="line"/>
      <point x="73" y="736" type="line"/>
      <point x="-8" y="736" type="line"/>
      <point x="77" y="615" type="line"/>
    </contour>
  </outline>
</glyph>
<glyph name="Iinvertedbreve.sc" format="1">
  <advance width="215"/>
  <outline>
    <contour>
      <point x="68" y="0" type="line"/>
      <point x="147" y="0" type="line"/>
      <point x="147" y="577" type="line"/>
      <point x="68" y="577" type="line"/>
    </contour>
    <contour>
      <point x="245" y="636" type="line"/>
      <point x="245" y="711"/>
      <point x="196" y="756"/>
      <point x="110" y="756" type="curve" smooth="yes"/>
      <point x="23" y="756"/>
      <point x="-25" y="711"/>
      <point x="-25" y="636" type="curve"/>
      <point x="33" y="636" type="line"/>
      <point x="33" y="688"/>
      <point x="58" y="713"/>
      <point x="110" y="713" type="curve" smooth="yes"/>
      <point x="161" y="713"/>
      <point x="187" y="688"/>
      <point x="187" y="636" type="curve"/>
    </contour>
  </outline>
</glyph>
<glyph name="Imacron.sc" format="1">
  <advance width="215"/>
  <outline>
    <contour>
      <point x="68" y="0" type="line"/>
      <point x="147" y="0" type="line"/>
      <point x="147" y="577" type="line"/>
      <point x="68" y="577" type="line"/>
    </contour>
    <contour>
      <point x="-9" y="655" type="line"/>
      <point x="217" y="655" type="line"/>
      <point x="217" y="711" type="line"/>
      <point x="-9" y="711" type="line"/>
    </contour>
  </outline>
</glyph>
<glyph name="Itilde.sc" format="1">
  <advance width="215"/>
  <outline>
    <contour>
      <point x="68" y="0" type="line"/>
      <point x="147" y="0" type="line"/>
      <point x="147" y="577" type="line"/>
      <point x="68" y="577" type="line"/>
    </contour>
    <contour>
      <point x="-10" y="640" type="line"/>
      <point x="8" y="660"/>
      <point x="29" y="671"/>
      <point x="49" y="671" type="curve" smooth="yes"/>
      <point x="90" y="671"/>
      <point x="121" y="638"/>
      <point x="166" y="638" type="curve" smooth="yes"/>
      <point x="200" y="638"/>
      <point x="236" y="663"/>
      <point x="257" y="706" type="curve"/>
      <point x="235" y="723" type="line"/>
      <point x="219" y="702"/>
      <point x="200" y="692"/>
      <point x="181" y="692" type="curve" smooth="yes"/>
      <point x="139" y="692"/>
      <point x="109" y="724"/>
      <point x="64" y="724" type="curve" smooth="yes"/>
      <point x="30" y="724"/>
      <point x="-6" y="698"/>
      <point x="-30" y="659" type="curve"/>
    </contour>
  </outline>
</glyph>
<glyph name="Jcircumflex.sc" format="1">
  <advance width="216"/>
  <outline>
    <contour>
      <point x="51" y="-149" type="line"/>
      <point x="122" y="-44"/>
      <point x="149" y="39"/>
      <point x="149" y="140" type="curve" smooth="yes"/>
      <point x="149" y="577" type="line"/>
      <point x="70" y="577" type="line"/>
      <point x="70" y="146" type="line" smooth="yes"/>
      <point x="70" y="41"/>
      <point x="56" y="-15"/>
      <point x="1" y="-124" type="curve"/>
    </contour>
    <contour>
      <point x="-13" y="628" type="line"/>
      <point x="109" y="684" type="line"/>
      <point x="230" y="628" type="line"/>
      <point x="230" y="687" type="line"/>
      <point x="109" y="743" type="line"/>
      <point x="-13" y="687" type="line"/>
    </contour>
  </outline>
</glyph>
<glyph name="Kcommaaccent.sc" format="1">
  <advance width="513"/>
  <outline>
    <contour>
      <point x="68" y="0" type="line"/>
      <point x="147" y="0" type="line"/>
      <point x="147" y="260" type="line"/>
      <point x="223" y="260" type="line"/>
      <point x="419" y="0" type="line"/>
      <point x="507" y="0" type="line"/>
      <point x="307" y="273" type="line"/>
      <point x="270" y="292" type="line"/>
      <point x="270" y="296" type="line"/>
      <point x="306" y="317" type="line"/>
      <point x="491" y="577" type="line"/>
      <point x="400" y="577" type="line"/>
      <point x="221" y="328" type="line"/>
      <point x="147" y="328" type="line"/>
      <point x="147" y="577" type="line"/>
      <point x="68" y="577" type="line"/>
    </contour>
    <contour>
      <point x="187" y="-172" type="line"/>
      <point x="250" y="-172" type="line"/>
      <point x="308" y="-53" type="line"/>
      <point x="228" y="-53" type="line"/>
    </contour>
  </outline>
</glyph>
<glyph name="Lcaron.sc" format="1">
  <advance width="393"/>
  <outline>
    <contour>
      <point x="69" y="0" type="line"/>
      <point x="366" y="0" type="line"/>
      <point x="366" y="68" type="line"/>
      <point x="147" y="68" type="line"/>
      <point x="147" y="577" type="line"/>
      <point x="69" y="577" type="line"/>
    </contour>
    <contour>
      <point x="299" y="422" type="line"/>
      <point x="338" y="422" type="line"/>
      <point x="364" y="599" type="line"/>
      <point x="299" y="599" type="line"/>
    </contour>
  </outline>
</glyph>
<glyph name="Ldot.sc" format="1">
  <advance width="387"/>
  <outline>
    <contour>
      <point x="68" y="0" type="line"/>
      <point x="366" y="0" type="line"/>
      <point x="366" y="68" type="line"/>
      <point x="147" y="68" type="line"/>
      <point x="147" y="577" type="line"/>
      <point x="68" y="577" type="line"/>
    </contour>
    <contour>
      <point x="294" y="243" type="curve" smooth="yes"/>
      <point x="325" y="243"/>
      <point x="343" y="257"/>
      <point x="343" y="290" type="curve" smooth="yes"/>
      <point x="343" y="322"/>
      <point x="325" y="335"/>
      <point x="294" y="335" type="curve" smooth="yes"/>
      <point x="262" y="335"/>
      <point x="247" y="321"/>
      <point x="247" y="290" type="curve" smooth="yes"/>
      <point x="247" y="257"/>
      <point x="262" y="243"/>
    </contour>
  </outline>
</glyph>
<glyph name="N.sc" format="1">
  <advance width="589"/>
  <outline>
    <contour>
      <point x="338" y="760" type="move" name="topUC"/>
    </contour>
    <contour>
      <point x="353" y="0" type="move" name="bottom"/>
    </contour>
    <contour>
      <point x="68" y="0" type="line"/>
      <point x="140" y="0" type="line"/>
      <point x="140" y="448" type="line"/>
      <point x="146" y="448" type="line"/>
      <point x="188" y="382" type="line"/>
      <point x="451" y="0" type="line"/>
      <point x="521" y="0" type="line"/>
      <point x="521" y="577" type="line"/>
      <point x="449" y="577" type="line"/>
      <point x="449" y="130" type="line"/>
      <point x="444" y="129" type="line"/>
      <point x="403" y="195" type="line"/>
      <point x="139" y="577" type="line"/>
      <point x="68" y="577" type="line"/>
    </contour>
  </outline>
</glyph>
<glyph name="Ncommaaccent.sc" format="1">
  <advance width="589"/>
  <outline>
    <contour>
      <point x="68" y="0" type="line"/>
      <point x="140" y="0" type="line"/>
      <point x="140" y="448" type="line"/>
      <point x="146" y="448" type="line"/>
      <point x="188" y="382" type="line"/>
      <point x="451" y="0" type="line"/>
      <point x="521" y="0" type="line"/>
      <point x="521" y="577" type="line"/>
      <point x="449" y="577" type="line"/>
      <point x="449" y="130" type="line"/>
      <point x="444" y="129" type="line"/>
      <point x="403" y="195" type="line"/>
      <point x="139" y="577" type="line"/>
      <point x="68" y="577" type="line"/>
    </contour>
    <contour>
      <point x="235" y="-172" type="line"/>
      <point x="299" y="-172" type="line"/>
      <point x="356" y="-53" type="line"/>
      <point x="277" y="-53" type="line"/>
    </contour>
  </outline>
</glyph>
<glyph name="Ndotaccent.sc" format="1">
  <advance width="589"/>
  <outline>
    <contour>
      <point x="68" y="0" type="line"/>
      <point x="140" y="0" type="line"/>
      <point x="140" y="448" type="line"/>
      <point x="146" y="448" type="line"/>
      <point x="188" y="382" type="line"/>
      <point x="451" y="0" type="line"/>
      <point x="521" y="0" type="line"/>
      <point x="521" y="577" type="line"/>
      <point x="449" y="577" type="line"/>
      <point x="449" y="130" type="line"/>
      <point x="444" y="129" type="line"/>
      <point x="403" y="195" type="line"/>
      <point x="139" y="577" type="line"/>
      <point x="68" y="577" type="line"/>
    </contour>
    <contour>
      <point x="295" y="623" type="curve" smooth="yes"/>
      <point x="326" y="623"/>
      <point x="343" y="637"/>
      <point x="343" y="670" type="curve" smooth="yes"/>
      <point x="343" y="702"/>
      <point x="326" y="715"/>
      <point x="295" y="715" type="curve" smooth="yes"/>
      <point x="264" y="715"/>
      <point x="247" y="702"/>
      <point x="247" y="670" type="curve" smooth="yes"/>
      <point x="247" y="637"/>
      <point x="264" y="623"/>
    </contour>
  </outline>
</glyph>
<glyph name="Ntilde.sc" format="1">
  <advance width="589"/>
  <outline>
    <contour>
      <point x="176" y="640" type="line"/>
      <point x="194" y="660"/>
      <point x="214" y="671"/>
      <point x="235" y="671" type="curve" smooth="yes"/>
      <point x="276" y="671"/>
      <point x="307" y="638"/>
      <point x="352" y="638" type="curve" smooth="yes"/>
      <point x="386" y="638"/>
      <point x="422" y="663"/>
      <point x="443" y="706" type="curve"/>
      <point x="421" y="723" type="line"/>
      <point x="405" y="702"/>
      <point x="386" y="692"/>
      <point x="367" y="692" type="curve" smooth="yes"/>
      <point x="325" y="692"/>
      <point x="295" y="724"/>
      <point x="250" y="724" type="curve" smooth="yes"/>
      <point x="216" y="724"/>
      <point x="179" y="698"/>
      <point x="156" y="659" type="curve"/>
    </contour>
    <contour>
      <point x="68" y="0" type="line"/>
      <point x="140" y="0" type="line"/>
      <point x="140" y="448" type="line"/>
      <point x="146" y="448" type="line"/>
      <point x="188" y="382" type="line"/>
      <point x="451" y="0" type="line"/>
      <point x="521" y="0" type="line"/>
      <point x="521" y="577" type="line"/>
      <point x="449" y="577" type="line"/>
      <point x="449" y="130" type="line"/>
      <point x="444" y="129" type="line"/>
      <point x="403" y="195" type="line"/>
      <point x="139" y="577" type="line"/>
      <point x="68" y="577" type="line"/>
    </contour>
  </outline>
</glyph>
<glyph name="OE.sc" format="1">
  <advance width="726"/>
  <outline>
    <contour>
      <point x="283" y="-4" type="curve" smooth="yes"/>
      <point x="308" y="-4"/>
      <point x="341" y="-3"/>
      <point x="362" y="0" type="curve"/>
      <point x="688" y="0" type="line"/>
      <point x="688" y="67" type="line"/>
      <point x="439" y="67" type="line"/>
      <point x="439" y="259" type="line"/>
      <point x="659" y="259" type="line"/>
      <point x="659" y="324" type="line"/>
      <point x="439" y="324" type="line"/>
      <point x="439" y="511" type="line"/>
      <point x="680" y="511" type="line"/>
      <point x="680" y="577" type="line"/>
      <point x="362" y="577" type="line"/>
      <point x="341" y="579"/>
      <point x="308" y="581"/>
      <point x="283" y="581" type="curve" smooth="yes"/>
      <point x="125" y="581"/>
      <point x="41" y="484"/>
      <point x="41" y="288" type="curve" smooth="yes"/>
      <point x="41" y="93"/>
      <point x="125" y="-4"/>
    </contour>
    <contour>
      <point x="291" y="63" type="curve" smooth="yes"/>
      <point x="167" y="63"/>
      <point x="120" y="128"/>
      <point x="120" y="288" type="curve" smooth="yes"/>
      <point x="120" y="447"/>
      <point x="168" y="513"/>
      <point x="290" y="513" type="curve" smooth="yes"/>
      <point x="311" y="513"/>
      <point x="339" y="512"/>
      <point x="360" y="509" type="curve"/>
      <point x="360" y="68" type="line"/>
      <point x="340" y="64"/>
      <point x="311" y="63"/>
    </contour>
  </outline>
</glyph>
<glyph name="Obreve.sc" format="1">
  <advance width="556"/>
  <outline>
    <contour>
      <point x="278" y="-8" type="curve" smooth="yes"/>
      <point x="437" y="-8"/>
      <point x="515" y="90"/>
      <point x="515" y="288" type="curve" smooth="yes"/>
      <point x="515" y="488"/>
      <point x="437" y="585"/>
      <point x="278" y="585" type="curve" smooth="yes"/>
      <point x="119" y="585"/>
      <point x="41" y="487"/>
      <point x="41" y="288" type="curve" smooth="yes"/>
      <point x="41" y="90"/>
      <point x="119" y="-8"/>
    </contour>
    <contour>
      <point x="278" y="60" type="curve" smooth="yes"/>
      <point x="167" y="60"/>
      <point x="121" y="125"/>
      <point x="121" y="288" type="curve" smooth="yes"/>
      <point x="121" y="452"/>
      <point x="168" y="518"/>
      <point x="278" y="518" type="curve" smooth="yes"/>
      <point x="387" y="518"/>
      <point x="435" y="450"/>
      <point x="435" y="288" type="curve" smooth="yes"/>
      <point x="435" y="126"/>
      <point x="388" y="60"/>
    </contour>
    <contour>
      <point x="279" y="628" type="curve" smooth="yes"/>
      <point x="365" y="628"/>
      <point x="414" y="674"/>
      <point x="414" y="749" type="curve"/>
      <point x="356" y="749" type="line"/>
      <point x="356" y="697"/>
      <point x="330" y="672"/>
      <point x="279" y="672" type="curve" smooth="yes"/>
      <point x="227" y="672"/>
      <point x="202" y="697"/>
      <point x="202" y="749" type="curve"/>
      <point x="144" y="749" type="line"/>
      <point x="144" y="674"/>
      <point x="193" y="628"/>
    </contour>
  </outline>
</glyph>
<glyph name="Odieresis.sc" format="1">
  <advance width="556"/>
  <outline>
    <contour>
      <point x="278" y="-8" type="curve" smooth="yes"/>
      <point x="437" y="-8"/>
      <point x="515" y="90"/>
      <point x="515" y="288" type="curve" smooth="yes"/>
      <point x="515" y="488"/>
      <point x="437" y="585"/>
      <point x="278" y="585" type="curve" smooth="yes"/>
      <point x="119" y="585"/>
      <point x="41" y="487"/>
      <point x="41" y="288" type="curve" smooth="yes"/>
      <point x="41" y="90"/>
      <point x="119" y="-8"/>
    </contour>
    <contour>
      <point x="278" y="60" type="curve" smooth="yes"/>
      <point x="167" y="60"/>
      <point x="121" y="125"/>
      <point x="121" y="288" type="curve" smooth="yes"/>
      <point x="121" y="452"/>
      <point x="168" y="518"/>
      <point x="278" y="518" type="curve" smooth="yes"/>
      <point x="387" y="518"/>
      <point x="435" y="450"/>
      <point x="435" y="288" type="curve" smooth="yes"/>
      <point x="435" y="126"/>
      <point x="388" y="60"/>
    </contour>
    <contour>
      <point x="189" y="630" type="curve" smooth="yes"/>
      <point x="220" y="630"/>
      <point x="238" y="644"/>
      <point x="238" y="676" type="curve" smooth="yes"/>
      <point x="238" y="708"/>
      <point x="220" y="722"/>
      <point x="189" y="722" type="curve" smooth="yes"/>
      <point x="158" y="722"/>
      <point x="141" y="709"/>
      <point x="141" y="676" type="curve" smooth="yes"/>
      <point x="141" y="644"/>
      <point x="158" y="630"/>
    </contour>
    <contour>
      <point x="367" y="630" type="curve" smooth="yes"/>
      <point x="397" y="630"/>
      <point x="415" y="644"/>
      <point x="415" y="676" type="curve" smooth="yes"/>
      <point x="415" y="708"/>
      <point x="397" y="722"/>
      <point x="367" y="722" type="curve" smooth="yes"/>
      <point x="335" y="722"/>
      <point x="319" y="709"/>
      <point x="319" y="676" type="curve" smooth="yes"/>
      <point x="319" y="644"/>
      <point x="335" y="630"/>
    </contour>
  </outline>
</glyph>
<glyph name="Ograve.sc" format="1">
  <advance width="556"/>
  <outline>
    <contour>
      <point x="278" y="-8" type="curve" smooth="yes"/>
      <point x="437" y="-8"/>
      <point x="515" y="90"/>
      <point x="515" y="288" type="curve" smooth="yes"/>
      <point x="515" y="488"/>
      <point x="437" y="585"/>
      <point x="278" y="585" type="curve" smooth="yes"/>
      <point x="119" y="585"/>
      <point x="41" y="487"/>
      <point x="41" y="288" type="curve" smooth="yes"/>
      <point x="41" y="90"/>
      <point x="119" y="-8"/>
    </contour>
    <contour>
      <point x="278" y="60" type="curve" smooth="yes"/>
      <point x="167" y="60"/>
      <point x="121" y="125"/>
      <point x="121" y="288" type="curve" smooth="yes"/>
      <point x="121" y="452"/>
      <point x="168" y="518"/>
      <point x="278" y="518" type="curve" smooth="yes"/>
      <point x="387" y="518"/>
      <point x="435" y="450"/>
      <point x="435" y="288" type="curve" smooth="yes"/>
      <point x="435" y="126"/>
      <point x="388" y="60"/>
    </contour>
    <contour>
      <point x="305" y="624" type="line"/>
      <point x="241" y="736" type="line"/>
      <point x="160" y="736" type="line"/>
      <point x="245" y="615" type="line"/>
    </contour>
  </outline>
</glyph>
<glyph name="Oogonek.sc" format="1">
  <advance width="556"/>
  <outline>
    <contour>
      <point x="270" y="-168" type="curve" smooth="yes"/>
      <point x="289" y="-168"/>
      <point x="306" y="-165"/>
      <point x="324" y="-159" type="curve"/>
      <point x="324" y="-110" type="line"/>
      <point x="310" y="-115"/>
      <point x="293" y="-119"/>
      <point x="277" y="-119" type="curve" smooth="yes"/>
      <point x="252" y="-119"/>
      <point x="239" y="-110"/>
      <point x="239" y="-91" type="curve" smooth="yes"/>
      <point x="239" y="-63"/>
      <point x="265" y="-30"/>
      <point x="316" y="-6" type="curve"/>
      <point x="448" y="8"/>
      <point x="515" y="105"/>
      <point x="515" y="288" type="curve" smooth="yes"/>
      <point x="515" y="488"/>
      <point x="437" y="585"/>
      <point x="278" y="585" type="curve" smooth="yes"/>
      <point x="119" y="585"/>
      <point x="41" y="487"/>
      <point x="41" y="288" type="curve" smooth="yes"/>
      <point x="41" y="103"/>
      <point x="108" y="6"/>
      <point x="244" y="-6" type="curve"/>
      <point x="203" y="-34"/>
      <point x="184" y="-63"/>
      <point x="184" y="-98" type="curve" smooth="yes"/>
      <point x="184" y="-144"/>
      <point x="214" y="-168"/>
    </contour>
    <contour>
      <point x="278" y="60" type="curve" smooth="yes"/>
      <point x="167" y="60"/>
      <point x="121" y="125"/>
      <point x="121" y="288" type="curve" smooth="yes"/>
      <point x="121" y="452"/>
      <point x="168" y="518"/>
      <point x="278" y="518" type="curve" smooth="yes"/>
      <point x="387" y="518"/>
      <point x="435" y="450"/>
      <point x="435" y="288" type="curve" smooth="yes"/>
      <point x="435" y="126"/>
      <point x="388" y="60"/>
    </contour>
  </outline>
</glyph>
<glyph name="Oslashacute.sc" format="1">
  <advance width="565"/>
  <outline>
    <contour>
      <point x="21" y="0" type="line"/>
      <point x="86" y="0" type="line"/>
      <point x="124" y="50" type="line"/>
      <point x="162" y="11"/>
      <point x="214" y="-8"/>
      <point x="283" y="-8" type="curve" smooth="yes"/>
      <point x="441" y="-8"/>
      <point x="520" y="90"/>
      <point x="520" y="288" type="curve" smooth="yes"/>
      <point x="520" y="374"/>
      <point x="505" y="441"/>
      <point x="476" y="490" type="curve"/>
      <point x="546" y="577" type="line"/>
      <point x="481" y="577" type="line"/>
      <point x="442" y="527" type="line"/>
      <point x="404" y="565"/>
      <point x="351" y="585"/>
      <point x="283" y="585" type="curve" smooth="yes"/>
      <point x="124" y="585"/>
      <point x="46" y="487"/>
      <point x="46" y="288" type="curve" smooth="yes"/>
      <point x="46" y="202"/>
      <point x="60" y="135"/>
      <point x="90" y="86" type="curve"/>
    </contour>
    <contour>
      <point x="283" y="60" type="curve" smooth="yes"/>
      <point x="232" y="60"/>
      <point x="196" y="74"/>
      <point x="171" y="106" type="curve"/>
      <point x="418" y="422" type="line"/>
      <point x="432" y="388"/>
      <point x="439" y="344"/>
      <point x="439" y="288" type="curve" smooth="yes"/>
      <point x="439" y="126"/>
      <point x="393" y="60"/>
    </contour>
    <contour>
      <point x="307" y="615" type="line"/>
      <point x="391" y="736" type="line"/>
      <point x="311" y="736" type="line"/>
      <point x="247" y="619" type="line"/>
    </contour>
    <contour>
      <point x="126" y="288" type="curve" smooth="yes"/>
      <point x="126" y="452"/>
      <point x="173" y="518"/>
      <point x="283" y="518" type="curve" smooth="yes"/>
      <point x="331" y="518"/>
      <point x="369" y="502"/>
      <point x="393" y="470" type="curve"/>
      <point x="146" y="153" type="line"/>
      <point x="132" y="187"/>
      <point x="126" y="231"/>
    </contour>
  </outline>
</glyph>
<glyph name="Otilde.sc" format="1">
  <advance width="556"/>
  <outline>
    <contour>
      <point x="278" y="-8" type="curve" smooth="yes"/>
      <point x="437" y="-8"/>
      <point x="515" y="90"/>
      <point x="515" y="288" type="curve" smooth="yes"/>
      <point x="515" y="488"/>
      <point x="437" y="585"/>
      <point x="278" y="585" type="curve" smooth="yes"/>
      <point x="119" y="585"/>
      <point x="41" y="487"/>
      <point x="41" y="288" type="curve" smooth="yes"/>
      <point x="41" y="90"/>
      <point x="119" y="-8"/>
    </contour>
    <contour>
      <point x="278" y="60" type="curve" smooth="yes"/>
      <point x="167" y="60"/>
      <point x="121" y="125"/>
      <point x="121" y="288" type="curve" smooth="yes"/>
      <point x="121" y="452"/>
      <point x="168" y="518"/>
      <point x="278" y="518" type="curve" smooth="yes"/>
      <point x="387" y="518"/>
      <point x="435" y="450"/>
      <point x="435" y="288" type="curve" smooth="yes"/>
      <point x="435" y="126"/>
      <point x="388" y="60"/>
    </contour>
    <contour>
      <point x="159" y="640" type="line"/>
      <point x="177" y="660"/>
      <point x="198" y="671"/>
      <point x="219" y="671" type="curve" smooth="yes"/>
      <point x="259" y="671"/>
      <point x="291" y="638"/>
      <point x="335" y="638" type="curve" smooth="yes"/>
      <point x="368" y="638"/>
      <point x="405" y="663"/>
      <point x="427" y="706" type="curve"/>
      <point x="403" y="723" type="line"/>
      <point x="388" y="702"/>
      <point x="370" y="692"/>
      <point x="349" y="692" type="curve" smooth="yes"/>
      <point x="308" y="692"/>
      <point x="277" y="724"/>
      <point x="232" y="724" type="curve" smooth="yes"/>
      <point x="199" y="724"/>
      <point x="162" y="698"/>
      <point x="139" y="659" type="curve"/>
    </contour>
  </outline>
</glyph>
<glyph name="P.sc" format="1">
  <advance width="484"/>
  <outline>
    <contour>
      <point x="68" y="0" type="line"/>
      <point x="147" y="0" type="line"/>
      <point x="147" y="188" type="line"/>
      <point x="166" y="186"/>
      <point x="189" y="186"/>
      <point x="205" y="186" type="curve" smooth="yes"/>
      <point x="378" y="186"/>
      <point x="454" y="246"/>
      <point x="454" y="385" type="curve" smooth="yes"/>
      <point x="454" y="525"/>
      <point x="379" y="586"/>
      <point x="209" y="586" type="curve" smooth="yes"/>
      <point x="165" y="586"/>
      <point x="118" y="582"/>
      <point x="68" y="573" type="curve"/>
    </contour>
    <contour>
      <point x="219" y="250" type="curve" smooth="yes"/>
      <point x="196" y="250"/>
      <point x="169" y="252"/>
      <point x="147" y="254" type="curve"/>
      <point x="147" y="515" type="line"/>
      <point x="171" y="518"/>
      <point x="200" y="521"/>
      <point x="223" y="521" type="curve" smooth="yes"/>
      <point x="331" y="521"/>
      <point x="377" y="481"/>
      <point x="377" y="385" type="curve" smooth="yes"/>
      <point x="377" y="289"/>
      <point x="330" y="250"/>
    </contour>
  </outline>
</glyph>
<glyph name="Schwa.sc" format="1">
  <advance width="517"/>
  <outline>
    <contour>
      <point x="37" y="243" type="curve" smooth="yes"/>
      <point x="37" y="75"/>
      <point x="106" y="-7"/>
      <point x="235" y="-7" type="curve" smooth="yes"/>
      <point x="393" y="-7"/>
      <point x="477" y="104"/>
      <point x="477" y="300" type="curve" smooth="yes"/>
      <point x="477" y="487"/>
      <point x="387" y="590"/>
      <point x="224" y="590" type="curve" smooth="yes"/>
      <point x="167" y="590"/>
      <point x="108" y="578"/>
      <point x="61" y="559" type="curve"/>
      <point x="62" y="545"/>
      <point x="66" y="507"/>
      <point x="66" y="493" type="curve"/>
      <point x="119" y="512"/>
      <point x="172" y="521"/>
      <point x="217" y="521" type="curve" smooth="yes"/>
      <point x="330" y="521"/>
      <point x="389" y="458"/>
      <point x="396" y="319" type="curve"/>
      <point x="42" y="319" type="line"/>
      <point x="38" y="296"/>
      <point x="37" y="273"/>
    </contour>
    <contour>
      <point x="239" y="57" type="curve" smooth="yes"/>
      <point x="151" y="57"/>
      <point x="116" y="114"/>
      <point x="115" y="261" type="curve"/>
      <point x="396" y="261" type="line"/>
      <point x="391" y="126"/>
      <point x="334" y="57"/>
    </contour>
  </outline>
</glyph>
<glyph name="T.sc" format="1">
  <advance width="436"/>
  <outline>
    <contour>
      <point x="232" y="760" type="move" name="topUC"/>
    </contour>
    <contour>
      <point x="233" y="0" type="move" name="bottom"/>
    </contour>
    <contour>
      <point x="179" y="0" type="line"/>
      <point x="257" y="0" type="line"/>
      <point x="257" y="508" type="line"/>
      <point x="419" y="508" type="line"/>
      <point x="419" y="577" type="line"/>
      <point x="17" y="577" type="line"/>
      <point x="17" y="508" type="line"/>
      <point x="179" y="508" type="line"/>
    </contour>
  </outline>
</glyph>
<glyph name="Tcaron.sc" format="1">
  <advance width="436"/>
  <outline>
    <contour>
      <point x="179" y="0" type="line"/>
      <point x="257" y="0" type="line"/>
      <point x="257" y="508" type="line"/>
      <point x="419" y="508" type="line"/>
      <point x="419" y="577" type="line"/>
      <point x="17" y="577" type="line"/>
      <point x="17" y="508" type="line"/>
      <point x="179" y="508" type="line"/>
    </contour>
    <contour>
      <point x="101" y="676" type="line"/>
      <point x="223" y="619" type="line"/>
      <point x="344" y="676" type="line"/>
      <point x="344" y="735" type="line"/>
      <point x="222" y="679" type="line"/>
      <point x="101" y="735" type="line"/>
    </contour>
  </outline>
</glyph>
<glyph name="Ucircumflex.sc" format="1">
  <advance width="571"/>
  <outline>
    <contour>
      <point x="286" y="-8" type="curve" smooth="yes"/>
      <point x="446" y="-8"/>
      <point x="508" y="65"/>
      <point x="508" y="225" type="curve" smooth="yes"/>
      <point x="508" y="577" type="line"/>
      <point x="429" y="577" type="line"/>
      <point x="429" y="228" type="line" smooth="yes"/>
      <point x="429" y="109"/>
      <point x="388" y="61"/>
      <point x="286" y="61" type="curve" smooth="yes"/>
      <point x="185" y="61"/>
      <point x="142" y="110"/>
      <point x="142" y="228" type="curve" smooth="yes"/>
      <point x="142" y="577" type="line"/>
      <point x="63" y="577" type="line"/>
      <point x="63" y="225" type="line" smooth="yes"/>
      <point x="63" y="65"/>
      <point x="126" y="-8"/>
    </contour>
    <contour>
      <point x="162" y="628" type="line"/>
      <point x="283" y="684" type="line"/>
      <point x="405" y="628" type="line"/>
      <point x="405" y="687" type="line"/>
      <point x="284" y="743" type="line"/>
      <point x="162" y="687" type="line"/>
    </contour>
  </outline>
</glyph>
<glyph name="Ugrave.sc" format="1">
  <advance width="571"/>
  <outline>
    <contour>
      <point x="286" y="-8" type="curve" smooth="yes"/>
      <point x="446" y="-8"/>
      <point x="508" y="65"/>
      <point x="508" y="225" type="curve" smooth="yes"/>
      <point x="508" y="577" type="line"/>
      <point x="429" y="577" type="line"/>
      <point x="429" y="228" type="line" smooth="yes"/>
      <point x="429" y="109"/>
      <point x="388" y="61"/>
      <point x="286" y="61" type="curve" smooth="yes"/>
      <point x="185" y="61"/>
      <point x="142" y="110"/>
      <point x="142" y="228" type="curve" smooth="yes"/>
      <point x="142" y="577" type="line"/>
      <point x="63" y="577" type="line"/>
      <point x="63" y="225" type="line" smooth="yes"/>
      <point x="63" y="65"/>
      <point x="126" y="-8"/>
    </contour>
    <contour>
      <point x="310" y="624" type="line"/>
      <point x="246" y="736" type="line"/>
      <point x="166" y="736" type="line"/>
      <point x="251" y="615" type="line"/>
    </contour>
  </outline>
</glyph>
<glyph name="Umacron.sc" format="1">
  <advance width="571"/>
  <outline>
    <contour>
      <point x="286" y="-8" type="curve" smooth="yes"/>
      <point x="446" y="-8"/>
      <point x="508" y="65"/>
      <point x="508" y="225" type="curve" smooth="yes"/>
      <point x="508" y="577" type="line"/>
      <point x="429" y="577" type="line"/>
      <point x="429" y="228" type="line" smooth="yes"/>
      <point x="429" y="109"/>
      <point x="388" y="61"/>
      <point x="286" y="61" type="curve" smooth="yes"/>
      <point x="185" y="61"/>
      <point x="142" y="110"/>
      <point x="142" y="228" type="curve" smooth="yes"/>
      <point x="142" y="577" type="line"/>
      <point x="63" y="577" type="line"/>
      <point x="63" y="225" type="line" smooth="yes"/>
      <point x="63" y="65"/>
      <point x="126" y="-8"/>
    </contour>
    <contour>
      <point x="165" y="655" type="line"/>
      <point x="391" y="655" type="line"/>
      <point x="391" y="711" type="line"/>
      <point x="165" y="711" type="line"/>
    </contour>
  </outline>
</glyph>
<glyph name="Utilde.sc" format="1">
  <advance width="571"/>
  <outline>
    <contour>
      <point x="286" y="-8" type="curve" smooth="yes"/>
      <point x="446" y="-8"/>
      <point x="508" y="65"/>
      <point x="508" y="225" type="curve" smooth="yes"/>
      <point x="508" y="577" type="line"/>
      <point x="429" y="577" type="line"/>
      <point x="429" y="228" type="line" smooth="yes"/>
      <point x="429" y="109"/>
      <point x="388" y="61"/>
      <point x="286" y="61" type="curve" smooth="yes"/>
      <point x="185" y="61"/>
      <point x="142" y="110"/>
      <point x="142" y="228" type="curve" smooth="yes"/>
      <point x="142" y="577" type="line"/>
      <point x="63" y="577" type="line"/>
      <point x="63" y="225" type="line" smooth="yes"/>
      <point x="63" y="65"/>
      <point x="126" y="-8"/>
    </contour>
    <contour>
      <point x="165" y="640" type="line"/>
      <point x="183" y="660"/>
      <point x="203" y="671"/>
      <point x="224" y="671" type="curve" smooth="yes"/>
      <point x="265" y="671"/>
      <point x="296" y="638"/>
      <point x="340" y="638" type="curve" smooth="yes"/>
      <point x="374" y="638"/>
      <point x="411" y="663"/>
      <point x="432" y="706" type="curve"/>
      <point x="409" y="723" type="line"/>
      <point x="393" y="702"/>
      <point x="375" y="692"/>
      <point x="355" y="692" type="curve" smooth="yes"/>
      <point x="313" y="692"/>
      <point x="283" y="724"/>
      <point x="238" y="724" type="curve" smooth="yes"/>
      <point x="205" y="724"/>
      <point x="168" y="698"/>
      <point x="144" y="659" type="curve"/>
    </contour>
  </outline>
</glyph>
<glyph name="Wdieresis.sc" format="1">
  <advance width="784"/>
  <outline>
    <contour>
      <point x="169" y="0" type="line"/>
      <point x="265" y="0" type="line"/>
      <point x="370" y="372" type="line"/>
      <point x="391" y="465" type="line"/>
      <point x="397" y="465" type="line"/>
      <point x="416" y="372" type="line"/>
      <point x="515" y="0" type="line"/>
      <point x="611" y="0" type="line"/>
      <point x="771" y="577" type="line"/>
      <point x="685" y="577" type="line"/>
      <point x="587" y="189" type="line"/>
      <point x="564" y="95" type="line"/>
      <point x="557" y="95" type="line"/>
      <point x="535" y="189" type="line"/>
      <point x="435" y="577" type="line"/>
      <point x="354" y="577" type="line"/>
      <point x="247" y="189" type="line"/>
      <point x="224" y="95" type="line"/>
      <point x="217" y="95" type="line"/>
      <point x="196" y="189" type="line"/>
      <point x="105" y="577" type="line"/>
      <point x="17" y="577" type="line"/>
    </contour>
    <contour>
      <point x="304" y="630" type="curve" smooth="yes"/>
      <point x="335" y="630"/>
      <point x="352" y="644"/>
      <point x="352" y="676" type="curve" smooth="yes"/>
      <point x="352" y="708"/>
      <point x="335" y="722"/>
      <point x="304" y="722" type="curve" smooth="yes"/>
      <point x="273" y="722"/>
      <point x="256" y="709"/>
      <point x="256" y="676" type="curve" smooth="yes"/>
      <point x="256" y="644"/>
      <point x="273" y="630"/>
    </contour>
    <contour>
      <point x="481" y="630" type="curve" smooth="yes"/>
      <point x="512" y="630"/>
      <point x="530" y="644"/>
      <point x="530" y="676" type="curve" smooth="yes"/>
      <point x="530" y="708"/>
      <point x="512" y="722"/>
      <point x="481" y="722" type="curve" smooth="yes"/>
      <point x="450" y="722"/>
      <point x="433" y="709"/>
      <point x="433" y="676" type="curve" smooth="yes"/>
      <point x="433" y="644"/>
      <point x="450" y="630"/>
    </contour>
  </outline>
</glyph>
<glyph name="Ytilde.sc" format="1">
  <advance width="501"/>
  <outline>
    <contour>
      <point x="212" y="0" type="line"/>
      <point x="291" y="0" type="line"/>
      <point x="291" y="196" type="line"/>
      <point x="496" y="577" type="line"/>
      <point x="409" y="577" type="line"/>
      <point x="271" y="320" type="line"/>
      <point x="254" y="274" type="line"/>
      <point x="248" y="274" type="line"/>
      <point x="231" y="320" type="line"/>
      <point x="93" y="577" type="line"/>
      <point x="5" y="577" type="line"/>
      <point x="212" y="195" type="line"/>
    </contour>
    <contour>
      <point x="134" y="640" type="line"/>
      <point x="152" y="660"/>
      <point x="172" y="671"/>
      <point x="194" y="671" type="curve" smooth="yes"/>
      <point x="234" y="671"/>
      <point x="265" y="638"/>
      <point x="310" y="638" type="curve" smooth="yes"/>
      <point x="343" y="638"/>
      <point x="380" y="663"/>
      <point x="401" y="706" type="curve"/>
      <point x="378" y="723" type="line"/>
      <point x="363" y="702"/>
      <point x="345" y="692"/>
      <point x="324" y="692" type="curve" smooth="yes"/>
      <point x="283" y="692"/>
      <point x="252" y="724"/>
      <point x="207" y="724" type="curve" smooth="yes"/>
      <point x="174" y="724"/>
      <point x="137" y="698"/>
      <point x="114" y="659" type="curve"/>
    </contour>
  </outline>
</glyph>
<glyph name="Zacute.sc" format="1">
  <advance width="441"/>
  <outline>
    <contour>
      <point x="31" y="0" type="line"/>
      <point x="411" y="0" type="line"/>
      <point x="411" y="68" type="line"/>
      <point x="123" y="68" type="line"/>
      <point x="123" y="73" type="line"/>
      <point x="403" y="510" type="line"/>
      <point x="403" y="577" type="line"/>
      <point x="39" y="577" type="line"/>
      <point x="39" y="509" type="line"/>
      <point x="311" y="509" type="line"/>
      <point x="311" y="504" type="line"/>
      <point x="31" y="68" type="line"/>
    </contour>
    <contour>
      <point x="252" y="615" type="line"/>
      <point x="337" y="736" type="line"/>
      <point x="257" y="736" type="line"/>
      <point x="193" y="619" type="line"/>
    </contour>
  </outline>
</glyph>
<glyph name="Zcaron.sc" format="1">
  <advance width="441"/>
  <outline>
    <contour>
      <point x="31" y="0" type="line"/>
      <point x="411" y="0" type="line"/>
      <point x="411" y="68" type="line"/>
      <point x="123" y="68" type="line"/>
      <point x="123" y="73" type="line"/>
      <point x="403" y="510" type="line"/>
      <point x="403" y="577" type="line"/>
      <point x="39" y="577" type="line"/>
      <point x="39" y="509" type="line"/>
      <point x="311" y="509" type="line"/>
      <point x="311" y="504" type="line"/>
      <point x="31" y="68" type="line"/>
    </contour>
    <contour>
      <point x="109" y="676" type="line"/>
      <point x="231" y="619" type="line"/>
      <point x="353" y="676" type="line"/>
      <point x="353" y="735" type="line"/>
      <point x="231" y="679" type="line"/>
      <point x="109" y="735" type="line"/>
    </contour>
  </outline>
</glyph>
<glyph name="Zdotaccent.sc" format="1">
  <advance width="441"/>
  <outline>
    <contour>
      <point x="31" y="0" type="line"/>
      <point x="411" y="0" type="line"/>
      <point x="411" y="68" type="line"/>
      <point x="123" y="68" type="line"/>
      <point x="123" y="73" type="line"/>
      <point x="403" y="510" type="line"/>
      <point x="403" y="577" type="line"/>
      <point x="39" y="577" type="line"/>
      <point x="39" y="509" type="line"/>
      <point x="311" y="509" type="line"/>
      <point x="311" y="504" type="line"/>
      <point x="31" y="68" type="line"/>
    </contour>
    <contour>
      <point x="226" y="623" type="curve" smooth="yes"/>
      <point x="257" y="623"/>
      <point x="275" y="637"/>
      <point x="275" y="670" type="curve" smooth="yes"/>
      <point x="275" y="702"/>
      <point x="257" y="715"/>
      <point x="226" y="715" type="curve" smooth="yes"/>
      <point x="195" y="715"/>
      <point x="178" y="702"/>
      <point x="178" y="670" type="curve" smooth="yes"/>
      <point x="178" y="637"/>
      <point x="195" y="623"/>
    </contour>
  </outline>
</glyph>
<glyph name="Zdotbelow.sc" format="1">
  <advance width="441"/>
  <outline>
    <contour>
      <point x="31" y="0" type="line"/>
      <point x="411" y="0" type="line"/>
      <point x="411" y="68" type="line"/>
      <point x="123" y="68" type="line"/>
      <point x="123" y="73" type="line"/>
      <point x="403" y="510" type="line"/>
      <point x="403" y="577" type="line"/>
      <point x="39" y="577" type="line"/>
      <point x="39" y="509" type="line"/>
      <point x="311" y="509" type="line"/>
      <point x="311" y="504" type="line"/>
      <point x="31" y="68" type="line"/>
    </contour>
    <contour>
      <point x="221" y="-144" type="curve" smooth="yes"/>
      <point x="249" y="-144"/>
      <point x="265" y="-133"/>
      <point x="265" y="-104" type="curve" smooth="yes"/>
      <point x="265" y="-74"/>
      <point x="249" y="-62"/>
      <point x="221" y="-62" type="curve" smooth="yes"/>
      <point x="191" y="-62"/>
      <point x="177" y="-74"/>
      <point x="177" y="-104" type="curve" smooth="yes"/>
      <point x="177" y="-133"/>
      <point x="191" y="-144"/>
    </contour>
  </outline>
</glyph>
<glyph name=".notdef" format="1">
  <advance width="629"/>
  <outline>
    <contour>
      <point x="85" y="-220" type="line"/>
      <point x="543" y="-220" type="line"/>
      <point x="543" y="1030" type="line"/>
      <point x="85" y="1030" type="line"/>
    </contour>
    <contour>
      <point x="157" y="-151" type="line"/>
      <point x="157" y="962" type="line"/>
      <point x="470" y="962" type="line"/>
      <point x="470" y="-151" type="line"/>
    </contour>
  </outline>
</glyph>
<glyph name="acute.cap" format="1">
  <advance width="220"/>
  <outline>
    <contour>
      <point x="67" y="774" type="move" name="_topUC"/>
    </contour>
    <contour>
      <point x="95" y="786" type="line"/>
      <point x="191" y="933" type="line"/>
      <point x="106" y="933" type="line"/>
      <point x="32" y="791" type="line"/>
    </contour>
  </outline>
</glyph>
<glyph name="braceleft.sc" format="1">
  <advance width="313"/>
  <outline>
    <contour>
      <point x="31" y="250" type="line"/>
      <point x="73" y="250"/>
      <point x="95" y="222"/>
      <point x="95" y="171" type="curve" smooth="yes"/>
      <point x="95" y="-31" type="line" smooth="yes"/>
      <point x="95" y="-98"/>
      <point x="118" y="-119"/>
      <point x="188" y="-119" type="curve" smooth="yes"/>
      <point x="211" y="-119"/>
      <point x="269" y="-117"/>
      <point x="277" y="-116" type="curve"/>
      <point x="277" y="-65" type="line"/>
      <point x="207" y="-65" type="line" smooth="yes"/>
      <point x="171" y="-65"/>
      <point x="160" y="-55"/>
      <point x="160" y="-26" type="curve" smooth="yes"/>
      <point x="160" y="186" type="line" smooth="yes"/>
      <point x="160" y="232"/>
      <point x="137" y="269"/>
      <point x="104" y="279" type="curve"/>
      <point x="137" y="289"/>
      <point x="160" y="326"/>
      <point x="160" y="373" type="curve" smooth="yes"/>
      <point x="160" y="583" type="line" smooth="yes"/>
      <point x="160" y="612"/>
      <point x="171" y="622"/>
      <point x="207" y="622" type="curve" smooth="yes"/>
      <point x="277" y="622" type="line"/>
      <point x="277" y="673" type="line"/>
      <point x="269" y="675"/>
      <point x="211" y="677"/>
      <point x="188" y="677" type="curve" smooth="yes"/>
      <point x="118" y="677"/>
      <point x="95" y="655"/>
      <point x="95" y="589" type="curve" smooth="yes"/>
      <point x="95" y="387" type="line" smooth="yes"/>
      <point x="95" y="337"/>
      <point x="73" y="308"/>
      <point x="31" y="308" type="curve"/>
    </contour>
  </outline>
</glyph>
<glyph name="braceright.sc" format="1">
  <advance width="313"/>
  <outline>
    <contour>
      <point x="283" y="308" type="line"/>
      <point x="240" y="308"/>
      <point x="218" y="337"/>
      <point x="218" y="387" type="curve" smooth="yes"/>
      <point x="218" y="589" type="line" smooth="yes"/>
      <point x="218" y="655"/>
      <point x="195" y="677"/>
      <point x="126" y="677" type="curve" smooth="yes"/>
      <point x="103" y="677"/>
      <point x="45" y="675"/>
      <point x="36" y="673" type="curve"/>
      <point x="36" y="622" type="line"/>
      <point x="107" y="622" type="line" smooth="yes"/>
      <point x="142" y="622"/>
      <point x="153" y="612"/>
      <point x="153" y="583" type="curve" smooth="yes"/>
      <point x="153" y="373" type="line" smooth="yes"/>
      <point x="153" y="326"/>
      <point x="176" y="289"/>
      <point x="209" y="279" type="curve"/>
      <point x="176" y="269"/>
      <point x="153" y="232"/>
      <point x="153" y="186" type="curve" smooth="yes"/>
      <point x="153" y="-26" type="line" smooth="yes"/>
      <point x="153" y="-55"/>
      <point x="142" y="-65"/>
      <point x="107" y="-65" type="curve" smooth="yes"/>
      <point x="36" y="-65" type="line"/>
      <point x="36" y="-116" type="line"/>
      <point x="45" y="-117"/>
      <point x="103" y="-119"/>
      <point x="126" y="-119" type="curve" smooth="yes"/>
      <point x="195" y="-119"/>
      <point x="218" y="-98"/>
      <point x="218" y="-31" type="curve" smooth="yes"/>
      <point x="218" y="171" type="line" smooth="yes"/>
      <point x="218" y="222"/>
      <point x="240" y="250"/>
      <point x="283" y="250" type="curve"/>
    </contour>
  </outline>
</glyph>
<glyph name="caron.alt" format="1">
  <advance width="191"/>
  <outline>
    <contour>
      <point x="88" y="768" type="move" name="_caronalt"/>
    </contour>
    <contour>
      <point x="64" y="580" type="line"/>
      <point x="105" y="580" type="line"/>
      <point x="133" y="808" type="line"/>
      <point x="64" y="808" type="line"/>
    </contour>
  </outline>
</glyph>
<glyph name="caron.cap" format="1">
  <advance width="314"/>
  <outline>
    <contour>
      <point x="154" y="774" type="move" name="_topUC"/>
    </contour>
    <contour>
      <point x="24" y="867" type="line"/>
      <point x="160" y="795" type="line"/>
      <point x="296" y="867" type="line"/>
      <point x="296" y="933" type="line"/>
      <point x="160" y="861" type="line"/>
      <point x="24" y="933" type="line"/>
    </contour>
  </outline>
</glyph>
<glyph name="circumflex.cap" format="1">
  <advance width="320"/>
  <outline>
    <contour>
      <point x="160" y="774" type="move" name="_topUC"/>
    </contour>
    <contour>
      <point x="24" y="809" type="line"/>
      <point x="160" y="881" type="line"/>
      <point x="296" y="809" type="line"/>
      <point x="296" y="875" type="line"/>
      <point x="160" y="947" type="line"/>
      <point x="24" y="875" type="line"/>
    </contour>
  </outline>
</glyph>
<glyph name="colon.tab" format="1">
  <advance width="258"/>
  <outline>
    <contour>
      <point x="128" y="-3" type="curve" smooth="yes"/>
      <point x="164" y="-3"/>
      <point x="183" y="14"/>
      <point x="183" y="48" type="curve" smooth="yes"/>
      <point x="183" y="83"/>
      <point x="164" y="100"/>
      <point x="128" y="100" type="curve" smooth="yes"/>
      <point x="93" y="100"/>
      <point x="76" y="83"/>
      <point x="76" y="48" type="curve" smooth="yes"/>
      <point x="76" y="14"/>
      <point x="93" y="-3"/>
    </contour>
    <contour>
      <point x="128" y="441" type="curve" smooth="yes"/>
      <point x="164" y="441"/>
      <point x="183" y="458"/>
      <point x="183" y="492" type="curve" smooth="yes"/>
      <point x="183" y="527"/>
      <point x="164" y="544"/>
      <point x="128" y="544" type="curve" smooth="yes"/>
      <point x="93" y="544"/>
      <point x="76" y="527"/>
      <point x="76" y="492" type="curve" smooth="yes"/>
      <point x="76" y="458"/>
      <point x="93" y="441"/>
    </contour>
  </outline>
</glyph>
<glyph name="comma.tab" format="1">
  <advance width="258"/>
  <outline>
    <contour>
      <point x="120" y="-155" type="line"/>
      <point x="190" y="98" type="line"/>
      <point x="105" y="98" type="line"/>
      <point x="56" y="-145" type="line"/>
    </contour>
  </outline>
</glyph>
<glyph name="currency.ss01" format="1">
  <advance width="550"/>
  <outline>
    <contour>
      <point x="155" y="-150" type="line"/>
      <point x="220" y="-150" type="line"/>
      <point x="220" y="29" type="line"/>
      <point x="155" y="27" type="line"/>
    </contour>
    <contour>
      <point x="155" y="713" type="line"/>
      <point x="220" y="717" type="line"/>
      <point x="220" y="890" type="line"/>
      <point x="155" y="890" type="line"/>
    </contour>
    <contour>
      <point x="304" y="-150" type="line"/>
      <point x="371" y="-150" type="line"/>
      <point x="371" y="29" type="line"/>
      <point x="304" y="27" type="line"/>
    </contour>
    <contour>
      <point x="304" y="713" type="line"/>
      <point x="371" y="717" type="line"/>
      <point x="371" y="890" type="line"/>
      <point x="304" y="890" type="line"/>
    </contour>
    <component base="B" xOffset="2"/>
  </outline>
</glyph>
<glyph name="dieresis.cap" format="1">
  <advance width="396"/>
  <outline>
    <contour>
      <point x="197" y="774" type="move" name="_topUC"/>
    </contour>
    <contour>
      <point x="99" y="809" type="curve" smooth="yes"/>
      <point x="132" y="809"/>
      <point x="151" y="824"/>
      <point x="151" y="860" type="curve" smooth="yes"/>
      <point x="151" y="895"/>
      <point x="132" y="910"/>
      <point x="99" y="910" type="curve" smooth="yes"/>
      <point x="66" y="910"/>
      <point x="48" y="895"/>
      <point x="48" y="860" type="curve" smooth="yes"/>
      <point x="48" y="825"/>
      <point x="66" y="809"/>
    </contour>
    <contour>
      <point x="295" y="809" type="curve" smooth="yes"/>
      <point x="327" y="809"/>
      <point x="347" y="824"/>
      <point x="347" y="860" type="curve" smooth="yes"/>
      <point x="347" y="895"/>
      <point x="327" y="910"/>
      <point x="295" y="910" type="curve" smooth="yes"/>
      <point x="262" y="910"/>
      <point x="244" y="895"/>
      <point x="244" y="860" type="curve" smooth="yes"/>
      <point x="244" y="825"/>
      <point x="262" y="809"/>
    </contour>
  </outline>
</glyph>
<glyph name="divide.tab" format="1">
  <advance width="516"/>
  <outline>
    <contour>
      <point x="261" y="160" type="curve" smooth="yes"/>
      <point x="291" y="160"/>
      <point x="311" y="176"/>
      <point x="311" y="207" type="curve" smooth="yes"/>
      <point x="311" y="237"/>
      <point x="291" y="254"/>
      <point x="261" y="254" type="curve" smooth="yes"/>
      <point x="232" y="254"/>
      <point x="212" y="238"/>
      <point x="212" y="207" type="curve" smooth="yes"/>
      <point x="212" y="176"/>
      <point x="232" y="160"/>
    </contour>
    <contour>
      <point x="46" y="338" type="line"/>
      <point x="471" y="338" type="line"/>
      <point x="471" y="402" type="line"/>
      <point x="46" y="402" type="line"/>
    </contour>
    <contour>
      <point x="261" y="480" type="curve" smooth="yes"/>
      <point x="291" y="480"/>
      <point x="311" y="497"/>
      <point x="311" y="527" type="curve" smooth="yes"/>
      <point x="311" y="557"/>
      <point x="291" y="575"/>
      <point x="261" y="575" type="curve" smooth="yes"/>
      <point x="232" y="575"/>
      <point x="212" y="558"/>
      <point x="212" y="527" type="curve" smooth="yes"/>
      <point x="212" y="497"/>
      <point x="232" y="480"/>
    </contour>
  </outline>
</glyph>
<glyph name="dotaccent.cap" format="1">
  <advance width="200"/>
  <outline>
    <contour>
      <point x="99" y="774" type="move" name="_topUC"/>
    </contour>
    <contour>
      <point x="99" y="799" type="curve" smooth="yes"/>
      <point x="132" y="799"/>
      <point x="151" y="814"/>
      <point x="151" y="849" type="curve" smooth="yes"/>
      <point x="151" y="884"/>
      <point x="132" y="900"/>
      <point x="99" y="900" type="curve" smooth="yes"/>
      <point x="66" y="900"/>
      <point x="48" y="885"/>
      <point x="48" y="849" type="curve" smooth="yes"/>
      <point x="48" y="814"/>
      <point x="66" y="799"/>
    </contour>
  </outline>
</glyph>
<glyph name="eight.denominator" format="1">
  <advance width="386"/>
  <outline>
    <contour>
      <point x="193" y="-2" type="curve" smooth="yes"/>
      <point x="290" y="-2"/>
      <point x="351" y="54"/>
      <point x="351" y="145" type="curve" smooth="yes"/>
      <point x="351" y="210"/>
      <point x="328" y="252"/>
      <point x="273" y="281" type="curve"/>
      <point x="318" y="306"/>
      <point x="338" y="346"/>
      <point x="338" y="411" type="curve" smooth="yes"/>
      <point x="338" y="500"/>
      <point x="283" y="553"/>
      <point x="193" y="553" type="curve" smooth="yes"/>
      <point x="104" y="553"/>
      <point x="48" y="499"/>
      <point x="48" y="411" type="curve" smooth="yes"/>
      <point x="48" y="351"/>
      <point x="69" y="309"/>
      <point x="114" y="281" type="curve"/>
      <point x="60" y="251"/>
      <point x="35" y="205"/>
      <point x="35" y="138" type="curve" smooth="yes"/>
      <point x="35" y="52"/>
      <point x="96" y="-2"/>
    </contour>
    <contour>
      <point x="193" y="55" type="curve" smooth="yes"/>
      <point x="137" y="55"/>
      <point x="100" y="91"/>
      <point x="100" y="145" type="curve" smooth="yes"/>
      <point x="100" y="199"/>
      <point x="119" y="229"/>
      <point x="174" y="257" type="curve"/>
      <point x="194" y="250" type="line" smooth="yes"/>
      <point x="263" y="228"/>
      <point x="286" y="201"/>
      <point x="286" y="145" type="curve" smooth="yes"/>
      <point x="286" y="90"/>
      <point x="250" y="55"/>
    </contour>
    <contour>
      <point x="206" y="303" type="curve"/>
      <point x="196" y="306" type="line" smooth="yes"/>
      <point x="136" y="326"/>
      <point x="112" y="355"/>
      <point x="112" y="407" type="curve" smooth="yes"/>
      <point x="112" y="461"/>
      <point x="142" y="494"/>
      <point x="193" y="494" type="curve" smooth="yes"/>
      <point x="244" y="494"/>
      <point x="275" y="463"/>
      <point x="275" y="408" type="curve" smooth="yes"/>
      <point x="275" y="355"/>
      <point x="255" y="324"/>
    </contour>
  </outline>
</glyph>
